<svg id="Ebene_1" data-name="Ebene 1" xmlns="http://www.w3.org/2000/svg" viewBox="0 0 1124.3 501.14"><defs><style>.cls-1{fill:#fff;}.cls-2{fill:#b92736;}.cls-3{fill:#2c2517;}.cls-4,.cls-6{font-size:35px;font-family:OpenSans, Open Sans;letter-spacing:0.01em;}.cls-4,.cls-7{fill:#1c1d1c;}.cls-5{fill:#fdfeff;}.cls-6{fill:#1d1d1b;}.cls-8{fill:#a93031;}</style></defs><title>Koop_Logo_breit</title><g id="Bibliothek_Logo" data-name="Bibliothek Logo"><rect class="cls-1" x="536.66" y="390.85" width="587.5" height="110.29"/><path class="cls-2" d="M633.66,426.11a43,43,0,0,0-4.94-7.25.78.78,0,0,0-1.06,0h0L615.9,430.15l-8.66,8.29,26.14-11.5A.79.79,0,0,0,633.66,426.11Z"/><path class="cls-2" d="M636.81,433.68a.78.78,0,0,0-1-.36h0v0l-1.28.48L611,442.4l15.76-.39,10.9-.26a.8.8,0,0,0,.66-.74A42.11,42.11,0,0,0,636.81,433.68Z"/><path class="cls-2" d="M559.16,428.75l30.72,13,.26-.4-23.48-23.6a.78.78,0,0,0-1-.06,41.33,41.33,0,0,0-6.88,10.22A.76.76,0,0,0,559.16,428.75Z"/><path class="cls-2" d="M637.73,449.89l-24.75-1,23.33,8.59a.76.76,0,0,0,.82-.42,41.72,41.72,0,0,0,1.25-6.56A.77.77,0,0,0,637.73,449.89Z"/><path class="cls-2" d="M554.75,444.14a.8.8,0,0,0,.72.79l33.34.09a7.27,7.27,0,0,1,.17-1l-30.69-12.91h0a.77.77,0,0,0-1,.33,42.27,42.27,0,0,0-2.56,12.73Z"/><path class="cls-2" d="M609.25,405.91a42.07,42.07,0,0,0-9.79-1.83.77.77,0,0,0-.7.73l-.33,29.83,11.24-27.86A.79.79,0,0,0,609.25,405.91Z"/><path class="cls-2" d="M623.3,414.61a.79.79,0,0,0,.07-1,41.35,41.35,0,0,0-7.9-5.15.79.79,0,0,0-.84.3l-5.49,12.69L603,435.52l20.28-20.89,0,0Z"/><path class="cls-2" d="M568.85,415.61h0l22.74,22.91-12.53-29.9a.78.78,0,0,0-1-.32,41.82,41.82,0,0,0-9.11,6.1l-.17.15A.78.78,0,0,0,568.85,415.61Z"/><path class="cls-2" d="M582.59,407.28a0,0,0,0,1,0,0h0L594.14,435l.06-30.13a.79.79,0,0,0-.71-.74A41.92,41.92,0,0,0,583,406.27.79.79,0,0,0,582.59,407.28Z"/><path class="cls-2" d="M632.38,466.56l-29.84-14.68h0a1.56,1.56,0,0,0-1.47,0l0,0h0a7.52,7.52,0,0,1-1.62.91,7.7,7.7,0,0,1-10-4.17,8.36,8.36,0,0,1-.43-1.43.94.94,0,0,0-.94-.76h-.11l-32.42,0a.78.78,0,0,0-.73.7,42,42,0,0,0,78,20.35A.79.79,0,0,0,632.38,466.56Z"/><path class="cls-3" d="M1032.6,468.84c0-2.45-1.95-3.18-3.8-3.93-.89-.35-1.39-.7-1.39-1.39s.43-1.31,1.49-1.31a8.35,8.35,0,0,1,2.58.45l.5-2.1a9.79,9.79,0,0,0-3.1-.47c-2.37,0-4.36,1.16-4.36,3.59,0,2,1.37,2.93,3.22,3.6,1.23.48,2,.9,2,1.81s-.62,1.46-1.93,1.46a9.41,9.41,0,0,1-2.89-.48l-.33,2.26a13.19,13.19,0,0,0,3.18.4C1030.18,472.73,1032.6,471.67,1032.6,468.84Zm-13.16-1.48v-7h-2.72v7.17c0,1.89-.77,3.08-2.55,3.08s-2.58-1-2.58-3.08v-7.17h-2.75v7.3c0,3.43,2,5.07,5.22,5.07S1019.44,470.84,1019.44,467.36Zm-18.87.27h-3.43c.47-1.45,1.16-3.41,1.71-4.84C999.39,464.25,1000.09,466.18,1000.57,467.63Zm4.39,4.87c-1.33-4.12-2.81-8.13-4.52-12.18h-3.07c-1.64,4-3.14,8.06-4.45,12.18h2.68c.3-1,.58-1.93.86-2.78h4.8c.27.89.54,1.8.83,2.78Zm-16.51,0V460.32h-2.72v4.78h-5.21v-4.78h-2.74v12.19h2.74v-5.23h5.21v5.23h2.72Zm-24,0a119.09,119.09,0,0,0-.94-12.18h-3.91L956.53,469l-2.95-8.69h-3.85a101.51,101.51,0,0,0-1,12.18h2.52c0-3.2.33-6.51.59-9.5l3.23,9.5h2.72l3.25-9.48c.31,3,.58,6.23.62,9.48Zm-20.9,0v-2.1h-4.7v-3.16h3.95v-2h-3.95v-2.83h4.64v-2.07h-7.36V472.5Zm-13.51,0V460.32h-2.43v8.54l-5.2-8.54H919.1v12.19h2.43v-8.62l5.23,8.62h3.29Zm-17,0V460.32h-2.75v12.19H913Zm-8.09,0v-2.1h-4.7v-3.16h3.95v-2h-3.95v-2.83h4.64v-2.07H897.5V472.5Zm-20.9,0V460.32h-2.43v8.54l-5.2-8.54h-3.33v12.19h2.44v-8.62l5.24,8.62H884Zm-17,0V460.32h-2.74v12.19H867Zm-14.79-10v-2.16H842.7v2.16H846v10h2.77v-10ZM841,472.5v-2.14H836.6v-10h-2.74V472.5Zm-12.45,0v-2.1h-4.7v-3.16h3.95v-2h-3.95v-2.83h4.64v-2.07h-7.37V472.5Zm-12.21-12.18h-2.76a69.86,69.86,0,0,1-2.21,9l-2.2-9h-3.29l-2.18,9.1a91.6,91.6,0,0,1-2.26-9.1h-3a112.61,112.61,0,0,0,3.39,12.19h3.55l2-8.37,2,8.37H813A99,99,0,0,0,816.31,460.32ZM786.37,472.5v-2.1h-4.69v-3.16h4v-2h-4v-2.83h4.63v-2.07H779V472.5Zm-12.34,0v-2.2H768.2l5.66-7.91v-2.07h-8.65v2.2h5.45L765,470.46v2Zm-14,0V460.32h-2.43v8.54l-5.19-8.54h-3.33v12.19h2.43v-8.62l5.24,8.62h3.28Zm-19.81-4.87h-3.43c.48-1.45,1.16-3.41,1.7-4.84C739.08,464.25,739.78,466.18,740.26,467.63Zm4.39,4.87c-1.33-4.12-2.81-8.13-4.51-12.18h-3.08c-1.64,4-3.14,8.06-4.45,12.18h2.68c.29-1,.58-1.93.85-2.78H741c.27.89.54,1.8.83,2.78Zm-15.78-11.37a8.82,8.82,0,0,0-4.25-1c-3.93,0-6.67,2.54-6.67,6.44s2.37,6.18,6.38,6.18a14,14,0,0,0,4.47-.71v-6.23h-2.72v4.59a6.38,6.38,0,0,1-1.56.22c-2.22,0-3.77-1.51-3.77-4.19,0-2.46,1.46-4.16,3.79-4.16a6.71,6.71,0,0,1,3.43.89ZM705.66,472.5v-2.1H701v-3.16h4v-2h-4v-2.83h4.64v-2.07h-7.36V472.5Zm-13.51,0V460.32h-2.74v12.19h2.74Zm-10.64-6.11c0,2.66-1.29,4-3.66,4h-1.69v-7.92h1.73C680.47,462.44,681.51,464.16,681.51,466.39Zm2.84-.15c0-3.82-2.38-5.92-6-5.92h-4.89v12.19h4.51C682,472.5,684.35,470.13,684.35,466.24Z"/><path class="cls-3" d="M1106.09,447.4V433.9c0-4.34-1.73-7.63-5.71-7.63a5.92,5.92,0,0,0-5.06,2.89V417.27h-4.5V447.4h4.5V433c1.45-2.13,2.45-3,3.78-3,1.88,0,2.49,1.76,2.49,4.78V447.4Zm-25.36-10.08c0,4.18-1.08,6.95-3.61,6.95s-3.74-2.53-3.74-7.35c0-4.14,1.09-7,3.62-7S1080.73,432.5,1080.73,437.32Zm4.71-.4c0-6.67-2.78-10.65-8.24-10.65s-8.48,4.14-8.48,11.13c0,6.63,2.77,10.53,8.2,10.53S1085.44,443.79,1085.44,436.92ZM1065,447.44v-3.33h-1c-1,0-1.29-.72-1.29-2.09V417.27h-4.45v25.87c0,3.54,1.68,4.63,4,4.63A11.26,11.26,0,0,0,1065,447.44Zm-12-5.7c0-2.77-1.16-4.46-4.62-6.55-2-1.29-2.49-2.13-2.49-3.38a2.13,2.13,0,0,1,2.37-2.09,9.2,9.2,0,0,1,3.26.73l.52-3.54a13.87,13.87,0,0,0-4.18-.64c-4.14,0-6.51,2.45-6.51,6,0,2.81,1.29,4.42,4.22,6.26,2.21,1.41,2.81,2.29,2.81,3.58s-.93,2.29-2.61,2.29a9.93,9.93,0,0,1-3.86-.92l-.6,3.69a15.29,15.29,0,0,0,4.86.76C1050.6,447.93,1053.05,445.39,1053.05,441.74Zm-15.31-15.15a5.7,5.7,0,0,0-1.81-.32c-1.72,0-2.69,1.12-4.29,3.94l-.41-3.42h-3.45V447.4h4.5V434c1.65-2.58,2.41-3.54,3.34-3.54a4.69,4.69,0,0,1,1.6.36Zm-20,8.32h-6.46c.12-2.73,1-5.39,3.49-5.39C1016.85,429.52,1017.86,431.57,1017.77,434.91Zm4.43.84c0-5.94-2-9.48-7.23-9.48-5.43,0-8.28,4.18-8.28,11,0,7.15,2.73,10.68,8.31,10.68a20.44,20.44,0,0,0,6.67-1.12l-.48-3.46a17.07,17.07,0,0,1-5.55,1c-3.21,0-4.29-2.33-4.29-6.31h10.81C1022.16,437.24,1022.2,436.23,1022.2,435.75Zm-19.49,11.61v-3.21h-1.36c-1.69,0-2.25-.53-2.25-3.46v-10.4h3.61v-3.5H999.1v-6h-3.46l-1,6h-2.28v3.5h2.28v12c0,4.34,1.9,5.54,4.63,5.54A12.2,12.2,0,0,0,1002.71,447.36Zm-15.11,0V426.79h-4.49v14.39c-1.49,2.12-2.5,3-3.82,3-1.89,0-2.45-1.77-2.45-4.78V426.79h-4.5v13.5c0,4.34,1.73,7.63,5.82,7.63,2.41,0,4.06-1.12,5.63-3.25l.36,2.73Zm-8.67-26.84a2.38,2.38,0,1,0-2.38,2.46A2.3,2.3,0,0,0,978.93,420.56Zm6.79,0a2.27,2.27,0,0,0-2.37-2.41,2.44,2.44,0,1,0,2.37,2.41Zm-19.53.53a13.7,13.7,0,0,0-7.35-2.17c-7.28,0-11.53,5.62-11.53,14.78s3.85,14.19,11.24,14.19a19.35,19.35,0,0,0,7.52-1.49V432.5h-4.7v10.92a8.85,8.85,0,0,1-2.7.49c-4.13,0-6.38-3.58-6.38-10.53,0-6.31,2-10.53,6.63-10.53a10.8,10.8,0,0,1,5.82,1.89ZM940.76,447.4l-5.43-13.82,5.07-7h-7.08l-3.85,7.07V417.27h-6V447.4h6v-7.23l1.16-1.69,3.26,8.92Zm-28-12.81h-4.58c.08-2.41.69-4.34,2.46-4.34C912.11,430.25,912.79,431.81,912.75,434.59Zm5.87,1.32c0-6.51-2.17-9.92-7.79-9.92s-8.8,4.22-8.8,11.29c0,7.31,2.89,10.73,8.83,10.73a22.67,22.67,0,0,0,7.16-1.17l-.52-4.54a19.5,19.5,0,0,1-5.79.93c-2.45,0-3.49-1.69-3.49-4.63h10.35C918.58,437.64,918.62,436.47,918.62,435.91Zm-21,11.49V433.74c0-4.74-2.09-7.75-5.87-7.75a5.47,5.47,0,0,0-4.7,2.45V417.27H881V447.4H887V433.26c1-1.61,1.85-2.25,2.73-2.25,1.33,0,1.73,1.21,1.73,4V447.4Zm-21.26,0v-4.34h-1.24c-1.61,0-1.89-.72-1.89-3.45v-8.32h3.13v-4.7h-3.13v-5.95h-4.66l-1.41,5.95h-2v4.7h2v10.65c0,4.58,2,6,4.91,6A15.09,15.09,0,0,0,876.35,447.4Zm-20.8-10.2c0,3.61-.65,6-2.58,6-1.77,0-2.65-1.85-2.65-6.34,0-3.54.6-6,2.49-6S855.55,432.78,855.55,437.2Zm6.26-.36c0-6.79-2.77-10.81-8.72-10.81s-9,4.18-9,11.37c0,6.67,2.77,10.6,8.72,10.6S861.81,443.79,861.81,436.84ZM839.47,447.4V426.59h-8.2v4.7h2.13V447.4Zm.44-26.71a3.48,3.48,0,1,0-3.49,3.53A3.39,3.39,0,0,0,839.91,420.69ZM828.58,447.4V443h-.84c-.88,0-1.21-.6-1.21-1.92V417.27h-6V442.7c0,4.06,1.88,5.19,4.5,5.19A11,11,0,0,0,828.58,447.4Zm-19-10.48c0,3.93-1.09,6-3,6a3.31,3.31,0,0,1-1.77-.44v-9.24c1.16-1.73,1.77-2.25,2.69-2.25C809.1,431,809.62,433.3,809.62,436.92Zm6.31-.81c0-5.62-2.17-10.12-6.51-10.12a5.34,5.34,0,0,0-4.58,2.25v-11h-6.07V446.4a22,22,0,0,0,7.43,1.49C813,447.89,815.93,443.14,815.93,436.11ZM793.39,447.4V426.59h-8.2v4.7h2.13V447.4Zm.44-26.71a3.48,3.48,0,1,0-7,0,3.48,3.48,0,1,0,7,0ZM775.35,439c0,2.34-1,3.62-2.94,3.62h-2v-7.35h1.73C774.5,435.23,775.35,436.72,775.35,439Zm-.93-11.61c0,1.89-.72,3.3-2.45,3.3h-1.61v-6.59h1.45C773.5,424.06,774.42,425.27,774.42,427.35Zm7.52,11.38c0-3.66-1.85-6-4.5-6.59,2-.81,3.29-2.82,3.29-5.71,0-5-3.41-7.07-8.72-7.07h-7.87v28h7.71C777,447.4,781.94,445.15,781.94,438.73Zm-26,8.63v-3.21h-1.36c-1.69,0-2.26-.53-2.26-3.46v-10.4H756v-3.5h-3.62v-6h-3.45l-1,6h-2.29v3.5h2.29v12c0,4.34,1.89,5.54,4.62,5.54A12.23,12.23,0,0,0,756,447.36Zm-19.65-6.18c-1.68,2.41-2.53,3-3.65,3-2.41,0-3-3.13-3-6.79,0-4.7,1.33-7.35,3.9-7.35a5.93,5.93,0,0,1,2.73.6Zm4.5,6.22V417.27h-4.5v9.52a13.06,13.06,0,0,0-2.89-.28c-5.87,0-8.44,5.1-8.44,11.33,0,5.58,1.89,10.08,6.59,10.08,2.25,0,3.82-1,5.47-3.29l.32,2.77Zm-25.63-5.3c-1,1.37-2.05,2.45-3.41,2.45-1.61,0-2.41-1.2-2.41-3,0-2.21,1.2-3.46,3.53-3.46h2.29v4Zm4.42,5.3V433.14c0-4.18-2.09-6.87-7.15-6.87a15.37,15.37,0,0,0-6.23,1.41l.76,3.25a12,12,0,0,1,4.91-1.21c2.57,0,3.29,1.25,3.29,3.9v1.53h-2c-5,0-8.24,2.05-8.24,6.67,0,3.94,2.37,6.11,5.71,6.11a6.44,6.44,0,0,0,5.22-2.74l.28,2.21Zm-18.88,0v-3.21h-1.37c-1.69,0-2.25-.53-2.25-3.46v-10.4h3.62v-3.5h-3.62v-6h-3.46l-1,6h-2.29v3.5h2.29v12c0,4.34,1.89,5.54,4.62,5.54A12.28,12.28,0,0,0,700.74,447.36Zm-14-8c0-3-1.16-5.23-5.1-7.88-2.93-2-4.22-3.25-4.22-5.46a3.22,3.22,0,0,1,3.38-3.42,9.49,9.49,0,0,1,3.89.85l.69-3.78a13.81,13.81,0,0,0-4.79-.84c-4.61,0-8.11,2.89-8.11,7.83,0,3.26,1.2,5.31,5,7.84,3.17,2.13,4.34,3.29,4.34,5.62s-1.28,3.86-4.14,3.86a12.9,12.9,0,0,1-4.66-.93l-.6,3.94a17.28,17.28,0,0,0,5.46.93C683.14,447.93,686.76,445,686.76,439.37Z"/></g><text class="cls-4" transform="translate(803.48 393.03)">in Kooperation mit</text><path class="cls-5" d="M806.49,401.53A8.51,8.51,0,0,1,798,393V374.29a8.42,8.42,0,0,1,.21-1.89,11.16,11.16,0,0,1-.45-3.18,10.32,10.32,0,0,1,3.13-7.6,10.3,10.3,0,0,1,14-.05,10.31,10.31,0,0,1,3.21,7.65,11.13,11.13,0,0,1-.47,3.24,8.48,8.48,0,0,1,.19,1.83V393a8.5,8.5,0,0,1-8.5,8.5Z"/><path class="cls-5" d="M828.65,401.53a8.46,8.46,0,0,1-5-1.62,8.43,8.43,0,0,1-5,1.62h-2.83a8.51,8.51,0,0,1-8.51-8.5V374.29a8.51,8.51,0,0,1,8.51-8.5h2.3a8.65,8.65,0,0,1,2.05.25,17.14,17.14,0,0,1,4.5-.59c5.61,0,9.06,2.17,11,4s4.34,5.4,4.34,11.38V393a8.5,8.5,0,0,1-8.5,8.5Z"/><path class="cls-5" d="M862.45,401.53a8.53,8.53,0,0,1-5.87-2.34,8.47,8.47,0,0,1-5.86,2.34h-2.9a8.51,8.51,0,0,1-8.51-8.5V368a8.5,8.5,0,0,1,8.51-8.5h2.9a8.46,8.46,0,0,1,5.67,2.16,8.46,8.46,0,0,1,5.66-2.16h3.44a8.5,8.5,0,0,1,6.24,14.28l-5.27,5.69,6.25,8.47a8.51,8.51,0,0,1-6.85,13.55Z"/><path class="cls-5" d="M876.85,401.87a16.84,16.84,0,0,1-8.87-2.41,16.26,16.26,0,0,1-6.27-7,20.26,20.26,0,0,1-1.9-8.85c0-5.19,1.5-9.5,4.47-12.81a17.45,17.45,0,0,1,25.3.1A18.57,18.57,0,0,1,894,383.64c0,5.21-1.51,9.52-4.48,12.84A16.49,16.49,0,0,1,876.85,401.87Z"/><path class="cls-5" d="M898.48,401.87a16.84,16.84,0,0,1-8.87-2.41,16.17,16.17,0,0,1-6.26-7,20.12,20.12,0,0,1-1.91-8.85c0-5.19,1.51-9.5,4.47-12.81a17.45,17.45,0,0,1,25.3.1,18.57,18.57,0,0,1,4.45,12.71c0,5.21-1.51,9.52-4.48,12.84A16.47,16.47,0,0,1,898.48,401.87Z"/><path class="cls-5" d="M912.62,409.94a8.51,8.51,0,0,1-8.5-8.51V374.29a8.51,8.51,0,0,1,8.5-8.5h2.31a8.56,8.56,0,0,1,2,.23,17,17,0,0,1,4.44-.57,15.43,15.43,0,0,1,12.4,5.76c2.58,3.23,3.88,7.41,3.88,12.43s-1.33,9.26-3.94,12.51a15.22,15.22,0,0,1-9.72,5.53,8.51,8.51,0,0,1-8.5,8.26Z"/><path class="cls-5" d="M942.47,401.87a17,17,0,0,1-12.72-5.18c-2.16-2.27-4.74-6.36-4.74-12.88a19.16,19.16,0,0,1,4.21-12.65,15.8,15.8,0,0,1,12.52-5.71,15.45,15.45,0,0,1,11.93,5.18,17.23,17.23,0,0,1,4.19,11.75v1.79a8.47,8.47,0,0,1-.94,3.9,8.93,8.93,0,0,1,.14,1.55v2.53a8.5,8.5,0,0,1-5.13,7.81,23.92,23.92,0,0,1-4.47,1.45A24.22,24.22,0,0,1,942.47,401.87Z"/><path class="cls-5" d="M954.69,401.53a8.51,8.51,0,0,1-8.51-8.5V374.29a8.51,8.51,0,0,1,8.51-8.5H957a8.63,8.63,0,0,1,2.1.26,14.13,14.13,0,0,1,4.1-.6,19.79,19.79,0,0,1,4,.38,8.5,8.5,0,0,1,6.69,9.58l-.39,2.63a8.52,8.52,0,0,1-7.46,7.2V393a8.51,8.51,0,0,1-8.51,8.5Z"/><path class="cls-5" d="M974,401.87a14.58,14.58,0,0,1-10.08-3.64,13.5,13.5,0,0,1-4.37-10.38,14.17,14.17,0,0,1,2.94-8.53l-.23-.56a8.5,8.5,0,0,1,3.83-10.64,22.13,22.13,0,0,1,10.4-2.64c4.43,0,8,1.26,10.73,3.74,2,1.83,4.36,5.23,4.36,11V393a8.51,8.51,0,0,1-8.51,8.5H981a8.35,8.35,0,0,1-2.13-.27A18.23,18.23,0,0,1,974,401.87Z"/><path class="cls-5" d="M995.06,401.87c-8.34,0-13.94-5.72-13.94-14.23V382.7a8.49,8.49,0,0,1-2.68-6.2v-1.37a8.5,8.5,0,0,1,4.14-7.3l.09-.31a8.51,8.51,0,0,1,8.15-6.07h1.64a8.5,8.5,0,0,1,7.56,4.61,8.5,8.5,0,0,1,6.38,8.23v2.21a8.52,8.52,0,0,1-3.74,7.05,5,5,0,0,1,.47.33,8.51,8.51,0,0,1,3.41,6.8v2.17a8.5,8.5,0,0,1-4.81,7.66,13.31,13.31,0,0,1-3.7,1.11A18.59,18.59,0,0,1,995.06,401.87Z"/><path class="cls-5" d="M1002.26,401.53a8.51,8.51,0,0,1-8.5-8.5V374.29a8.42,8.42,0,0,1,.21-1.89,11.16,11.16,0,0,1-.45-3.18,10.32,10.32,0,0,1,3.13-7.6,10.3,10.3,0,0,1,14-.05,10.31,10.31,0,0,1,3.21,7.65,11.13,11.13,0,0,1-.47,3.24,8.48,8.48,0,0,1,.19,1.83V393a8.5,8.5,0,0,1-8.5,8.5Z"/><path class="cls-5" d="M1019.09,401.87a16.87,16.87,0,0,1-8.87-2.41,16.17,16.17,0,0,1-6.26-7,20.26,20.26,0,0,1-1.9-8.85c0-5.19,1.5-9.5,4.46-12.81a17.45,17.45,0,0,1,25.3.1,18.52,18.52,0,0,1,4.46,12.71c0,5.21-1.51,9.52-4.49,12.84A16.47,16.47,0,0,1,1019.09,401.87Z"/><path class="cls-5" d="M1046.05,401.53a8.5,8.5,0,0,0-10,0h-2.83a8.51,8.51,0,0,1-8.51-8.5V374.29a8.51,8.51,0,0,1,8.51-8.5h2.3a8.65,8.65,0,0,1,2,.25,17.14,17.14,0,0,1,4.5-.59c5.61,0,9.06,2.17,11,4s4.34,5.41,4.34,11.38V393a8.5,8.5,0,0,1-8.5,8.5Z"/><path class="cls-5" d="M1088.66,401.53a8.5,8.5,0,0,0-9.1,0h-2.84a8.48,8.48,0,0,0-9.09,0h-2.84a8.5,8.5,0,0,1-8.5-8.5V374.29a8.5,8.5,0,0,1,8.5-8.5h2.31a8.67,8.67,0,0,1,1.91.22,15.86,15.86,0,0,1,4.22-.56,16.69,16.69,0,0,1,6,1.06,16.24,16.24,0,0,1,5.89-1.06c5.6,0,9,2.29,10.87,4.22,2.64,2.73,4,6.47,4,11.14V393a8.5,8.5,0,0,1-8.5,8.5Z"/><path class="cls-5" d="M1097.84,401.53a8.51,8.51,0,0,1-8.51-8.5V374.29a9,9,0,0,1,.21-1.89,11.53,11.53,0,0,1-.45-3.18,10.33,10.33,0,0,1,3.14-7.6,10.28,10.28,0,0,1,14-.05,10.31,10.31,0,0,1,3.21,7.65,11.13,11.13,0,0,1-.47,3.24,8.48,8.48,0,0,1,.2,1.83V393a8.51,8.51,0,0,1-8.51,8.5Z"/><path class="cls-5" d="M1112.82,401.87c-8.34,0-13.94-5.72-13.94-14.23V382.7a8.49,8.49,0,0,1-2.68-6.2v-1.37a8.5,8.5,0,0,1,4.14-7.3l.09-.31a8.51,8.51,0,0,1,8.15-6.07h1.64a8.5,8.5,0,0,1,7.56,4.61,8.5,8.5,0,0,1,6.38,8.23v2.21a8.5,8.5,0,0,1-3.74,7.05,5,5,0,0,1,.47.33,8.51,8.51,0,0,1,3.41,6.8v2.17a8.5,8.5,0,0,1-4.81,7.66,13.31,13.31,0,0,1-3.7,1.11A18.59,18.59,0,0,1,1112.82,401.87Z"/><text class="cls-6" transform="translate(803.48 393.03)">in Kooperation mit</text><g id="MSGT_Logo" data-name="MSGT Logo"><path id="Hintergrund" class="cls-5" d="M538.71,170.31H482.28l8.26-6.17,6.91-5.16,1.52-1.12,7.21-5.31-4.05-8s-.37-.74-.71-1.45a251.51,251.51,0,0,0-20.29-35c-.55-.8-1.1-1.6-1.11-1.6l-4.89-7.1-7.93,3.36-2,.84-11.42,4.92-11.17,4.81-12.27,5.28a201.62,201.62,0,0,0-23.56-23.56l2.36-5.49,12.51-29.16c.56-1.24.93-2.1,1-2.19l3.46-8.15-7.42-4.84L417,44.1a245.28,245.28,0,0,0-34.15-19.77c-1.12-.53-1.94-1-1.95-1l-8.16-4.23-5.33,7.49s-.51.72-1.2,1.6c-.24.31-.42.57-.54.75l-5.45,7.3Q351.94,47.4,343.64,58.5c-2.92-1-5.85-2-8.75-2.9a195.88,195.88,0,0,0-23.44-5.7l-.14-1.21q-1.12-9.51-2.26-19l-.49-4.09c-.16-1.37-.33-2.74-.5-4.1-.38-3.17-.77-6.43-1.13-9.63-.07-.61-.2-1.67-.2-1.67l-1-8.56L297.12.91,296,.8c-2.19-.26-4.28-.33-6.13-.39-1.13,0-2.2-.08-3.19-.15l-.46,0h-1.53c-1.72,0-3.46,0-5.3-.11s-3.91-.13-6-.13H273c-3,0-6.08,0-9.49.24-1.3.1-2.59.15-4,.22-1.78.08-3.63.16-5.56.32l-1.41.14-8.37.84-1.06,8.34s-.12.87-.19,1.51c-.47,4.24-1,8.57-1.5,12.76-.27,2.31-.55,4.62-.82,6.93l-.22,1.86c-.65,5.48-1.31,11.09-1.95,16.7a212.9,212.9,0,0,0-32.23,8.64l-10-13.34L183.49,28.08l-1.22-1.64L177,19.38l-7.9,3.88-1.7.82a239.74,239.74,0,0,0-23.29,12.66c-2.32,1.44-4.56,2.93-6.74,4.36-1.65,1.1-3.22,2.13-4.81,3.15l-1.38.89L123.73,50l3.47,8.18,1.18,2.77,2.55,6Q137,81,143,95.05a209.31,209.31,0,0,0-23.54,23.54l-9.37-4L84.65,103.63h0l0,0-2-.82-7.93-3.35-4.89,7.09-1.23,1.79a248.32,248.32,0,0,0-20,34.52l-.89,1.82L44,152.31l6.69,5.29,1.7,1.34.11.08.12.09,7,5.23,8,6H0V330.66H67.63l-4.72,3.52q-5.2,3.87-10.39,7.76L51,343.09l-7.19,5.23,3.92,8,.9,1.86a249.57,249.57,0,0,0,18.33,32.11l.84,1.24,1,1.51.95,1.41,5,7.45,8.16-3.7,1.43-.64h0c.33-.14.63-.29.92-.43l6.28-2.69,28-12A201.37,201.37,0,0,0,143,405.93l-14.88,34.61c-.51,1.18-1,2.34-1,2.34L124,450.62l6.8,4.86L133,457a249.35,249.35,0,0,0,34.14,19.77l.55.27.72.35.77.37,7.74,3.8,5.28-6.81c.16-.2.57-.73.89-1.19l.12-.18,0-.06.11-.14q.21-.25.39-.51l7.09-9.49,15.45-20.68a197.57,197.57,0,0,0,32.23,8.61l.37,3.11c1.35,11.5,2.75,23.39,4.08,35.08.07.56.16,1.42.16,1.43l1,8.93,9,.5,1.37.08c3.4.19,6.88.43,10.24.65l3.78.26.38,0h.39l13.66-.09h.33l.32,0,3.36-.23c2.9-.21,5.64-.41,8.41-.55l1.35-.05,8.91-.32,1.2-8.83s.16-1.21.24-1.9c.3-2.72.63-5.5,1-8.19.22-1.77.43-3.54.64-5.31l1.62-14q.63-5.3,1.24-10.59c1.71-.31,3.35-.65,4.9-1a196.35,196.35,0,0,0,27.33-7.66l3.24,4.34q9.67,13,19.37,25.94c.67.89,1.22,1.65,1.24,1.67l5.23,7.26,8-4,1.94-.93A253.3,253.3,0,0,0,417,456.92l1.89-1.3,6.95-4.83L422.69,443s-.46-1.13-.94-2.24l-8.16-19L406.82,406a205.48,205.48,0,0,0,23.56-23.55l11,4.74,23.82,10.24,2,.84,7.88,3.35,4.91-7,1.15-1.65a251.93,251.93,0,0,0,20.29-35c.34-.71.76-1.55.76-1.56l3.82-7.76-6.84-5.28L497.48,342l-6.55-4.88-8.68-6.48h67V170.31Z"/><path id="Zahnrad" class="cls-7" d="M136.94,54l1.32-.85c3.84-2.44,7.58-5,11.45-7.43A226.81,226.81,0,0,1,172,33.63l1.81-.88L175,34.41l26.26,35.15c.63.84,1.23,1.62,1.23,1.62s.94-.34,1.82-.68a197.61,197.61,0,0,1,37.19-10.45c1.72-.32,3.47-.51,5.21-.77l1.32-.2s.09-.83.14-1.31c.93-8.41,1.93-16.82,2.92-25.24.77-6.58,1.6-13.16,2.33-19.75.06-.57.16-1.34.16-1.34l1.27-.12c3.12-.27,6.23-.3,9.33-.53s6.07-.21,9.08-.22c4.22,0,8.37.3,12.61.24,2.94.21,5.9.15,8.85.49.58.07,1.5.15,1.5.15s.12,1,.18,1.59c.52,4.6,1.09,9.2,1.64,13.8q1.38,11.54,2.75,23.09c.29,2.46.61,4.92.79,7.38,0,.69.19,1.83.19,1.83l1.85.26a175.26,175.26,0,0,1,28.18,6.32q6.85,2.09,13.52,4.72l2,.79s.57-.73,1.31-1.72q12.86-17.18,25.69-34.38c.1-.13.17-.27.27-.39.86-1.1,1.49-2,1.49-2s1,.5,2.3,1.14A233.05,233.05,0,0,1,411,52.81c1.14.79,1.89,1.27,1.89,1.27s-.36.84-.91,2q-8.56,20-17.17,40c-.44,1-.88,2-.88,2s.86.72,1.73,1.42a190.44,190.44,0,0,1,30.13,30.14l.16.18,1.25,1.54,1.82-.77,17.77-7.63,22.59-9.74,1.9-.81,1.13,1.63a240.2,240.2,0,0,1,19.43,33.53c.4.83.82,1.67.82,1.67l-1.57,1.17q-12.5,9.33-25,18.66c-.51.39-1.46,1.08-1.46,1.08h-1.84q-35,0-70.07,0h-2.12l-1.21-1.71a140.46,140.46,0,0,0-65.83-50.3,140.72,140.72,0,0,0-163,50,4.41,4.41,0,0,1-4.12,2.06q-34.54-.09-69.11,0l-2.28,0-1.87-1.35c-8.1-6.11-16.25-12.16-24.38-18.23l-1.7-1.34.92-1.87A234.7,234.7,0,0,1,77.3,114.31l1.23-1.79,1.94.82,40.16,17.25,2,.84s.71-.85,1.4-1.72a196.55,196.55,0,0,1,30.33-30.29l1.53-1.22-.78-1.84-17-39.58ZM294.72,489.68l1.51-.06s.14-1.05.21-1.65c.5-4.52,1.08-9,1.61-13.56q1.77-15.12,3.52-30.24c.15-1.22.29-2.29.29-2.29s1.27-.2,2.24-.33c3.4-.44,6.76-1.11,10.12-1.78a187.15,187.15,0,0,0,31.54-9.4l1.59-.62a12.2,12.2,0,0,1,1,1.31,7.22,7.22,0,0,0,.56.77q12.92,17.3,25.83,34.58c.74,1,1.34,1.83,1.34,1.83l2.08-1a240.75,240.75,0,0,0,32.9-19c.94-.64,1.85-1.28,1.85-1.28s-.42-1-.85-2l-17.28-40.23c-.41-.93-.78-1.88-.78-1.88l1.52-1.21A193,193,0,0,0,426,371.11c.63-.79,1.26-1.55,1.26-1.55l2,.84,40.16,17.26,1.92.82,1.13-1.61a240.77,240.77,0,0,0,19.43-33.53l.81-1.67-1.54-1.18c-8-6-16-11.93-24-17.95-.6-.45-1.76-1.29-1.76-1.29s-1.41,0-2.17,0q-35.28.06-70.55,0c-.78,0-2.27,0-2.27,0s-.9,1.15-1.44,1.89a140.7,140.7,0,0,1-228.09,0c-.52-.71-1.41-1.86-1.41-1.86s-1.49,0-2.32,0q-35.28.09-70.55,0c-.73,0-2.11,0-2.11,0l-1.62,1.2c-8,6-16,11.95-24,17.95-1,.72-1.67,1.24-1.67,1.24s.41.83,1,2A237.74,237.74,0,0,0,75.7,384.37l1.88,2.77.94,1.41s.92-.42,1.55-.69l.74-.37q20.09-8.62,40.11-17.23l1.75-.75.85,1.07a188.89,188.89,0,0,0,31.3,31.32l1.14.91s-.35.81-.58,1.26-.4.87-.59,1.31l-16.92,39.34c-.46,1.08-.9,2.15-.9,2.15s1,.7,2,1.4a236.8,236.8,0,0,0,32.69,18.93l1.28.62.87.42s.37-.48.58-.78.57-.77.85-1.15l26-34.77,1.33-1.79,2.13.84.21.1a186.45,186.45,0,0,0,41,10.87l2.06.31s.15,1.05.28,2.17c.09.8.24,1.58.34,2.37,1.63,13.89,3.28,27.77,4.86,41.67.07.59.16,1.49.16,1.49l1.39.08c4.71.27,9.42.61,14.12.92l13.66-.1C286.74,490.2,290.73,489.88,294.72,489.68ZM171.52,170.22c7.36,0,14.71,0,22.07,0h1.33s1-.92,1.37-1.26a101.17,101.17,0,0,1,9.79-8.46,112.44,112.44,0,0,1,60.84-23A112.8,112.8,0,0,1,353.6,169l1.33,1.24h1.6c7-.06,13.93,0,21,0h1.69c-52.06-68.24-156.67-68.13-208.51,0A6.57,6.57,0,0,0,171.52,170.22ZM284.73,381.91a129.13,129.13,0,0,0,64.64-22.75A133.43,133.43,0,0,0,379,331.25h-1.23c-7.36,0-14.71,0-22.07,0l-1.28,0s-.68.6-1,.94c-1.74,1.65-3.5,3.28-5.34,4.83a112.44,112.44,0,0,1-61.54,26.19,109.94,109.94,0,0,1-25.12-.27,113,113,0,0,1-28.17-7.12,111.46,111.46,0,0,1-36.25-23.22c-.5-.48-1.44-1.35-1.44-1.35s-1.24-.05-1.93,0c-2.8.1-5.6,0-8.4,0h-14C192.28,359.6,233.29,385.65,284.73,381.91Z"/><path id="Box" class="cls-8" d="M10.57,180.88v139.2H538.71V180.88Zm328.18,65.47H23.36V196.73H338.75Z"/><path id="T" class="cls-5" d="M479.92,245.46v33.11c0,.48,0,1,0,1.44-.1,1,.25,1.54,1.33,1.84a10.35,10.35,0,0,1,4.93,3.28,11.33,11.33,0,0,1-9.85,18.74,11.31,11.31,0,0,1-2.85-21.79,2.29,2.29,0,0,0,1.69-2.62q0-34.06,0-68.15c0-2.16.15-2.12-2.06-2.11-4.08,0-8.16.05-12.24,0a2.06,2.06,0,0,0-2.37,1.64,10.84,10.84,0,0,1-10.16,7.47c-5.83.35-10.68-3.8-11.73-9.8a11.35,11.35,0,0,1,21.64-6.11,2.74,2.74,0,0,0,3.07,2.07q16.44-.1,32.87,0a2.42,2.42,0,0,0,2.73-1.85,11.2,11.2,0,0,1,12.64-6.83,11.37,11.37,0,0,1,0,22.34,11.5,11.5,0,0,1-12.68-6.82c-.86-2.08-.86-2.08-3-2.08h-12c-1.94,0-2,0-2,2Q479.92,228.3,479.92,245.46ZM456.9,207a9,9,0,1,0-9.1,8.94A9,9,0,0,0,456.9,207Zm59.52,0a9,9,0,1,0-9.07,9A9.05,9.05,0,0,0,516.42,207Zm-47.85,85.7a9,9,0,1,0,9-9A9.05,9.05,0,0,0,468.57,292.65Z"/><path id="G" class="cls-5" d="M421.36,264.29a2.77,2.77,0,0,1-1.07,1.62c-3.68,3.67-7.4,7.3-11,11a4.15,4.15,0,0,1-3.36,1.36c-4.48-.07-9,0-13.44,0-2.53,0-2.76-.25-2.78-2.74,0-3,0-5.92,0-8.88,0-2,.29-2.28,2.16-2.34h7v5.86H401V264.3h4.76v5.87H408v-5.87Zm-29.22,32.93a.91.91,0,0,1,.16-1.43c10.59-10.55,19.5-19.39,30.1-29.94l1-1a1.51,1.51,0,0,1,2.34,0c2.05,2,4.11,4,6.09,6.12,1,1,.89,1.49-.23,2.64L421.27,284l-3.58-3.58-1.1,1.1,3.6,3.57-3,2.94-3.58-3.54-1.1,1.11,3.56,3.56-3,2.93-3.53-3.54-1.1,1.11,3.57,3.53-3,2.9-3.54-3.5-1.1,1.1,3.56,3.53-2.88,2.83-3.53-3.51-1.11,1.1,3.56,3.56-3.83,4.08Zm30.8-25.41a1.84,1.84,0,0,0,3.67,0,1.86,1.86,0,0,0-1.85-1.77A1.83,1.83,0,0,0,422.94,271.81Zm-25.22,35.7c-2,2.05-4,4.11-6.12,6.09-1,1-1.49.89-2.64-.23l-10.28-10.48,3.45-3.45-1.1-1.1-3.44,3.43-2.94-3,3.41-3.41-1.11-1.1-3.39,3.4-2.93-3L374,291.3l-1.1-1.1-3.35,3.35-2.9-2.95,3.32-3.33-1.1-1.1-3.32,3.31-2.82-2.88,3.29-3.28-1.1-1.11-3.28,3.28-.09-.1-5.91-6.21c1.41,0,2.91,0,4.4,0,2.14,0,3.24-1.1,3.31-3.2.05-1.58,0-3.15,0-4.81,1,.12,1.29.75,1.72,1.17l31.64,31.81c.33.34.68.68,1,1A1.51,1.51,0,0,1,397.72,307.51Zm-7-2.82a1.84,1.84,0,0,0,0,3.67,1.86,1.86,0,0,0,1.77-1.85A1.83,1.83,0,0,0,390.76,304.69ZM362,253q0,10.8,0,21.59c0,2.76-.2,3-3,3-2.24,0-4.47,0-6.71-.05-1.75,0-2.06-.28-2.08-1.87V262.7h6v-2.51h-6V254.4h6v-2.5h-6v-5.2h6v-2.5h-6V230.27c0-1.52.52-2,2.08-2,2.47,0,4.95,0,7.43,0,2.1,0,2.29.2,2.29,2.37C362,238.11,362,245.55,362,253Zm-3.89,19.32a2,2,0,0,0-2-2.16,2,2,0,0,0-1.94,2,1.82,1.82,0,0,0,1.87,2A2,2,0,0,0,358.06,272.3Zm.18-38.46a2.07,2.07,0,0,0-1.85-2.08,2,2,0,0,0-2.17,2,2.07,2.07,0,0,0,1.82,2.12A2.19,2.19,0,0,0,358.24,233.84Zm39.22-32.9c-.33.35-.67.68-1,1q-15.82,15.91-31.64,31.81c-.42.42-.73,1-1.72,1.17,0-1.66,0-3.23,0-4.8-.06-2.11-1.17-3.17-3.3-3.21-1.5,0-3,0-4.41,0l5.91-6.21.09-.1,3.28,3.28,1.1-1.1-3.28-3.29,2.82-2.88,3.31,3.32,1.1-1.11-3.32-3.32,2.9-3,3.35,3.35,1.11-1.1-3.37-3.37,2.93-3,3.39,3.39,1.11-1.1-3.41-3.41,2.94-3,3.44,3.44,1.1-1.11-3.44-3.44,10.27-10.49c1.15-1.12,1.62-1.19,2.64-.22,2.09,2,4.1,4,6.12,6.09A1.5,1.5,0,0,1,397.46,200.94Zm-5.19-1.34a1.77,1.77,0,1,0-1.78,1.83A1.84,1.84,0,0,0,392.27,199.6Z"/><path id="Makerspace" class="cls-8" d="M64.22,203v37.15H54.71v-13l-4.86,13H44.08l-5-13.38v13.38H29.6V203h9.13L47,224.54,55.24,203Zm27.62,37.15-3.58-9.79H80.52L77,240.12H66.79L78.43,203h12l11.65,37.15ZM131,203l-14.8,18.62L131,240.12H119.85l-6.41-8v8h-9V203h9v8.64l6.47-8.64Zm27.43,8.39H143.06v6h11.33v8.39H143.06v6h15.39v8.39H134.09V203h24.36Zm18,28.76L171.11,228H171v12.09h-9V203h12.13a14.5,14.5,0,0,1,5.69,1,9.62,9.62,0,0,1,3.63,2.6,9.77,9.77,0,0,1,2,3.79,17.5,17.5,0,0,1,.59,4.57,10.81,10.81,0,0,1-.88,4.45,12.85,12.85,0,0,1-2.09,3.27,9.55,9.55,0,0,1-2.43,2,4.46,4.46,0,0,1-1.92.68l8.07,14.83Zm39.11-8.64a7,7,0,0,1-1.09,3.37,9.39,9.39,0,0,1-2.73,2.75,14.16,14.16,0,0,1-4.19,1.84,21,21,0,0,1-5.56.68,16.39,16.39,0,0,1-4.51-.6,14.24,14.24,0,0,1-3.82-1.7,11.25,11.25,0,0,1-2.91-2.67,10.24,10.24,0,0,1-1.74-3.57l8.55-3.35c-.07,0,0,.27.24.7a7.2,7.2,0,0,0,1,1.38,6.77,6.77,0,0,0,1.57,1.29,2.92,2.92,0,0,0,2,.43,3.79,3.79,0,0,0,1.79-.75,2.27,2.27,0,0,0,.82-2.05,2.47,2.47,0,0,0-.72-1.57,10.1,10.1,0,0,0-1.89-1.52c-1.82-1.13-3.5-2.13-5-3a26.7,26.7,0,0,1-4.06-2.68,11,11,0,0,1-2.73-3.14,8.84,8.84,0,0,1-1-4.4,8.43,8.43,0,0,1,1.07-4.29,9.83,9.83,0,0,1,2.83-3.09,13,13,0,0,1,4.06-1.9,18.88,18.88,0,0,1,4.76-.7,15.72,15.72,0,0,1,5.15.77,12.83,12.83,0,0,1,3.74,2,9,9,0,0,1,2.38,2.72,9.37,9.37,0,0,1,1.12,3l-7.85,2.89a9.5,9.5,0,0,0-.48-1.22,4.58,4.58,0,0,0-.88-1.25,5.12,5.12,0,0,0-1.34-1,3.78,3.78,0,0,0-1.79-.4,3.35,3.35,0,0,0-1.95.62,2.27,2.27,0,0,0-.05,3.55,28.59,28.59,0,0,0,2.59,1.92c1.64.87,3.21,1.73,4.73,2.6a21.1,21.1,0,0,1,4,2.94,13.5,13.5,0,0,1,2.83,3.72,10.51,10.51,0,0,1,1.07,4.92ZM230.42,203a12.15,12.15,0,0,1,4.65.85,9.8,9.8,0,0,1,3.55,2.42,10.83,10.83,0,0,1,2.27,3.79,14.72,14.72,0,0,1,.8,5,14.35,14.35,0,0,1-.8,4.9,11.2,11.2,0,0,1-2.27,3.79,9.92,9.92,0,0,1-3.55,2.47,12,12,0,0,1-4.65.87h-3v13.09h-9.14V203h12.13Zm34.92,37.15-3.58-9.79H254l-3.53,9.79h-10.2L251.93,203h12l11.65,37.15Zm25.76-8.24a5.28,5.28,0,0,0,3.82-1.1,8.27,8.27,0,0,0,2.32-3l7.75,4.05c-.32.6-.78,1.36-1.36,2.29a12,12,0,0,1-2.49,2.75,14.53,14.53,0,0,1-4.09,2.32,16.75,16.75,0,0,1-6.11,1h-.06a17.09,17.09,0,0,1-6.81-1.2,12.3,12.3,0,0,1-4.49-3.22,12.73,12.73,0,0,1-2.53-4.7,23.71,23.71,0,0,1-1-5.56V217.8a17.57,17.57,0,0,1,1-5.42,14.45,14.45,0,0,1,2.78-4.77,13.61,13.61,0,0,1,4.62-3.37,15.37,15.37,0,0,1,6.47-1.27H291a16.47,16.47,0,0,1,5.61.85,14,14,0,0,1,4,2.19,11.87,11.87,0,0,1,2.73,3.05,17.87,17.87,0,0,1,1.63,3.4l-7.75,4a10.64,10.64,0,0,0-.88-1.85A7.7,7.7,0,0,0,295,213a6.73,6.73,0,0,0-1.82-1.19,4.62,4.62,0,0,0-2.14-.4,6.17,6.17,0,0,0-4.35,2,6.58,6.58,0,0,0-1.63,4.57v7.24a6.7,6.7,0,0,0,1.66,4.62A6.21,6.21,0,0,0,291.1,231.88Zm41.41-20.52H317.13v6h11.32v8.39H317.13v6h15.38v8.39H308.15V203h24.36Z"/></g></svg>