<svg id="Ebene_1" data-name="Ebene 1" xmlns="http://www.w3.org/2000/svg" viewBox="0 0 619.93 633.96"><defs><style>.cls-1{fill:#fff;}.cls-2{fill:#b92736;}.cls-3{fill:#2c2517;}.cls-4{fill:#fdfeff;}.cls-5,.cls-7{fill:#1c1d1c;}.cls-6{fill:#b83e3c;}.cls-7,.cls-8{font-size:35px;font-family:OpenSans, Open Sans;letter-spacing:0.01em;}.cls-8{fill:#1d1d1b;}</style></defs><title>Koop_Logo_schmal</title><rect class="cls-1" x="26.11" y="523.67" width="587.5" height="110.29"/><path class="cls-2" d="M128.4,563.84a42,42,0,0,0-4.94-7.25.8.8,0,0,0-1.06,0v0h0l-11.75,11.24L102,576.16l26.14-11.49A.78.78,0,0,0,128.4,563.84Z" transform="translate(-5.29 -4.91)"/><path class="cls-2" d="M131.55,571.4a.78.78,0,0,0-1-.36h0l-1.29.47-23.49,8.62,15.77-.39,10.9-.27a.78.78,0,0,0,.65-.73A41.5,41.5,0,0,0,131.55,571.4Z" transform="translate(-5.29 -4.91)"/><path class="cls-2" d="M53.9,566.48l30.72,13,.26-.41L61.4,555.47a.79.79,0,0,0-1-.06,41.67,41.67,0,0,0-6.87,10.22A.78.78,0,0,0,53.9,566.48Z" transform="translate(-5.29 -4.91)"/><path class="cls-2" d="M132.47,587.61l-24.75-1,23.33,8.59a.77.77,0,0,0,.82-.42,42.06,42.06,0,0,0,1.25-6.57A.77.77,0,0,0,132.47,587.61Z" transform="translate(-5.29 -4.91)"/><path class="cls-2" d="M49.49,581.87a.78.78,0,0,0,.72.78l33.34.1a7.19,7.19,0,0,1,.17-1L53,568.8h0a.78.78,0,0,0-1,.34,41.89,41.89,0,0,0-2.55,12.72h0Z" transform="translate(-5.29 -4.91)"/><path class="cls-2" d="M104,543.64a42.17,42.17,0,0,0-9.8-1.84.78.78,0,0,0-.7.73l-.33,29.84,11.24-27.86A.78.78,0,0,0,104,543.64Z" transform="translate(-5.29 -4.91)"/><path class="cls-2" d="M118,552.33a.78.78,0,0,0,.07-1,41,41,0,0,0-7.9-5.15.78.78,0,0,0-.84.29l-5.48,12.7-6.1,14.11,20.27-20.89,0,0Z" transform="translate(-5.29 -4.91)"/><path class="cls-2" d="M63.59,553.33v0h0l22.74,22.91L73.8,546.36a.78.78,0,0,0-1-.32,41.82,41.82,0,0,0-9.11,6.1,1.14,1.14,0,0,1-.17.15A.78.78,0,0,0,63.59,553.33Z" transform="translate(-5.29 -4.91)"/><path class="cls-2" d="M77.33,545v0h0L88.88,572.7l.06-30.14a.78.78,0,0,0-.71-.73A42.44,42.44,0,0,0,77.72,544,.81.81,0,0,0,77.33,545Z" transform="translate(-5.29 -4.91)"/><path class="cls-2" d="M127.12,604.29,97.28,589.61h0a1.53,1.53,0,0,0-1.47,0l0,0h0a8,8,0,0,1-1.62.92,7.69,7.69,0,0,1-10-4.18,7.59,7.59,0,0,1-.44-1.43.91.91,0,0,0-.93-.75h-.12l-32.42,0a.79.79,0,0,0-.73.7,42,42,0,0,0,78,20.36A.78.78,0,0,0,127.12,604.29Z" transform="translate(-5.29 -4.91)"/><path class="cls-3" d="M527.35,606.57c0-2.46-2-3.18-3.81-3.93-.89-.36-1.39-.71-1.39-1.4s.43-1.31,1.49-1.31a8.2,8.2,0,0,1,2.59.46l.49-2.1a9.8,9.8,0,0,0-3.1-.48c-2.37,0-4.36,1.17-4.36,3.6,0,2,1.37,2.93,3.22,3.6,1.23.48,1.95.89,1.95,1.81s-.62,1.45-1.93,1.45a9.17,9.17,0,0,1-2.89-.48l-.33,2.27a13.17,13.17,0,0,0,3.18.39C524.92,610.45,527.35,609.39,527.35,606.57Zm-13.16-1.48V598h-2.73v7.18c0,1.89-.77,3.07-2.55,3.07s-2.58-1-2.58-3.07V598h-2.74v7.3c0,3.43,2,5.07,5.21,5.07S514.19,608.56,514.19,605.09Zm-18.88.27h-3.43c.48-1.46,1.16-3.41,1.71-4.84C494.13,602,494.83,603.9,495.31,605.36Zm4.39,4.87c-1.33-4.12-2.81-8.13-4.51-12.19h-3.08c-1.64,4-3.14,8.07-4.45,12.19h2.68c.3-1,.58-1.94.86-2.79H496c.27.89.54,1.81.83,2.79Zm-16.51,0V598h-2.72v4.79h-5.2V598h-2.75v12.19h2.75V605h5.2v5.22Zm-24,0a119.28,119.28,0,0,0-.94-12.19h-3.91l-3.08,8.69L448.32,598h-3.85a101.84,101.84,0,0,0-1,12.19H446c0-3.21.33-6.51.6-9.51l3.22,9.51h2.72l3.25-9.49c.31,3,.58,6.24.62,9.49Zm-20.9,0v-2.1h-4.69V605h3.95v-2h-3.95v-2.83h4.63V598h-7.36v12.19Zm-13.51,0V598h-2.43v8.54l-5.2-8.54h-3.32v12.19h2.43v-8.61l5.24,8.61Zm-17,0V598H405v12.19Zm-8.09,0v-2.1H395V605h4v-2h-4v-2.83h4.64V598h-7.36v12.19Zm-20.9,0V598h-2.43v8.54l-5.2-8.54h-3.32v12.19h2.43v-8.61l5.24,8.61Zm-17,0V598H359v12.19Zm-14.8-10V598h-9.48v2.17h3.35v10h2.76v-10Zm-11.21,10v-2.15h-4.36V598H328.6v12.19Zm-12.45,0v-2.1h-4.7V605h3.95v-2h-3.95v-2.83h4.64V598h-7.36v12.19ZM311.05,598h-2.76a69.61,69.61,0,0,1-2.21,9l-2.2-9H300.6l-2.19,9.11a91.11,91.11,0,0,1-2.26-9.11h-3a112.61,112.61,0,0,0,3.39,12.19h3.56l2-8.36,2.05,8.36h3.57A99,99,0,0,0,311.05,598Zm-29.94,12.19v-2.1h-4.69V605h3.95v-2h-3.95v-2.83h4.63V598h-7.36v12.19Zm-12.34,0V608H263l5.65-7.9V598H260v2.2h5.45l-5.66,8v2Zm-14,0V598h-2.43v8.54L247.19,598h-3.33v12.19h2.43v-8.61l5.24,8.61ZM235,605.36h-3.43c.48-1.46,1.16-3.41,1.71-4.84C233.82,602,234.52,603.9,235,605.36Zm4.39,4.87c-1.33-4.12-2.81-8.13-4.51-12.19H231.8c-1.64,4-3.14,8.07-4.45,12.19H230c.3-1,.58-1.94.86-2.79h4.8c.27.89.54,1.81.83,2.79Zm-15.78-11.37a8.83,8.83,0,0,0-4.25-1.05c-3.93,0-6.67,2.54-6.67,6.45s2.37,6.17,6.39,6.17a14.25,14.25,0,0,0,4.46-.7v-6.24h-2.72v4.59a6.38,6.38,0,0,1-1.56.23c-2.22,0-3.76-1.52-3.76-4.2,0-2.45,1.45-4.15,3.78-4.15a6.59,6.59,0,0,1,3.43.89Zm-23.2,11.37v-2.1h-4.7V605h3.95v-2h-3.95v-2.83h4.63V598H193v12.19Zm-13.51,0V598h-2.75v12.19Zm-10.65-6.12c0,2.67-1.29,4-3.66,4h-1.68v-7.92h1.72C175.21,600.16,176.25,601.89,176.25,604.11Zm2.85-.15c0-3.82-2.39-5.92-6-5.92h-4.89v12.19h4.51C176.73,610.23,179.1,607.85,179.1,604Z" transform="translate(-5.29 -4.91)"/><path class="cls-3" d="M600.83,585.13v-13.5c0-4.34-1.73-7.64-5.71-7.64a5.92,5.92,0,0,0-5.06,2.9V555h-4.5v30.13h4.5V570.74c1.45-2.12,2.45-3,3.78-3,1.89,0,2.49,1.77,2.49,4.78v12.62ZM575.47,575c0,4.18-1.08,7-3.61,7s-3.74-2.53-3.74-7.36c0-4.13,1.09-7,3.62-7S575.47,570.22,575.47,575Zm4.71-.4c0-6.67-2.78-10.65-8.24-10.65s-8.48,4.14-8.48,11.13c0,6.64,2.77,10.53,8.2,10.53S580.18,581.51,580.18,574.64Zm-20.42,10.53v-3.34h-1c-1,0-1.28-.72-1.28-2.09V555H553v25.87c0,3.54,1.68,4.62,4,4.62A11.25,11.25,0,0,0,559.76,585.17Zm-12-5.7c0-2.78-1.16-4.47-4.62-6.55-2-1.29-2.49-2.13-2.49-3.38a2.13,2.13,0,0,1,2.37-2.09,9.19,9.19,0,0,1,3.26.72l.52-3.53a13.87,13.87,0,0,0-4.18-.65c-4.14,0-6.51,2.46-6.51,6,0,2.82,1.29,4.42,4.22,6.27,2.21,1.41,2.81,2.29,2.81,3.57s-.92,2.3-2.61,2.3a9.87,9.87,0,0,1-3.85-.93l-.61,3.7a15.31,15.31,0,0,0,4.87.76C545.34,585.65,547.79,583.12,547.79,579.47Zm-15.3-15.15a5.83,5.83,0,0,0-1.82-.33c-1.72,0-2.68,1.13-4.29,3.94l-.4-3.41h-3.46v20.61H527V571.71c1.65-2.57,2.41-3.54,3.34-3.54a4.94,4.94,0,0,1,1.6.36Zm-20,8.31h-6.47c.12-2.73,1-5.38,3.49-5.38C511.59,567.25,512.6,569.3,512.52,572.63Zm4.42.85c0-6-2-9.49-7.23-9.49-5.43,0-8.28,4.18-8.28,11,0,7.16,2.73,10.69,8.31,10.69a20.54,20.54,0,0,0,6.68-1.12l-.49-3.46a17.28,17.28,0,0,1-5.54,1c-3.22,0-4.3-2.33-4.3-6.3H516.9C516.9,575,516.94,574,516.94,573.48Zm-19.48,11.61v-3.22h-1.37c-1.69,0-2.25-.52-2.25-3.45V568h3.62v-3.49h-3.62v-5.95h-3.46l-1,5.95h-2.29V568h2.29v12c0,4.34,1.89,5.55,4.62,5.55A12.7,12.7,0,0,0,497.46,585.09Zm-15.11,0V564.52h-4.5V578.9c-1.49,2.13-2.49,3-3.82,3-1.89,0-2.45-1.76-2.45-4.78V564.52h-4.5V578c0,4.33,1.73,7.63,5.82,7.63,2.42,0,4.06-1.12,5.63-3.26l.36,2.74Zm-8.68-26.84a2.38,2.38,0,1,0-2.38,2.45A2.29,2.29,0,0,0,473.67,558.29Zm6.79,0a2.27,2.27,0,0,0-2.37-2.41,2.43,2.43,0,1,0,2.37,2.41Zm-19.53.52a13.79,13.79,0,0,0-7.35-2.17c-7.28,0-11.53,5.63-11.53,14.79s3.85,14.18,11.24,14.18a19.17,19.17,0,0,0,7.52-1.49v-13.9h-4.7v10.93a9.08,9.08,0,0,1-2.69.48c-4.14,0-6.39-3.57-6.39-10.52,0-6.31,2-10.53,6.63-10.53a10.69,10.69,0,0,1,5.82,1.89ZM435.5,585.13l-5.43-13.82,5.07-7h-7.08l-3.85,7.07V555h-6v30.13h6V577.9l1.16-1.69,3.26,8.92Zm-28-12.82h-4.58c.09-2.41.69-4.34,2.46-4.34C406.85,568,407.53,569.54,407.49,572.31Zm5.87,1.33c0-6.51-2.17-9.93-7.79-9.93s-8.8,4.22-8.8,11.29c0,7.32,2.89,10.73,8.83,10.73a22.91,22.91,0,0,0,7.16-1.16l-.52-4.54a19.5,19.5,0,0,1-5.79.92c-2.45,0-3.49-1.69-3.49-4.62h10.36C413.32,575.36,413.36,574.2,413.36,573.64Zm-21,11.49V571.47c0-4.74-2.09-7.76-5.87-7.76a5.47,5.47,0,0,0-4.7,2.45V555h-6.06v30.13h6.06V571c1-1.6,1.85-2.24,2.73-2.24,1.33,0,1.73,1.2,1.73,4v12.42Zm-21.25,0v-4.34h-1.25c-1.61,0-1.89-.72-1.89-3.46V569h3.14v-4.7H368v-6H363.3l-1.41,6h-2.05V569h2.05v10.65c0,4.57,2,6,4.91,6A15.64,15.64,0,0,0,371.1,585.13Zm-20.81-10.21c0,3.62-.65,6-2.58,6-1.76,0-2.65-1.85-2.65-6.35,0-3.53.6-6,2.49-6S350.29,570.51,350.29,574.92Zm6.26-.36c0-6.79-2.77-10.81-8.72-10.81s-9,4.18-9,11.37c0,6.67,2.78,10.61,8.72,10.61S356.55,581.51,356.55,574.56Zm-22.34,10.57V564.32H326V569h2.14v16.12Zm.45-26.72a3.48,3.48,0,1,0-3.5,3.54A3.39,3.39,0,0,0,334.66,558.41Zm-11.34,26.72v-4.38h-.84c-.88,0-1.21-.6-1.21-1.93V555h-6v25.43c0,4.05,1.89,5.18,4.5,5.18A11,11,0,0,0,323.32,585.13Zm-19-10.49c0,3.94-1.09,6-3,6a3.33,3.33,0,0,1-1.77-.44V571c1.17-1.72,1.77-2.24,2.69-2.24C303.84,568.74,304.36,571,304.36,574.64Zm6.31-.8c0-5.63-2.17-10.13-6.51-10.13a5.38,5.38,0,0,0-4.58,2.25V555h-6.07v29.12a21.77,21.77,0,0,0,7.44,1.49C307.7,585.61,310.67,580.87,310.67,573.84Zm-22.54,11.29V564.32h-8.2V569h2.13v16.12Zm.44-26.72a3.48,3.48,0,1,0-3.49,3.54A3.38,3.38,0,0,0,288.57,558.41Zm-18.48,18.28c0,2.33-1,3.62-2.94,3.62h-2V573h1.73C269.24,573,270.09,574.44,270.09,576.69Zm-.93-11.61c0,1.89-.72,3.29-2.45,3.29h-1.6v-6.59h1.44C268.24,561.79,269.16,563,269.16,565.08Zm7.52,11.37c0-3.65-1.85-6-4.5-6.59,2-.8,3.29-2.81,3.29-5.71,0-5-3.41-7.06-8.72-7.06h-7.87v28h7.71C271.78,585.13,276.68,582.88,276.68,576.45Zm-26,8.64v-3.22h-1.36c-1.69,0-2.26-.52-2.26-3.45V568h3.62v-3.49H247.1v-5.95h-3.45l-1.05,5.95h-2.28V568h2.28v12c0,4.34,1.89,5.55,4.63,5.55A12.57,12.57,0,0,0,250.72,585.09Zm-19.64-6.19c-1.69,2.41-2.54,3-3.66,3-2.41,0-3-3.13-3-6.79,0-4.69,1.32-7.35,3.89-7.35a5.88,5.88,0,0,1,2.74.61Zm4.5,6.23V555h-4.5v9.52a13.22,13.22,0,0,0-2.9-.28c-5.86,0-8.44,5.1-8.44,11.32,0,5.59,1.89,10.09,6.59,10.09,2.26,0,3.82-1,5.47-3.3l.32,2.78Zm-25.64-5.31c-1,1.37-2.05,2.45-3.41,2.45-1.61,0-2.41-1.2-2.41-3,0-2.21,1.2-3.45,3.53-3.45h2.29v4Zm4.42,5.31V570.86c0-4.17-2.09-6.87-7.15-6.87A15.54,15.54,0,0,0,201,565.4l.77,3.26a11.74,11.74,0,0,1,4.9-1.21c2.57,0,3.29,1.25,3.29,3.9v1.53h-2c-5,0-8.23,2-8.23,6.67,0,3.93,2.37,6.1,5.7,6.1a6.46,6.46,0,0,0,5.23-2.73l.28,2.21Zm-18.88,0v-3.22h-1.37c-1.68,0-2.25-.52-2.25-3.45V568h3.62v-3.49h-3.62v-5.95h-3.45l-1,5.95h-2.29V568h2.29v12c0,4.34,1.89,5.55,4.62,5.55A12.59,12.59,0,0,0,195.48,585.09Zm-14-8c0-3-1.16-5.22-5.1-7.87-2.93-2-4.22-3.26-4.22-5.47a3.22,3.22,0,0,1,3.38-3.41,9.63,9.63,0,0,1,3.89.84l.69-3.77a13.56,13.56,0,0,0-4.78-.85c-4.62,0-8.12,2.9-8.12,7.84,0,3.25,1.2,5.3,5,7.83,3.18,2.13,4.34,3.3,4.34,5.63s-1.28,3.85-4.14,3.85a13.11,13.11,0,0,1-4.66-.92l-.6,3.94a17.61,17.61,0,0,0,5.46.92C177.89,585.65,181.5,582.68,181.5,577.09Z" transform="translate(-5.29 -4.91)"/><path class="cls-4" d="M544,175.21H487.58l8.25-6.16,6.92-5.16,1.51-1.12,7.21-5.31-4.05-8s-.37-.74-.71-1.45a251.88,251.88,0,0,0-20.28-35c-.56-.8-1.11-1.6-1.11-1.61l-4.9-7.09-7.93,3.36-2,.84-11.42,4.92-11.17,4.81-12.27,5.28A201.62,201.62,0,0,0,412.11,100l2.36-5.49L427,65.32c.56-1.24.93-2.1,1-2.2L431.41,55,424,50.14c-.05,0-.7-.46-1.68-1.13a244.14,244.14,0,0,0-34.15-19.77c-1.12-.53-1.94-1-1.95-1l-8.16-4.23-5.33,7.49s-.51.72-1.2,1.6c-.24.3-.42.57-.54.75l-5.45,7.3q-8.31,11.12-16.61,22.22c-2.92-1-5.85-2-8.74-2.9a196.81,196.81,0,0,0-23.44-5.7l-.15-1.22q-1.12-9.5-2.26-19l-.49-4.1c-.16-1.36-.33-2.73-.49-4.1-.39-3.16-.78-6.43-1.14-9.62L312,15.1l-1-8.56-8.58-.72-1.16-.11c-2.18-.26-4.28-.33-6.13-.39-1.13,0-2.19-.08-3.19-.15l-.46,0H290c-1.72,0-3.46-.06-5.3-.12s-3.91-.12-6-.12h-.43c-3,0-6.08,0-9.49.24-1.3.09-2.59.15-3.95.21-1.79.08-3.64.17-5.56.33l-1.42.14-8.37.84L248.41,15l-.19,1.52c-.47,4.24-1,8.57-1.49,12.76q-.42,3.46-.83,6.92l-.22,1.86c-.65,5.48-1.31,11.1-2,16.71a211.29,211.29,0,0,0-32.22,8.64l-10-13.35L188.78,33l-1.22-1.64-5.25-7.06-7.9,3.88-1.7.82a240.91,240.91,0,0,0-23.29,12.66c-2.31,1.44-4.56,2.92-6.74,4.36-1.65,1.1-3.22,2.13-4.81,3.14l-1.38.89L129,54.87l3.48,8.18,1.17,2.77,2.56,6L148.32,100a208.48,208.48,0,0,0-23.54,23.54l-9.37-4L89.94,108.54l0,0h0l-1.95-.82L80,104.34l-4.88,7.09-1.23,1.78a248,248,0,0,0-20,34.53l-.9,1.81-3.75,7.67,6.7,5.28,1.69,1.34.12.09.11.09,7,5.23,8,6H5.29V335.57H72.92l-4.72,3.52Q63,343,57.81,346.85L56.26,348l-7.19,5.23,3.92,8s.39.79.9,1.86a250.24,250.24,0,0,0,18.33,32.11l.84,1.24c.34.5.69,1,1,1.51l1,1.41,5,7.45,8.16-3.7,1.43-.65h0c.32-.14.62-.29.91-.43l6.28-2.7,28-12a202.06,202.06,0,0,0,23.54,23.54l-14.88,34.62c-.51,1.17-1,2.34-1,2.34l-3.15,7.74,6.8,4.85s1,.75,2.12,1.49a248.39,248.39,0,0,0,34.14,19.78c.19.08.37.17.56.27l.71.35.78.37,7.73,3.8,5.28-6.81c.16-.21.57-.73.89-1.19l.12-.18,0-.06.12-.15.39-.51,7.08-9.48,15.45-20.68A198.59,198.59,0,0,0,243.76,456l.37,3.11c1.35,11.5,2.76,23.39,4.09,35.08.06.56.15,1.42.15,1.43l1,8.93,9,.5,1.38.08c3.39.19,6.87.42,10.23.65l3.78.26.39,0h.38l13.66-.09h.33l.32,0,3.36-.24c2.9-.21,5.64-.4,8.41-.54l1.35-.06,8.91-.31L312,496s.16-1.21.24-1.91c.3-2.71.64-5.49,1-8.18.22-1.77.43-3.54.64-5.31q.82-7,1.63-14L316.7,456c1.71-.32,3.35-.65,4.9-1a196.35,196.35,0,0,0,27.33-7.66l3.24,4.34,19.37,25.93c.68.9,1.22,1.65,1.24,1.68l5.23,7.26,8-4,1.94-.94a252.18,252.18,0,0,0,34.35-19.86c1-.65,1.89-1.31,1.89-1.31l7-4.82L428,447.86s-.46-1.12-.93-2.24l-8.17-19-6.77-15.77a205.56,205.56,0,0,0,23.56-23.56l11,4.75,23.82,10.24,2,.83,7.88,3.35,4.92-7,1.15-1.65a253.47,253.47,0,0,0,20.28-35c.34-.71.76-1.55.76-1.57l3.82-7.75-6.84-5.28-1.68-1.28-6.55-4.88-8.68-6.48h67V175.21Z" transform="translate(-5.29 -4.91)"/><path id="Zahnrad" class="cls-5" d="M142.23,58.92l1.32-.85c3.84-2.44,7.58-5,11.45-7.44a230.08,230.08,0,0,1,22.27-12.1l1.8-.87s.63.83,1.24,1.66l26.26,35.15c.63.84,1.23,1.62,1.23,1.62s.94-.34,1.83-.69A198.26,198.26,0,0,1,246.81,65c1.72-.31,3.47-.5,5.21-.76l1.32-.2.14-1.31c.93-8.42,1.93-16.83,2.92-25.24.77-6.58,1.6-13.16,2.33-19.75.07-.57.17-1.34.17-1.34l1.26-.12c3.12-.27,6.23-.31,9.34-.53s6.06-.22,9.08-.22c4.21,0,8.36.3,12.6.23,2.94.22,5.9.15,8.85.5.59.07,1.5.14,1.5.14s.12,1,.18,1.59c.52,4.61,1.09,9.21,1.64,13.81q1.38,11.53,2.75,23.08c.29,2.46.61,4.92.79,7.39.05.69.19,1.83.19,1.83l1.86.26a175.14,175.14,0,0,1,28.17,6.32c4.57,1.38,9.07,3,13.52,4.72l2,.79s.58-.73,1.31-1.72Q366.76,57.25,379.59,40c.1-.13.18-.27.27-.39.86-1.1,1.49-2,1.49-2s1,.5,2.3,1.13a234.11,234.11,0,0,1,32.68,18.93c1.14.79,1.89,1.27,1.89,1.27s-.36.84-.91,2q-8.56,20-17.17,40c-.44,1-.88,2-.88,2s.87.72,1.73,1.41a191.28,191.28,0,0,1,30.13,30.14c.05.07.11.12.16.19l1.25,1.54,1.82-.77L452.12,128l22.59-9.73,1.9-.81,1.13,1.63a239.62,239.62,0,0,1,19.43,33.53c.4.83.82,1.67.82,1.67l-1.57,1.17q-12.48,9.33-25,18.66L470,175.16h-1.84q-35,0-70.07,0H396s-.79-1.13-1.22-1.71a140.46,140.46,0,0,0-65.83-50.3,140.68,140.68,0,0,0-163,50,4.41,4.41,0,0,1-4.12,2.06q-34.54-.09-69.11,0l-2.28,0-1.87-1.34c-8.1-6.12-16.25-12.16-24.38-18.23l-1.7-1.34.92-1.88a236.82,236.82,0,0,1,19.18-33.12l1.23-1.78,2,.82,40.15,17.25c1,.43,2,.83,2,.83s.71-.84,1.41-1.71a196,196,0,0,1,30.32-30.29l1.53-1.22-.78-1.84q-8.48-19.78-17-39.58ZM300,494.59l1.51-.06s.14-1,.21-1.65c.5-4.52,1.08-9,1.61-13.56q1.77-15.12,3.52-30.24c.15-1.22.3-2.29.3-2.29s1.26-.2,2.23-.33c3.41-.44,6.76-1.11,10.12-1.79a186.58,186.58,0,0,0,31.55-9.39l1.58-.62a11.18,11.18,0,0,1,1,1.31,6.13,6.13,0,0,0,.57.77Q367.09,454,380,471.32c.75,1,1.35,1.83,1.35,1.83s.9-.45,2.07-1a241.79,241.79,0,0,0,32.9-19c.94-.64,1.85-1.28,1.85-1.28s-.41-1-.85-2l-17.28-40.23c-.41-.94-.77-1.89-.77-1.89l1.51-1.2A192.62,192.62,0,0,0,431.27,376l1.26-1.55,2,.85,40.16,17.26,1.92.82s.56-.79,1.13-1.62a241.15,241.15,0,0,0,19.44-33.52c.36-.77.81-1.67.81-1.67l-1.55-1.18c-8-6-16-11.93-24-17.95-.61-.46-1.76-1.29-1.76-1.29s-1.42,0-2.18,0q-35.28.06-70.55,0c-.78,0-2.27.05-2.27.05s-.9,1.14-1.43,1.89A140.95,140.95,0,0,1,290.87,396a141.33,141.33,0,0,1-72-13.72A140.27,140.27,0,0,1,166.16,338c-.51-.71-1.41-1.86-1.41-1.86s-1.49,0-2.32,0q-35.28.08-70.55,0l-2.11,0-1.62,1.21c-8,6-16,11.95-24,17.94l-1.68,1.25s.41.82,1,2A238.8,238.8,0,0,0,81,389.27l1.88,2.78.94,1.41,1.55-.7.74-.36,40.12-17.24,1.74-.74.85,1.07a189.27,189.27,0,0,0,31.3,31.32l1.14.9s-.35.81-.58,1.27-.4.87-.59,1.31l-16.92,39.34c-.46,1.07-.9,2.15-.9,2.15s1,.7,2,1.39a236.8,236.8,0,0,0,32.69,18.93l1.29.63.86.42s.37-.48.58-.78.57-.77.85-1.15l26-34.77c.68-.92,1.34-1.79,1.34-1.79l2.12.83.22.11a186.36,186.36,0,0,0,41,10.87c1,.14,2.06.31,2.06.31s.16,1.05.28,2.17c.09.79.24,1.58.34,2.37,1.63,13.89,3.28,27.77,4.86,41.66.07.6.17,1.5.17,1.5l1.39.08c4.7.27,9.41.6,14.11.92l13.66-.1C292,495.11,296,494.79,300,494.59ZM176.81,175.12c7.36,0,14.71,0,22.07,0h1.33s1-.93,1.37-1.26a98.48,98.48,0,0,1,9.79-8.46,112.36,112.36,0,0,1,60.85-23,112.83,112.83,0,0,1,86.67,31.49l1.33,1.25h1.6c7-.06,13.93,0,21,0h1.69c-52.06-68.24-156.67-68.13-208.5,0A5.44,5.44,0,0,0,176.81,175.12ZM290,386.82a129.1,129.1,0,0,0,64.64-22.75,133.45,133.45,0,0,0,29.61-27.91H383c-7.35,0-14.71,0-22.07,0l-1.28,0s-.68.6-1,.94c-1.74,1.65-3.5,3.28-5.34,4.82a112.45,112.45,0,0,1-61.54,26.2,109.94,109.94,0,0,1-25.12-.28,113.43,113.43,0,0,1-28.17-7.11,112,112,0,0,1-36.25-23.22l-1.43-1.35s-1.25-.06-1.94,0c-2.8.09-5.6,0-8.4,0h-14C197.57,364.51,238.58,390.56,290,386.82Z" transform="translate(-5.29 -4.91)"/><path id="Box" class="cls-6" d="M15.86,185.79V325H544V185.79Zm324,66.25H32.11V201.63H339.89Z" transform="translate(-5.29 -4.91)"/><path id="T" class="cls-4" d="M485.22,250.37v33.11a13.81,13.81,0,0,1,0,1.44c-.1,1,.26,1.53,1.34,1.83a10.31,10.31,0,0,1,4.92,3.29,11.36,11.36,0,1,1-19.56,10.36A11.12,11.12,0,0,1,478.77,287a2.28,2.28,0,0,0,1.69-2.62q0-34.08,0-68.15c0-2.17.15-2.12-2.06-2.11-4.08,0-8.16,0-12.24,0a2.06,2.06,0,0,0-2.37,1.63,10.83,10.83,0,0,1-10.16,7.48c-5.83.35-10.68-3.81-11.73-9.81a11.35,11.35,0,0,1,21.64-6.1,2.75,2.75,0,0,0,3.07,2.07q16.44-.1,32.87,0a2.42,2.42,0,0,0,2.73-1.85,11.21,11.21,0,0,1,12.64-6.83,11.37,11.37,0,0,1,0,22.34,11.5,11.5,0,0,1-12.68-6.83c-.86-2.07-.86-2.07-2.95-2.07q-6,0-12,0c-1.94,0-2,0-2,1.94Q485.2,233.21,485.22,250.37Zm-23-38.48a9,9,0,1,0-9.1,8.94A9,9,0,0,0,462.19,211.89Zm59.52,0a9,9,0,1,0-9.07,9A9.05,9.05,0,0,0,521.71,211.86Zm-47.85,85.7a9,9,0,1,0,9-9.05A9.05,9.05,0,0,0,473.86,297.56Z" transform="translate(-5.29 -4.91)"/><path id="G" class="cls-4" d="M426.66,269.2a2.72,2.72,0,0,1-1.08,1.61c-3.68,3.68-7.4,7.31-11,11a4.2,4.2,0,0,1-3.36,1.36c-4.48-.07-9,0-13.44,0-2.53,0-2.76-.25-2.78-2.75,0-3,0-5.91,0-8.87,0-2,.29-2.29,2.16-2.34h7v5.87h2.15V269.2h4.76v5.87h2.15V269.2Zm-29.23,32.93a.91.91,0,0,1,.16-1.43c10.59-10.55,19.5-19.4,30.1-29.94.34-.34.68-.68,1-1a1.51,1.51,0,0,1,2.33,0c2.05,2,4.11,4,6.09,6.13,1,1,.9,1.49-.23,2.64l-10.34,10.41L423,285.34l-1.1,1.11,3.6,3.57-3,2.94-3.57-3.54-1.11,1.1,3.56,3.56-3,2.93-3.53-3.53-1.1,1.11,3.57,3.53-3,2.9-3.54-3.51-1.1,1.11,3.56,3.53L410.4,305l-3.54-3.5-1.1,1.1,3.55,3.55-3.83,4.08Zm30.8-25.41a1.84,1.84,0,0,0,3.67,0,1.87,1.87,0,0,0-1.85-1.77A1.84,1.84,0,0,0,428.23,276.72ZM403,312.41c-2,2-4,4.11-6.12,6.09-1,1-1.49.9-2.64-.22L384,307.8l3.44-3.45-1.1-1.11-3.44,3.44-2.94-3,3.41-3.41-1.11-1.1-3.39,3.39-2.93-3,3.37-3.37-1.11-1.1-3.35,3.35-2.9-3,3.32-3.32-1.1-1.1-3.31,3.31L368,291.51l3.29-3.28-1.1-1.11-3.28,3.28-.09-.1-5.91-6.21c1.41,0,2.91,0,4.4,0,2.14,0,3.25-1.1,3.31-3.21.05-1.57,0-3.14,0-4.8,1,.12,1.3.75,1.72,1.17L402,309.06c.34.34.68.67,1,1A1.5,1.5,0,0,1,403,312.41Zm-7-2.82a1.84,1.84,0,1,0,1.78,1.83A1.84,1.84,0,0,0,396.05,309.59Zm-28.81-51.7v21.58c0,2.77-.21,3-3,3-2.23,0-4.47,0-6.71-.05-1.75,0-2.05-.28-2.07-1.88V267.6h6v-2.5h-6v-5.79h6v-2.5h-6v-5.2h6V249.1h-6V235.18c0-1.52.52-2,2.08-2,2.47,0,4.95,0,7.43,0,2.1,0,2.29.2,2.29,2.37C367.25,243,367.24,250.45,367.24,257.89Zm-3.88,19.32a2,2,0,0,0-2-2.16,2,2,0,0,0-1.94,2,1.81,1.81,0,0,0,1.87,2A2,2,0,0,0,363.36,277.21Zm.18-38.46a2.09,2.09,0,0,0-1.86-2.08,2.06,2.06,0,0,0-.35,4.1A2.19,2.19,0,0,0,363.54,238.75Zm39.21-32.9-1,1L370.1,238.68c-.42.42-.73,1-1.71,1.17,0-1.66,0-3.23,0-4.81-.06-2.1-1.17-3.16-3.3-3.2-1.5,0-3,0-4.41,0,2-2.08,3.89-4.08,5.91-6.21l.09-.1,3.28,3.28,1.1-1.11-3.28-3.28,2.82-2.88,3.31,3.31,1.11-1.1-3.33-3.33,2.9-2.95,3.35,3.35,1.11-1.1-3.37-3.37,2.93-3,3.4,3.4,1.1-1.1-3.41-3.41,2.95-3,3.43,3.43,1.11-1.1-3.45-3.45L394,197.65c1.15-1.12,1.63-1.19,2.64-.23,2.09,2,4.11,4,6.13,6.09A1.52,1.52,0,0,1,402.75,205.85Zm-5.18-1.34a1.87,1.87,0,0,0-1.77-1.85,1.84,1.84,0,1,0,1.77,1.85Z" transform="translate(-5.29 -4.91)"/><path class="cls-6" d="M69.51,207.88V245H60V232l-4.86,13H49.37l-5-13.38V245H34.89V207.88H44l8.22,21.57,8.28-21.57Z" transform="translate(-5.29 -4.91)"/><path class="cls-6" d="M97.14,245l-3.58-9.78H85.81L82.28,245H72.08l11.65-37.14h12L107.34,245Z" transform="translate(-5.29 -4.91)"/><path class="cls-6" d="M136.31,207.88l-14.8,18.62L136.26,245H125.15l-6.42-8v8h-9V207.88h9v8.63l6.47-8.63Z" transform="translate(-5.29 -4.91)"/><path class="cls-6" d="M163.74,216.26H148.35v6h11.33v8.38H148.35v6h15.39V245H139.38V207.88h24.36Z" transform="translate(-5.29 -4.91)"/><path class="cls-6" d="M181.75,245l-5.35-12.08h-.1V245h-9V207.88h12.13a14.46,14.46,0,0,1,5.69,1,9.29,9.29,0,0,1,5.58,6.39,17.5,17.5,0,0,1,.59,4.57,10.6,10.6,0,0,1-.88,4.44,12.25,12.25,0,0,1-2.09,3.27,9.4,9.4,0,0,1-2.43,2,4.42,4.42,0,0,1-1.92.67L192.06,245Z" transform="translate(-5.29 -4.91)"/><path class="cls-6" d="M220.86,236.39a7,7,0,0,1-1.09,3.37A9.37,9.37,0,0,1,217,242.5a13.8,13.8,0,0,1-4.19,1.85,21,21,0,0,1-5.56.67,16.44,16.44,0,0,1-4.51-.6,13.92,13.92,0,0,1-3.82-1.69,11.43,11.43,0,0,1-2.91-2.67,10.24,10.24,0,0,1-1.74-3.57l8.55-3.35c-.07,0,0,.27.24.7a7.16,7.16,0,0,0,1,1.37,6.76,6.76,0,0,0,1.57,1.3,3,3,0,0,0,2,.43,3.79,3.79,0,0,0,1.79-.75,2.28,2.28,0,0,0,.83-2.05,2.51,2.51,0,0,0-.73-1.57,9.78,9.78,0,0,0-1.89-1.53q-2.73-1.69-5-3a28,28,0,0,1-4.06-2.67,11,11,0,0,1-2.73-3.14,9,9,0,0,1-1-4.4,8.43,8.43,0,0,1,1.06-4.29,9.89,9.89,0,0,1,2.84-3.1,13,13,0,0,1,4.06-1.89,18.3,18.3,0,0,1,4.75-.7,15.56,15.56,0,0,1,5.16.77,13.08,13.08,0,0,1,3.74,2,9.32,9.32,0,0,1,2.37,2.72,9.82,9.82,0,0,1,1.13,3l-7.86,2.9a6.94,6.94,0,0,0-.48-1.22,4.58,4.58,0,0,0-.88-1.25,5,5,0,0,0-1.34-1,3.78,3.78,0,0,0-1.79-.4,3.28,3.28,0,0,0-2,.62,2.16,2.16,0,0,0-.88,1.87,2.19,2.19,0,0,0,.83,1.68,30.12,30.12,0,0,0,2.59,1.92c1.64.86,3.22,1.73,4.73,2.59a21.58,21.58,0,0,1,4,3,13.73,13.73,0,0,1,2.84,3.72,10.63,10.63,0,0,1,1.06,4.92Z" transform="translate(-5.29 -4.91)"/><path class="cls-6" d="M235.71,207.88a12.15,12.15,0,0,1,4.65.85,9.8,9.8,0,0,1,3.55,2.42,10.83,10.83,0,0,1,2.27,3.79,14.44,14.44,0,0,1,.8,5,14,14,0,0,1-.8,4.89,11.15,11.15,0,0,1-2.27,3.8,10,10,0,0,1-3.55,2.47,12,12,0,0,1-4.65.87h-3V245h-9.14V207.88h12.13Z" transform="translate(-5.29 -4.91)"/><path class="cls-6" d="M270.63,245l-3.58-9.78H259.3L255.78,245H245.57l11.65-37.14h12L280.83,245Z" transform="translate(-5.29 -4.91)"/><path class="cls-6" d="M296.39,236.79a5.28,5.28,0,0,0,3.82-1.1,8.27,8.27,0,0,0,2.32-3l7.75,4.05c-.32.6-.78,1.36-1.36,2.29a12,12,0,0,1-2.49,2.75,14.61,14.61,0,0,1-4.08,2.32,16.86,16.86,0,0,1-6.12,1h-.06a17.27,17.27,0,0,1-6.81-1.19,12.29,12.29,0,0,1-4.48-3.22,12.68,12.68,0,0,1-2.54-4.7,23.19,23.19,0,0,1-1-5.57v-7.68a17.26,17.26,0,0,1,1-5.42,14.45,14.45,0,0,1,2.78-4.77,13.61,13.61,0,0,1,4.62-3.37,15.4,15.4,0,0,1,6.47-1.27h0a16.47,16.47,0,0,1,5.61.85,13.73,13.73,0,0,1,4,2.19,11.87,11.87,0,0,1,2.73,3.05,17.48,17.48,0,0,1,1.63,3.39l-7.75,4a10.64,10.64,0,0,0-.88-1.85,7.7,7.7,0,0,0-1.36-1.7,6.54,6.54,0,0,0-1.82-1.2,4.75,4.75,0,0,0-2.14-.4,6.22,6.22,0,0,0-4.35,2,6.58,6.58,0,0,0-1.63,4.57v7.24a6.66,6.66,0,0,0,1.66,4.61A6.22,6.22,0,0,0,296.39,236.79Z" transform="translate(-5.29 -4.91)"/><path class="cls-6" d="M337.8,216.26H322.42v6h11.32v8.38H322.42v6H337.8V245H313.44V207.88H337.8Z" transform="translate(-5.29 -4.91)"/><text class="cls-7" transform="translate(292.93 525.84)">in Kooperation mit</text><path class="cls-4" d="M301.23,539.25a8.5,8.5,0,0,1-8.5-8.5V512a8.51,8.51,0,0,1,.21-1.9,11.42,11.42,0,0,1-.45-3.18,10.3,10.3,0,0,1,3.13-7.59,10.2,10.2,0,0,1,17.23,7.59,11.13,11.13,0,0,1-.47,3.24,8.64,8.64,0,0,1,.2,1.84v18.73a8.5,8.5,0,0,1-8.51,8.5Z" transform="translate(-5.29 -4.91)"/><path class="cls-4" d="M323.39,539.25a8.47,8.47,0,0,1-5-1.61,8.42,8.42,0,0,1-5,1.61h-2.83a8.5,8.5,0,0,1-8.51-8.5V512a8.5,8.5,0,0,1,8.51-8.5h2.3a8.11,8.11,0,0,1,2.05.25,16.74,16.74,0,0,1,4.5-.6c5.61,0,9.06,2.17,11,4s4.35,5.4,4.35,11.37v12.22a8.5,8.5,0,0,1-8.51,8.5Z" transform="translate(-5.29 -4.91)"/><path class="cls-4" d="M357.19,539.25a8.49,8.49,0,0,1-5.86-2.34,8.49,8.49,0,0,1-5.87,2.34h-2.9a8.5,8.5,0,0,1-8.51-8.5v-25a8.51,8.51,0,0,1,8.51-8.51h2.9a8.51,8.51,0,0,1,5.67,2.16,8.51,8.51,0,0,1,5.66-2.16h3.44a8.5,8.5,0,0,1,6.24,14.28l-5.27,5.69,6.25,8.47a8.5,8.5,0,0,1-6.84,13.55Z" transform="translate(-5.29 -4.91)"/><path class="cls-4" d="M371.59,539.6a16.94,16.94,0,0,1-8.87-2.41,16.2,16.2,0,0,1-6.26-7,20.21,20.21,0,0,1-1.9-8.84c0-5.2,1.5-9.51,4.46-12.81a17.43,17.43,0,0,1,25.3.1,18.5,18.5,0,0,1,4.45,12.71c0,5.2-1.51,9.52-4.48,12.83A16.44,16.44,0,0,1,371.59,539.6Z" transform="translate(-5.29 -4.91)"/><path class="cls-4" d="M393.22,539.6a16.94,16.94,0,0,1-8.87-2.41,16.2,16.2,0,0,1-6.26-7,20.21,20.21,0,0,1-1.9-8.84c0-5.2,1.5-9.51,4.46-12.81a17.43,17.43,0,0,1,25.3.1,18.5,18.5,0,0,1,4.45,12.71c0,5.2-1.5,9.52-4.48,12.83A16.44,16.44,0,0,1,393.22,539.6Z" transform="translate(-5.29 -4.91)"/><path class="cls-4" d="M407.36,547.66a8.5,8.5,0,0,1-8.5-8.5V512a8.5,8.5,0,0,1,8.5-8.5h2.31a8.5,8.5,0,0,1,2,.23,17,17,0,0,1,4.44-.58,15.49,15.49,0,0,1,12.41,5.76c2.57,3.23,3.87,7.42,3.87,12.44s-1.33,9.26-3.94,12.5a15.22,15.22,0,0,1-9.72,5.53,8.5,8.5,0,0,1-8.5,8.26Z" transform="translate(-5.29 -4.91)"/><path class="cls-4" d="M437.21,539.6a17,17,0,0,1-12.72-5.18c-2.16-2.28-4.74-6.36-4.74-12.88A19.16,19.16,0,0,1,424,508.89a15.81,15.81,0,0,1,12.52-5.72,15.52,15.52,0,0,1,11.94,5.18,17.28,17.28,0,0,1,4.18,11.75v1.8a8.54,8.54,0,0,1-.94,3.9,8.85,8.85,0,0,1,.14,1.55v2.53a8.52,8.52,0,0,1-5.13,7.81,23.86,23.86,0,0,1-4.47,1.44A24.18,24.18,0,0,1,437.21,539.6Z" transform="translate(-5.29 -4.91)"/><path class="cls-4" d="M449.43,539.25a8.5,8.5,0,0,1-8.51-8.5V512a8.5,8.5,0,0,1,8.51-8.5h2.34a8.63,8.63,0,0,1,2.1.26,14.13,14.13,0,0,1,4.1-.61,19.23,19.23,0,0,1,4,.39,8.5,8.5,0,0,1,6.68,9.58l-.39,2.63a8.52,8.52,0,0,1-7.46,7.2v7.78a8.5,8.5,0,0,1-8.51,8.5Z" transform="translate(-5.29 -4.91)"/><path class="cls-4" d="M468.75,539.6A14.53,14.53,0,0,1,458.67,536a13.5,13.5,0,0,1-4.37-10.38,14.27,14.27,0,0,1,2.94-8.53l-.23-.55a8.51,8.51,0,0,1,3.84-10.64,21.88,21.88,0,0,1,4.95-1.94,21.56,21.56,0,0,1,5.45-.7c4.42,0,8,1.26,10.72,3.74,2,1.82,4.36,5.22,4.36,11v12.78a8.5,8.5,0,0,1-8.5,8.5h-2.11a8.35,8.35,0,0,1-2.13-.27A18.22,18.22,0,0,1,468.75,539.6Z" transform="translate(-5.29 -4.91)"/><path class="cls-4" d="M489.8,539.6c-8.34,0-13.94-5.72-13.94-14.23v-4.94a8.51,8.51,0,0,1-2.68-6.2v-1.37a8.49,8.49,0,0,1,4.14-7.3l.09-.32a8.5,8.5,0,0,1,8.15-6.06h1.64a8.5,8.5,0,0,1,7.56,4.6,8.52,8.52,0,0,1,6.38,8.24v2.21a8.48,8.48,0,0,1-3.74,7l.47.33a8.5,8.5,0,0,1,3.41,6.81v2.17a8.51,8.51,0,0,1-4.81,7.66,13.32,13.32,0,0,1-3.7,1.1A18.66,18.66,0,0,1,489.8,539.6Z" transform="translate(-5.29 -4.91)"/><path class="cls-4" d="M497,539.25a8.5,8.5,0,0,1-8.5-8.5V512a8.51,8.51,0,0,1,.21-1.9,11.42,11.42,0,0,1-.45-3.18,10.3,10.3,0,0,1,3.13-7.59,10.2,10.2,0,0,1,17.23,7.59,11.25,11.25,0,0,1-.47,3.25,8.48,8.48,0,0,1,.2,1.83v18.73a8.5,8.5,0,0,1-8.51,8.5Z" transform="translate(-5.29 -4.91)"/><path class="cls-4" d="M513.83,539.6a16.93,16.93,0,0,1-8.86-2.41,16.16,16.16,0,0,1-6.27-7,20.21,20.21,0,0,1-1.9-8.84c0-5.2,1.5-9.51,4.46-12.81a17.44,17.44,0,0,1,25.31.1A18.55,18.55,0,0,1,531,521.37c0,5.2-1.51,9.52-4.49,12.83A16.44,16.44,0,0,1,513.83,539.6Z" transform="translate(-5.29 -4.91)"/><path class="cls-4" d="M540.79,539.25a8.47,8.47,0,0,1-5-1.61,8.42,8.42,0,0,1-5,1.61H528a8.5,8.5,0,0,1-8.51-8.5V512a8.5,8.5,0,0,1,8.51-8.5h2.3a8.24,8.24,0,0,1,2.06.25,16.61,16.61,0,0,1,4.49-.6c5.61,0,9.06,2.17,11,4s4.35,5.4,4.35,11.37v12.22a8.5,8.5,0,0,1-8.51,8.5Z" transform="translate(-5.29 -4.91)"/><path class="cls-4" d="M583.41,539.25a8.45,8.45,0,0,1-4.56-1.32,8.42,8.42,0,0,1-4.55,1.32h-2.84a8.52,8.52,0,0,1-4.55-1.31,8.46,8.46,0,0,1-4.54,1.31h-2.84a8.5,8.5,0,0,1-8.5-8.5V512a8.5,8.5,0,0,1,8.5-8.5h2.31a8.67,8.67,0,0,1,1.91.21,15.86,15.86,0,0,1,4.22-.56,16.86,16.86,0,0,1,6,1.06,16.46,16.46,0,0,1,5.89-1.06,14.6,14.6,0,0,1,10.87,4.22c2.64,2.73,4,6.48,4,11.14v12.22a8.5,8.5,0,0,1-8.51,8.5Z" transform="translate(-5.29 -4.91)"/><path class="cls-4" d="M592.58,539.25a8.5,8.5,0,0,1-8.51-8.5V512a8.51,8.51,0,0,1,.22-1.9,11.06,11.06,0,0,1-.45-3.18,10.3,10.3,0,0,1,3.13-7.59,10.19,10.19,0,0,1,17.22,7.59,11.25,11.25,0,0,1-.47,3.25,8.48,8.48,0,0,1,.2,1.83v18.73a8.5,8.5,0,0,1-8.5,8.5Z" transform="translate(-5.29 -4.91)"/><path class="cls-4" d="M607.56,539.6c-8.34,0-13.94-5.72-13.94-14.23v-4.94a8.51,8.51,0,0,1-2.68-6.2v-1.37a8.49,8.49,0,0,1,4.14-7.3l.09-.32a8.5,8.5,0,0,1,8.15-6.06H605A26.53,26.53,0,0,1,618.9,512v2.21a8.48,8.48,0,0,1-3.74,7l.47.33a8.5,8.5,0,0,1,3.41,6.81v2.17a8.51,8.51,0,0,1-4.81,7.66,13.32,13.32,0,0,1-3.7,1.1A18.66,18.66,0,0,1,607.56,539.6Z" transform="translate(-5.29 -4.91)"/><text class="cls-8" transform="translate(292.93 525.84)">in Kooperation mit</text></svg>