<svg id="Ebene_1" data-name="Ebene 1" xmlns="http://www.w3.org/2000/svg" viewBox="0 0 1130.48 501.14"><defs><style>.cls-1{fill:#fff;}.cls-2{fill:#b92736;}.cls-3{fill:#2c2517;}.cls-4{fill:#fdfeff;}.cls-5,.cls-7{fill:#1c1d1c;}.cls-6{fill:#b83e3c;}.cls-7,.cls-8{font-size:35px;font-family:OpenSans, Open Sans;letter-spacing:0.01em;}.cls-8{fill:#1d1d1b;}</style></defs><title>Koop_Logo_breit</title><rect class="cls-1" x="536.66" y="390.85" width="587.5" height="110.29"/><path class="cls-2" d="M655.8,439.64a41.66,41.66,0,0,0-4.94-7.25.8.8,0,0,0-1.06,0v0h0L638,443.68,629.38,452l26.14-11.49A.78.78,0,0,0,655.8,439.64Z" transform="translate(-22.14 -13.52)"/><path class="cls-2" d="M659,447.2a.78.78,0,0,0-1-.36h0l-1.28.47-23.49,8.62,15.76-.39,10.9-.27a.78.78,0,0,0,.65-.73A41.31,41.31,0,0,0,659,447.2Z" transform="translate(-22.14 -13.52)"/><path class="cls-2" d="M581.3,442.28l30.72,13,.26-.41-23.48-23.6a.77.77,0,0,0-1-.06,41.71,41.71,0,0,0-6.88,10.22A.78.78,0,0,0,581.3,442.28Z" transform="translate(-22.14 -13.52)"/><path class="cls-2" d="M659.87,463.41l-24.75-1,23.33,8.6a.77.77,0,0,0,.82-.42,40.93,40.93,0,0,0,1.25-6.57A.77.77,0,0,0,659.87,463.41Z" transform="translate(-22.14 -13.52)"/><path class="cls-2" d="M576.9,457.67a.78.78,0,0,0,.71.78l33.34.09a7.27,7.27,0,0,1,.17-1l-30.68-12.9h0a.78.78,0,0,0-1,.34,41.89,41.89,0,0,0-2.55,12.72h0Z" transform="translate(-22.14 -13.52)"/><path class="cls-2" d="M631.4,419.43a42.58,42.58,0,0,0-9.8-1.83.78.78,0,0,0-.7.73l-.33,29.84,11.24-27.86A.8.8,0,0,0,631.4,419.43Z" transform="translate(-22.14 -13.52)"/><path class="cls-2" d="M645.44,428.13a.78.78,0,0,0,.07-1,41.46,41.46,0,0,0-7.9-5.14.78.78,0,0,0-.84.29l-5.48,12.7-6.1,14.11,20.27-20.89,0,0Z" transform="translate(-22.14 -13.52)"/><path class="cls-2" d="M591,429.13v0h0l22.74,22.91-12.53-29.9a.78.78,0,0,0-1-.32,41.82,41.82,0,0,0-9.11,6.1,1.14,1.14,0,0,1-.17.15A.78.78,0,0,0,591,429.13Z" transform="translate(-22.14 -13.52)"/><path class="cls-2" d="M604.73,420.8v0h0l11.55,27.68.06-30.14a.78.78,0,0,0-.71-.73,42.28,42.28,0,0,0-10.5,2.16A.8.8,0,0,0,604.73,420.8Z" transform="translate(-22.14 -13.52)"/><path class="cls-2" d="M654.52,480.09l-29.84-14.68h0a1.56,1.56,0,0,0-1.47,0l0,0h0a7.52,7.52,0,0,1-1.62.91,7.68,7.68,0,0,1-10-4.17,6.89,6.89,0,0,1-.43-1.43.94.94,0,0,0-.94-.75H610l-32.43,0a.79.79,0,0,0-.73.7,42,42,0,0,0,78,20.36A.79.79,0,0,0,654.52,480.09Z" transform="translate(-22.14 -13.52)"/><path class="cls-3" d="M1054.75,482.37c0-2.46-2-3.19-3.81-3.93-.89-.36-1.39-.71-1.39-1.4s.44-1.31,1.49-1.31a8.2,8.2,0,0,1,2.59.46l.5-2.1a9.91,9.91,0,0,0-3.11-.48c-2.37,0-4.36,1.17-4.36,3.6,0,2,1.37,2.93,3.22,3.6,1.23.47,1.95.89,1.95,1.8s-.62,1.46-1.93,1.46a9.17,9.17,0,0,1-2.89-.48l-.33,2.27a13.17,13.17,0,0,0,3.18.39C1052.32,486.25,1054.75,485.19,1054.75,482.37Zm-13.16-1.48v-7.05h-2.73V481c0,1.89-.77,3.07-2.55,3.07s-2.58-1-2.58-3.07v-7.18H1031v7.3c0,3.43,2,5.07,5.21,5.07S1041.59,484.36,1041.59,480.89Zm-18.88.27h-3.43c.48-1.46,1.16-3.41,1.71-4.84C1021.53,477.77,1022.23,479.7,1022.71,481.16Zm4.39,4.87c-1.33-4.12-2.81-8.13-4.51-12.19h-3.08c-1.64,4-3.14,8.07-4.45,12.19h2.68c.3-1,.58-1.94.86-2.79h4.8c.27.89.54,1.81.83,2.79Zm-16.51,0V473.84h-2.72v4.79h-5.2v-4.79h-2.75V486h2.75v-5.22h5.2V486Zm-24,0a116.5,116.5,0,0,0-.94-12.19h-3.91l-3.07,8.69-3-8.69h-3.84a99.83,99.83,0,0,0-1,12.19h2.52c0-3.21.33-6.51.6-9.51l3.22,9.51h2.72l3.25-9.49c.31,3,.58,6.24.62,9.49Zm-20.89,0v-2.1H961v-3.17h4v-2h-4v-2.83h4.63v-2.08h-7.36V486Zm-13.52,0V473.84h-2.43v8.54l-5.2-8.54h-3.32V486h2.43v-8.61l5.24,8.61Zm-17,0V473.84h-2.74V486Zm-8.09,0v-2.1h-4.7v-3.17h3.95v-2h-3.95v-2.83H927v-2.08h-7.36V486Zm-20.9,0V473.84h-2.43v8.54l-5.2-8.54h-3.32V486h2.43v-8.61l5.24,8.61Zm-17,0V473.84h-2.75V486Zm-14.8-10v-2.16h-9.48V476h3.35v10H871V476Zm-11.21,10v-2.15h-4.36v-10H856V486Zm-12.45,0v-2.1H846v-3.17h3.95v-2H846v-2.83h4.64v-2.08h-7.36V486Zm-12.2-12.19h-2.77a69.61,69.61,0,0,1-2.21,9l-2.2-9H828L825.81,483a91.11,91.11,0,0,1-2.26-9.11h-3A112.61,112.61,0,0,0,823.9,486h3.56l2-8.36,2,8.36h3.57A100.83,100.83,0,0,0,838.46,473.84ZM808.52,486v-2.1h-4.7v-3.17h3.95v-2h-3.95v-2.83h4.63v-2.08H801.1V486Zm-12.35,0v-2.21h-5.82l5.65-7.9v-2.08h-8.65V476h5.45L787.15,484v2Zm-13.95,0V473.84h-2.44v8.54l-5.19-8.54h-3.33V486h2.43v-8.61l5.24,8.61Zm-19.82-4.87H759c.47-1.46,1.16-3.41,1.7-4.84C761.22,477.77,761.92,479.7,762.4,481.16Zm4.39,4.87c-1.33-4.12-2.81-8.13-4.51-12.19H759.2c-1.64,4-3.14,8.07-4.45,12.19h2.68c.3-1,.59-1.94.86-2.79h4.8c.27.89.54,1.81.83,2.79ZM751,474.65a8.93,8.93,0,0,0-4.24-1c-3.93,0-6.68,2.54-6.68,6.45s2.37,6.17,6.39,6.17a14.36,14.36,0,0,0,4.47-.7v-6.24h-2.73v4.59a6.38,6.38,0,0,1-1.56.23c-2.22,0-3.76-1.52-3.76-4.2,0-2.45,1.45-4.15,3.78-4.15a6.59,6.59,0,0,1,3.43.89ZM727.81,486v-2.1h-4.7v-3.17h3.95v-2h-3.95v-2.83h4.63v-2.08h-7.36V486Zm-13.51,0V473.84h-2.75V486Zm-10.65-6.12c0,2.67-1.29,4-3.66,4h-1.68V476H700C702.61,476,703.65,477.69,703.65,479.91Zm2.85-.15c0-3.82-2.39-5.92-6-5.92h-4.89V486h4.51C704.13,486,706.5,483.65,706.5,479.76Z" transform="translate(-22.14 -13.52)"/><path class="cls-3" d="M1128.23,460.93v-13.5c0-4.34-1.73-7.64-5.71-7.64a5.92,5.92,0,0,0-5.06,2.9v-11.9H1113v30.14h4.5V446.54c1.45-2.13,2.45-3,3.78-3,1.89,0,2.49,1.77,2.49,4.78v12.62Zm-25.35-10.09c0,4.18-1.08,7-3.62,7s-3.74-2.53-3.74-7.35c0-4.14,1.09-7,3.62-7S1102.88,446,1102.88,450.84Zm4.7-.4c0-6.67-2.78-10.65-8.24-10.65s-8.48,4.14-8.48,11.13c0,6.63,2.77,10.53,8.2,10.53S1107.58,457.31,1107.58,450.44ZM1087.17,461v-3.34h-1.05c-1,0-1.28-.72-1.28-2.09V430.79h-4.46v25.88c0,3.54,1.68,4.62,4,4.62A11.41,11.41,0,0,0,1087.17,461Zm-12-5.71c0-2.77-1.16-4.46-4.62-6.55-2-1.28-2.49-2.13-2.49-3.37a2.13,2.13,0,0,1,2.37-2.09,9.19,9.19,0,0,1,3.26.72l.52-3.53a13.82,13.82,0,0,0-4.18-.65c-4.14,0-6.51,2.46-6.51,6,0,2.81,1.29,4.42,4.22,6.27,2.21,1.4,2.82,2.29,2.82,3.57s-.93,2.29-2.62,2.29a9.85,9.85,0,0,1-3.85-.92l-.6,3.7a15.25,15.25,0,0,0,4.86.76C1072.74,461.45,1075.19,458.92,1075.19,455.26Zm-15.3-15.14a5.5,5.5,0,0,0-1.81-.33c-1.73,0-2.69,1.13-4.3,3.94l-.4-3.42h-3.46v20.62h4.5V447.51c1.65-2.58,2.41-3.54,3.34-3.54a4.69,4.69,0,0,1,1.6.36Zm-20,8.31h-6.47c.12-2.73,1-5.38,3.49-5.38C1039,443.05,1040,445.1,1039.92,448.43Zm4.42.85c0-5.95-2-9.49-7.23-9.49-5.43,0-8.28,4.18-8.28,11,0,7.15,2.73,10.69,8.31,10.69a20.45,20.45,0,0,0,6.68-1.12l-.48-3.46a17.39,17.39,0,0,1-5.55,1c-3.22,0-4.3-2.33-4.3-6.3h10.81C1044.3,450.76,1044.34,449.76,1044.34,449.28Zm-19.48,11.61v-3.22h-1.37c-1.69,0-2.25-.52-2.25-3.45V443.81h3.62v-3.5h-3.62v-5.94h-3.46l-1,5.94h-2.29v3.5h2.29v12c0,4.34,1.89,5.55,4.62,5.55A12.7,12.7,0,0,0,1024.86,460.89Zm-15.11,0V440.32h-4.5V454.7c-1.49,2.13-2.49,3-3.82,3-1.89,0-2.45-1.76-2.45-4.78V440.32h-4.5v13.5c0,4.33,1.73,7.63,5.82,7.63,2.42,0,4.06-1.12,5.63-3.26l.36,2.74Zm-8.68-26.84a2.37,2.37,0,1,0-2.37,2.45A2.29,2.29,0,0,0,1001.07,434.09Zm6.79,0a2.26,2.26,0,0,0-2.37-2.41,2.43,2.43,0,0,0,0,4.86A2.27,2.27,0,0,0,1007.86,434.09Zm-19.53.52a13.7,13.7,0,0,0-7.35-2.17c-7.28,0-11.53,5.63-11.53,14.79s3.85,14.18,11.24,14.18a19.17,19.17,0,0,0,7.52-1.49V446h-4.7V457a9.08,9.08,0,0,1-2.69.48c-4.14,0-6.39-3.57-6.39-10.52,0-6.31,2-10.53,6.63-10.53a10.69,10.69,0,0,1,5.82,1.89ZM962.9,460.93l-5.42-13.82,5.06-7h-7.08l-3.85,7.07v-16.4h-6v30.14h6v-7.24l1.16-1.68,3.26,8.92Zm-28-12.82h-4.58c.09-2.41.69-4.34,2.46-4.34C934.25,443.77,934.93,445.34,934.89,448.11Zm5.87,1.33c0-6.51-2.17-9.93-7.79-9.93s-8.8,4.22-8.8,11.29c0,7.32,2.89,10.73,8.84,10.73a22.89,22.89,0,0,0,7.15-1.16l-.52-4.54a19.5,19.5,0,0,1-5.79.92c-2.45,0-3.49-1.69-3.49-4.62h10.36C940.72,451.16,940.76,450,940.76,449.44Zm-21,11.49V447.27c0-4.74-2.09-7.76-5.87-7.76a5.44,5.44,0,0,0-4.69,2.45V430.79h-6.07v30.14h6.07V446.78c1-1.6,1.84-2.24,2.73-2.24,1.32,0,1.72,1.2,1.72,4v12.42Zm-21.25,0v-4.34h-1.25c-1.61,0-1.89-.73-1.89-3.46v-8.31h3.14v-4.7h-3.14v-5.95H890.7l-1.41,5.95h-2v4.7h2v10.65c0,4.57,2,6,4.91,6A15.64,15.64,0,0,0,898.5,460.93Zm-20.81-10.21c0,3.62-.65,6-2.58,6-1.76,0-2.65-1.85-2.65-6.35,0-3.53.61-6,2.49-6S877.69,446.3,877.69,450.72Zm6.26-.36c0-6.79-2.77-10.81-8.72-10.81s-9,4.18-9,11.37c0,6.67,2.78,10.61,8.72,10.61S884,457.31,884,450.36Zm-22.34,10.57V440.12h-8.2v4.69h2.14v16.12Zm.45-26.72a3.48,3.48,0,1,0-3.5,3.54A3.39,3.39,0,0,0,862.06,434.21Zm-11.33,26.72v-4.38h-.84c-.89,0-1.21-.6-1.21-1.93V430.79h-6v25.44c0,4,1.89,5.18,4.5,5.18A11.13,11.13,0,0,0,850.73,460.93Zm-19-10.49c0,3.94-1.08,6-3,6A3.25,3.25,0,0,1,827,456v-9.24c1.17-1.72,1.77-2.24,2.69-2.24C831.24,444.54,831.76,446.83,831.76,450.44Zm6.31-.8c0-5.63-2.17-10.13-6.51-10.13a5.38,5.38,0,0,0-4.58,2.25v-11h-6.06v29.12a21.67,21.67,0,0,0,7.43,1.49C835.1,461.41,838.07,456.67,838.07,449.64Zm-22.54,11.29V440.12h-8.2v4.69h2.13v16.12Zm.44-26.72a3.48,3.48,0,1,0-3.49,3.54A3.38,3.38,0,0,0,816,434.21Zm-18.48,18.28c0,2.33-1,3.61-2.93,3.61h-2v-7.35h1.72C796.65,448.75,797.49,450.24,797.49,452.49Zm-.93-11.61c0,1.89-.72,3.29-2.45,3.29h-1.6v-6.59H794C795.64,437.58,796.56,438.79,796.56,440.88Zm7.52,11.37c0-3.66-1.85-6-4.5-6.59,2-.8,3.3-2.81,3.3-5.71,0-5-3.42-7.07-8.73-7.07h-7.87v28.05H794C799.18,460.93,804.08,458.68,804.08,452.25Zm-26,8.64v-3.22h-1.36c-1.69,0-2.25-.52-2.25-3.45V443.81h3.61v-3.5h-3.61v-5.94h-3.46l-1,5.94h-2.29v3.5H770v12c0,4.34,1.88,5.55,4.62,5.55A12.57,12.57,0,0,0,778.12,460.89Zm-19.64-6.19c-1.69,2.41-2.54,3-3.66,3-2.41,0-3-3.13-3-6.79,0-4.7,1.32-7.35,3.9-7.35a6,6,0,0,1,2.73.6Zm4.5,6.23V430.79h-4.5v9.53a13.22,13.22,0,0,0-2.9-.28c-5.86,0-8.43,5.1-8.43,11.32,0,5.59,1.88,10.09,6.59,10.09,2.25,0,3.81-1,5.46-3.3l.32,2.78Zm-25.64-5.31c-1,1.37-2.05,2.45-3.41,2.45-1.61,0-2.41-1.2-2.41-3,0-2.21,1.2-3.45,3.54-3.45h2.28v4Zm4.42,5.31V446.66c0-4.18-2.09-6.87-7.15-6.87a15.54,15.54,0,0,0-6.23,1.41l.77,3.25a11.88,11.88,0,0,1,4.9-1.2c2.57,0,3.29,1.25,3.29,3.9v1.52h-2c-5,0-8.23,2.05-8.23,6.68,0,3.93,2.37,6.1,5.7,6.1a6.45,6.45,0,0,0,5.23-2.73l.28,2.21Zm-18.88,0v-3.22h-1.37c-1.68,0-2.25-.52-2.25-3.45V443.81h3.62v-3.5h-3.62v-5.94h-3.45l-1,5.94h-2.29v3.5h2.29v12c0,4.34,1.89,5.55,4.62,5.55A12.59,12.59,0,0,0,722.88,460.89Zm-14-8c0-3-1.16-5.22-5.1-7.87-2.93-2-4.22-3.26-4.22-5.47a3.21,3.21,0,0,1,3.38-3.41,9.71,9.71,0,0,1,3.9.84l.68-3.77a13.52,13.52,0,0,0-4.78-.85c-4.62,0-8.12,2.89-8.12,7.84,0,3.25,1.21,5.3,5,7.83,3.17,2.13,4.33,3.3,4.33,5.63s-1.28,3.85-4.13,3.85a13.12,13.12,0,0,1-4.67-.92l-.6,3.94a17.61,17.61,0,0,0,5.46.92C705.29,461.45,708.9,458.48,708.9,452.89Z" transform="translate(-22.14 -13.52)"/><path class="cls-4" d="M560.85,183.83H504.43l8.25-6.16,6.92-5.16,1.52-1.13,7.2-5.31-4-8s-.38-.75-.72-1.45a252,252,0,0,0-20.28-35c-.56-.8-1.11-1.59-1.11-1.6l-4.9-7.09-7.93,3.36-2,.84c-3.81,1.63-7.61,3.28-11.42,4.92l-11.17,4.81-12.27,5.27A203.88,203.88,0,0,0,429,108.58l2.35-5.49q6.26-14.58,12.51-29.16c.56-1.24.93-2.09,1-2.19l3.46-8.15-7.41-4.84c-.05,0-.7-.45-1.67-1.12A244.89,244.89,0,0,0,405,37.85c-1.12-.53-1.94-1-1.95-1l-8.16-4.22-5.32,7.48s-.52.73-1.21,1.61c-.24.3-.42.57-.54.75l-5.45,7.29L365.78,72c-2.92-1-5.85-2-8.74-2.9a196.81,196.81,0,0,0-23.44-5.7l-.15-1.22q-1.12-9.51-2.26-19l-.49-4.09c-.16-1.37-.33-2.73-.49-4.1-.39-3.16-.78-6.43-1.14-9.63l-.19-1.67-1-8.55-8.58-.73-1.16-.11c-2.18-.25-4.28-.32-6.13-.39-1.13,0-2.19-.07-3.19-.14l-.46,0H306.8c-1.72,0-3.46-.06-5.29-.12s-3.92-.13-6-.13h-.43c-3,0-6.07,0-9.49.24-1.3.09-2.59.15-3.95.21-1.79.08-3.63.16-5.56.33l-1.42.13-8.37.84-1.06,8.34s-.11.87-.18,1.51c-.48,4.24-1,8.58-1.5,12.76q-.42,3.47-.83,6.93l-.22,1.86c-.65,5.48-1.31,11.09-1.95,16.71A211.29,211.29,0,0,0,228.36,72l-10-13.35L205.63,41.6,204.41,40l-5.25-7.05-7.9,3.87s-.85.43-1.7.83a236.65,236.65,0,0,0-23.29,12.66c-2.31,1.43-4.56,2.92-6.74,4.36-1.65,1.09-3.22,2.13-4.81,3.14l-1.38.89-7.46,4.83,3.47,8.18,1.17,2.77,2.56,6,12.09,28.19a207.65,207.65,0,0,0-23.54,23.54l-9.37-4-25.47-10.94h-.06l-2-.82L96.85,113,92,120.05l-1.23,1.78a248.48,248.48,0,0,0-20,34.52l-.89,1.82-3.76,7.66,6.7,5.29,1.69,1.34.12.09.11.08,7,5.24,8,6H22.14V344.18H89.77l-4.72,3.52q-5.2,3.89-10.39,7.77c-.87.65-1.52,1.12-1.55,1.14l-7.19,5.24,3.92,8s.39.79.9,1.85a249.57,249.57,0,0,0,18.33,32.11l.84,1.25c.35.5.69,1,1,1.51l.95,1.41,5,7.44,8.16-3.7,1.43-.64h0l.91-.42,6.28-2.7q14-6,28-12a200.68,200.68,0,0,0,23.55,23.55q-7.45,17.31-14.89,34.62c-.5,1.17-1,2.34-1,2.34l-3.15,7.74L153,469s1,.75,2.12,1.49a248.32,248.32,0,0,0,34.14,19.77l.56.27.71.35.78.38,7.73,3.8,5.28-6.81c.16-.21.57-.74.89-1.2l.13-.17,0-.06.12-.15.39-.51,7.08-9.48L228.38,456a198.59,198.59,0,0,0,32.23,8.61l.37,3.1c1.35,11.5,2.76,23.4,4.09,35.09l.15,1.42,1,8.94,9,.5,1.38.07c3.39.2,6.87.43,10.24.66l3.77.25.39,0h.38l13.66-.1h.33l.33,0,3.35-.24c2.9-.21,5.64-.41,8.41-.54l1.35-.06,8.92-.31,1.19-8.83s.16-1.21.24-1.91c.3-2.71.64-5.49,1-8.19.22-1.77.43-3.54.64-5.31q.82-7,1.63-14l1.23-10.59c1.71-.32,3.36-.65,4.9-1A195,195,0,0,0,365.78,456l3.24,4.35q9.69,13,19.38,25.93c.67.9,1.21,1.65,1.23,1.68l5.23,7.26,8-4s.86-.43,1.94-.94a252.07,252.07,0,0,0,34.34-19.86l1.9-1.31,6.94-4.82-3.18-7.84s-.46-1.12-.93-2.24l-8.16-19L429,419.47a204.68,204.68,0,0,0,23.56-23.55l11,4.75,23.82,10.23,2,.84,7.88,3.35,4.92-7,1.15-1.65a252.77,252.77,0,0,0,20.28-35l.76-1.57,3.82-7.75-6.84-5.29-1.68-1.27-6.54-4.88-8.69-6.49h67V183.83Z" transform="translate(-22.14 -13.52)"/><path id="Zahnrad" class="cls-5" d="M159.08,67.54s.78-.51,1.33-.85c3.83-2.45,7.58-5,11.44-7.44a229.1,229.1,0,0,1,22.27-12.1l1.81-.88,1.23,1.66,26.26,35.16c.63.84,1.23,1.62,1.23,1.62s.94-.34,1.83-.69a198.26,198.26,0,0,1,37.18-10.45c1.73-.31,3.47-.5,5.21-.76l1.32-.2.14-1.31c.93-8.42,1.93-16.83,2.92-25.24.78-6.59,1.6-13.17,2.33-19.76l.17-1.34,1.26-.12c3.12-.26,6.23-.3,9.34-.52s6.06-.22,9.08-.22c4.21,0,8.36.3,12.6.23,2.94.22,5.91.15,8.86.5l1.49.14s.12,1,.18,1.59c.52,4.6,1.09,9.2,1.64,13.8q1.38,11.55,2.75,23.09c.29,2.46.61,4.92.79,7.39.05.69.19,1.82.19,1.82s1.2.18,1.86.26A176.22,176.22,0,0,1,354,79.24q6.85,2.08,13.52,4.73l2,.79S370,84,370.75,83l25.69-34.38c.1-.13.18-.27.28-.4.85-1.1,1.48-2,1.48-2s1,.5,2.31,1.13a234.51,234.51,0,0,1,32.67,18.92c1.15.79,1.89,1.28,1.89,1.28s-.36.83-.91,2q-8.57,20-17.17,40c-.44,1-.88,2-.88,2s.87.72,1.73,1.41A190.44,190.44,0,0,1,448,143.26l.16.18,1.25,1.55,1.82-.77L469,136.58l22.59-9.73,1.9-.82,1.13,1.64A239.62,239.62,0,0,1,514,161.2c.4.83.83,1.67.83,1.67L513.27,164q-12.48,9.32-25,18.66l-1.46,1.07H485q-35,0-70.07,0h-2.11s-.79-1.12-1.22-1.71a140.44,140.44,0,0,0-65.83-50.29,141.59,141.59,0,0,0-59-8.33A140.75,140.75,0,0,0,182.8,181.74a4.4,4.4,0,0,1-4.12,2q-34.55-.09-69.11,0l-2.28,0-1.87-1.34c-8.1-6.12-16.25-12.16-24.38-18.24l-1.7-1.34.92-1.87a237.81,237.81,0,0,1,19.18-33.12l1.23-1.78,2,.82,40.15,17.25,2,.83s.71-.85,1.41-1.71a196.11,196.11,0,0,1,30.32-30.3l1.53-1.21-.78-1.84q-8.47-19.8-17-39.58ZM316.86,503.21l1.51-.07s.14-1,.21-1.64c.5-4.53,1.08-9,1.61-13.57q1.77-15.1,3.52-30.23c.15-1.23.3-2.3.3-2.3s1.27-.2,2.24-.32c3.4-.44,6.76-1.11,10.12-1.79a186.75,186.75,0,0,0,31.54-9.39l1.59-.62a11.58,11.58,0,0,1,1,1.31c.16.27.38.51.57.77q12.9,17.29,25.82,34.58c.75,1,1.35,1.83,1.35,1.83s.9-.45,2.07-1a239.71,239.71,0,0,0,32.9-19l1.85-1.27s-.41-1-.85-2L416.9,418.19c-.4-.94-.77-1.89-.77-1.89l1.51-1.2a193.47,193.47,0,0,0,30.48-30.47c.63-.78,1.27-1.55,1.27-1.55l2,.84,40.16,17.27,1.93.82,1.12-1.62A240.68,240.68,0,0,0,514,366.86c.36-.77.81-1.67.81-1.67L513.29,364c-8-6-16-11.94-24-17.95l-1.76-1.3s-1.42,0-2.18,0q-35.28.06-70.55,0c-.78,0-2.26,0-2.26,0s-.9,1.15-1.44,1.9a140.95,140.95,0,0,1-103.39,57.91,141.37,141.37,0,0,1-72-13.72A140.39,140.39,0,0,1,183,346.63c-.51-.7-1.41-1.86-1.41-1.86s-1.49,0-2.32,0q-35.28.08-70.55,0l-2.11,0L105,346c-8,6-16,11.94-24,17.94-1,.72-1.68,1.24-1.68,1.24s.41.83,1,2a238.92,238.92,0,0,0,17.55,30.75c.63.93,1.26,1.85,1.88,2.78l.94,1.4,1.55-.69L103,401l40.11-17.24,1.74-.75.85,1.08A189.66,189.66,0,0,0,177,415.43l1.14.9s-.35.81-.58,1.27-.4.87-.59,1.3L160,458.24c-.46,1.08-.9,2.16-.9,2.16s1,.7,2,1.39a236.8,236.8,0,0,0,32.69,18.93l1.29.63.86.42s.37-.48.58-.78.57-.77.86-1.16q13-17.38,26-34.76c.68-.92,1.34-1.79,1.34-1.79l2.12.83a2.14,2.14,0,0,0,.22.1,186.38,186.38,0,0,0,41,10.88c1,.14,2.06.31,2.06.31s.16,1.05.28,2.17c.09.79.25,1.58.34,2.37,1.63,13.88,3.28,27.77,4.86,41.66.07.59.17,1.5.17,1.5l1.39.08c4.7.26,9.41.6,14.11.91L304.9,504C308.89,503.73,312.87,503.41,316.86,503.21ZM193.66,183.74c7.36,0,14.72,0,22.07,0h1.34s1-.92,1.36-1.25a97.48,97.48,0,0,1,9.8-8.46,113.14,113.14,0,0,1,147.51,8.47c.48.46,1.33,1.24,1.33,1.24h1.6c7-.05,13.93,0,21,0h1.69c-52.06-68.23-156.67-68.13-208.5,0A6.31,6.31,0,0,0,193.66,183.74ZM306.88,395.43a129.09,129.09,0,0,0,64.63-22.75,133.22,133.22,0,0,0,29.61-27.91h-1.23c-7.35,0-14.71,0-22.07,0-.45,0-1.28,0-1.28,0s-.68.61-1,1c-1.74,1.65-3.5,3.28-5.33,4.82a112.39,112.39,0,0,1-61.55,26.19,109.38,109.38,0,0,1-25.12-.27,113.12,113.12,0,0,1-28.17-7.12,111.52,111.52,0,0,1-36.24-23.22l-1.44-1.35s-1.25,0-1.94,0c-2.8.09-5.6,0-8.4,0h-14C214.42,373.12,255.44,399.17,306.88,395.43Z" transform="translate(-22.14 -13.52)"/><path id="Box" class="cls-6" d="M32.72,194.4V333.61H560.85V194.4Zm324,66.26H49V210.25H356.74Z" transform="translate(-22.14 -13.52)"/><path id="T" class="cls-4" d="M502.07,259V292.1a13.83,13.83,0,0,1,0,1.44c-.1,1,.26,1.53,1.34,1.83a10.37,10.37,0,0,1,4.92,3.28,11.33,11.33,0,0,1-9.84,18.74,11.3,11.3,0,0,1-2.85-21.78,2.29,2.29,0,0,0,1.68-2.62q0-34.08,0-68.15c0-2.17.15-2.12-2.06-2.12-4.08,0-8.16.06-12.24,0a2.08,2.08,0,0,0-2.37,1.64,10.83,10.83,0,0,1-10.16,7.48c-5.83.35-10.68-3.81-11.73-9.81a11.29,11.29,0,0,1,7.95-12.4,11.17,11.17,0,0,1,13.69,6.3,2.75,2.75,0,0,0,3.07,2.07q16.44-.12,32.87,0a2.42,2.42,0,0,0,2.73-1.86,11.22,11.22,0,0,1,12.64-6.82,11.37,11.37,0,0,1,0,22.34A11.52,11.52,0,0,1,519,224.8c-.86-2.07-.86-2.07-3-2.08H504c-1.94,0-2,0-2,1.94Q502.06,241.83,502.07,259Zm-23-38.47a9,9,0,1,0-9.1,8.94A9,9,0,0,0,479,220.51Zm59.52,0a9,9,0,1,0-9.07,9A9,9,0,0,0,538.56,220.48Zm-47.85,85.69a9,9,0,1,0,9-9A9.05,9.05,0,0,0,490.71,306.17Z" transform="translate(-22.14 -13.52)"/><path id="G" class="cls-4" d="M443.51,277.81a2.75,2.75,0,0,1-1.08,1.62c-3.68,3.68-7.4,7.31-11,11a4.2,4.2,0,0,1-3.36,1.36c-4.48-.07-9,0-13.44,0-2.53,0-2.76-.26-2.77-2.75,0-3,0-5.92,0-8.88,0-2,.29-2.28,2.16-2.34h7v5.86h2.15v-5.86h4.76v5.86h2.15v-5.86Zm-29.23,32.94a.91.91,0,0,1,.16-1.43c10.6-10.56,19.5-19.4,30.1-29.94.35-.34.68-.69,1-1a1.51,1.51,0,0,1,2.33,0c2.05,2,4.11,4,6.09,6.12,1,1,.9,1.5-.23,2.65l-10.34,10.41L439.83,294l-1.1,1.1,3.6,3.57-3,2.95L435.76,298l-1.11,1.1,3.56,3.56-3,2.93-3.53-3.53-1.1,1.1,3.57,3.53-3,2.9-3.54-3.5-1.1,1.1,3.57,3.54-2.88,2.82-3.54-3.51-1.1,1.11,3.55,3.55-3.82,4.08Zm30.8-25.42a1.84,1.84,0,0,0,3.67,0,1.86,1.86,0,0,0-1.84-1.77A1.84,1.84,0,0,0,445.08,285.33ZM419.87,321c-2,2.05-4,4.11-6.13,6.09-1,1-1.49.9-2.64-.23l-10.27-10.48,3.44-3.45-1.1-1.1-3.44,3.44-2.94-3,3.41-3.41-1.1-1.1-3.4,3.39-2.93-3,3.37-3.36L395,303.72l-3.35,3.36-2.9-3,3.33-3.32L391,299.69,387.69,303l-2.82-2.88,3.28-3.29-1.1-1.1L383.77,299l-.09-.09-5.91-6.22c1.41,0,2.91,0,4.41,0,2.13,0,3.24-1.11,3.3-3.21,0-1.57,0-3.15,0-4.8,1,.12,1.3.75,1.72,1.17q15.82,15.88,31.64,31.81c.34.34.68.67,1,1A1.51,1.51,0,0,1,419.87,321Zm-7-2.82a1.84,1.84,0,0,0,0,3.67,1.84,1.84,0,0,0,0-3.67Zm-28.81-51.7v21.58c0,2.77-.21,3-3,3-2.23,0-4.47,0-6.7,0-1.75,0-2.06-.28-2.08-1.88V276.22h6v-2.5h-6v-5.79h6v-2.51h-6v-5.19h6v-2.51h-6V243.8c0-1.52.52-2,2.08-2,2.47,0,4.95,0,7.43,0,2.11,0,2.29.2,2.29,2.37C384.1,251.64,384.09,259.07,384.09,266.51Zm-3.88,19.32a2,2,0,0,0-2-2.16,2,2,0,0,0-1.94,2,1.81,1.81,0,0,0,1.87,2A2,2,0,0,0,380.21,285.83Zm.18-38.47a2.1,2.1,0,0,0-1.86-2.08,2.06,2.06,0,0,0-.35,4.11A2.2,2.2,0,0,0,380.39,247.36Zm39.21-32.9c-.33.35-.67.68-1,1Q402.78,231.4,387,247.29c-.42.43-.73,1.05-1.71,1.17,0-1.65,0-3.23,0-4.8-.07-2.1-1.17-3.16-3.31-3.21-1.5,0-3,0-4.41,0l5.91-6.22.1-.09,3.27,3.27,1.1-1.1L384.6,233l2.82-2.87,3.31,3.31,1.11-1.1L388.51,229l2.9-3,3.36,3.36,1.1-1.1L392.5,225l2.93-3,3.4,3.4,1.1-1.11-3.41-3.4,3-3,3.43,3.44,1.11-1.1-3.45-3.45,10.27-10.48c1.15-1.13,1.63-1.19,2.64-.23,2.09,2,4.11,4,6.13,6.09A1.51,1.51,0,0,1,419.6,214.46Zm-5.18-1.34a1.87,1.87,0,0,0-1.77-1.84,1.84,1.84,0,1,0,1.77,1.84Z" transform="translate(-22.14 -13.52)"/><path class="cls-6" d="M86.36,216.49v37.15H76.85v-13l-4.86,13H66.22l-5-13.38v13.38H51.74V216.49h9.14l8.22,21.57,8.29-21.57Z" transform="translate(-22.14 -13.52)"/><path class="cls-6" d="M114,253.64l-3.58-9.79h-7.75l-3.53,9.79H88.93l11.65-37.15h12l11.65,37.15Z" transform="translate(-22.14 -13.52)"/><path class="cls-6" d="M153.16,216.49l-14.8,18.63,14.75,18.52H142l-6.41-8v8h-9V216.49h9v8.64l6.46-8.64Z" transform="translate(-22.14 -13.52)"/><path class="cls-6" d="M180.59,224.88H165.2v6h11.33v8.39H165.2v6h15.39v8.39H156.23V216.49h24.36Z" transform="translate(-22.14 -13.52)"/><path class="cls-6" d="M198.6,253.64l-5.34-12.08h-.11v12.08h-9V216.49H196.3a14.45,14.45,0,0,1,5.69,1,9.53,9.53,0,0,1,3.63,2.59,9.81,9.81,0,0,1,1.95,3.8,17.09,17.09,0,0,1,.59,4.57,10.63,10.63,0,0,1-.88,4.44,12.48,12.48,0,0,1-2.08,3.27,10,10,0,0,1-2.43,2,4.45,4.45,0,0,1-1.93.67l8.07,14.83Z" transform="translate(-22.14 -13.52)"/><path class="cls-6" d="M237.71,245a7,7,0,0,1-1.09,3.37,9.28,9.28,0,0,1-2.73,2.75A14,14,0,0,1,229.7,253a21,21,0,0,1-5.56.67,16.44,16.44,0,0,1-4.51-.6,13.94,13.94,0,0,1-3.82-1.7,11.25,11.25,0,0,1-2.91-2.67,10.16,10.16,0,0,1-1.74-3.57l8.55-3.34c-.07,0,0,.26.24.7a7.16,7.16,0,0,0,1,1.37,6.86,6.86,0,0,0,1.58,1.3,2.94,2.94,0,0,0,2,.42,3.6,3.6,0,0,0,1.79-.75,2.25,2.25,0,0,0,.83-2,2.6,2.6,0,0,0-.72-1.58,10.21,10.21,0,0,0-1.9-1.52q-2.73-1.69-5.05-3a28,28,0,0,1-4.06-2.67,10.73,10.73,0,0,1-2.72-3.15,8.8,8.8,0,0,1-1-4.39,8.33,8.33,0,0,1,1.07-4.29,9.54,9.54,0,0,1,2.83-3.1,13.33,13.33,0,0,1,4.06-1.9,19.2,19.2,0,0,1,4.75-.7,15.55,15.55,0,0,1,5.16.78,12.71,12.71,0,0,1,3.74,2,9.32,9.32,0,0,1,2.37,2.72,9.73,9.73,0,0,1,1.13,3l-7.86,2.9a7,7,0,0,0-.48-1.23,4.48,4.48,0,0,0-.88-1.24,5.1,5.1,0,0,0-1.33-1,4,4,0,0,0-1.79-.4,3.24,3.24,0,0,0-1.95.63,2.13,2.13,0,0,0-.89,1.87,2.17,2.17,0,0,0,.83,1.67,26.38,26.38,0,0,0,2.59,1.92q2.46,1.31,4.73,2.6a21.58,21.58,0,0,1,4,2.95,13.73,13.73,0,0,1,2.84,3.72,10.61,10.61,0,0,1,1.06,4.91Z" transform="translate(-22.14 -13.52)"/><path class="cls-6" d="M252.56,216.49a12.34,12.34,0,0,1,4.65.85,10.05,10.05,0,0,1,3.55,2.42,10.87,10.87,0,0,1,2.27,3.8,14.44,14.44,0,0,1,.8,5,14.05,14.05,0,0,1-.8,4.89,11.1,11.1,0,0,1-2.27,3.79,10.07,10.07,0,0,1-3.55,2.48,12,12,0,0,1-4.65.87h-3v13.08h-9.14V216.49h12.13Z" transform="translate(-22.14 -13.52)"/><path class="cls-6" d="M287.48,253.64l-3.58-9.79h-7.75l-3.52,9.79H262.42l11.65-37.15h12l11.64,37.15Z" transform="translate(-22.14 -13.52)"/><path class="cls-6" d="M313.24,245.4a5.23,5.23,0,0,0,3.82-1.1,8.32,8.32,0,0,0,2.32-3l7.75,4c-.32.6-.78,1.37-1.36,2.3a12.23,12.23,0,0,1-2.49,2.75,14.71,14.71,0,0,1-4.08,2.32,16.86,16.86,0,0,1-6.12,1H313a17.1,17.1,0,0,1-6.82-1.2,12.18,12.18,0,0,1-4.48-3.22,12.64,12.64,0,0,1-2.54-4.69,23.28,23.28,0,0,1-1-5.57v-7.69a16.94,16.94,0,0,1,1-5.41,14.25,14.25,0,0,1,2.77-4.77,13.61,13.61,0,0,1,4.62-3.37,15.4,15.4,0,0,1,6.47-1.28h.05a16.72,16.72,0,0,1,5.61.85,14.18,14.18,0,0,1,4,2.2,11.79,11.79,0,0,1,2.72,3,17.84,17.84,0,0,1,1.63,3.4l-7.75,4a10.2,10.2,0,0,0-.88-1.84,7.7,7.7,0,0,0-1.36-1.7,6.54,6.54,0,0,0-1.82-1.2,4.71,4.71,0,0,0-2.13-.4,6.26,6.26,0,0,0-4.36,2,6.64,6.64,0,0,0-1.63,4.57v7.24a6.7,6.7,0,0,0,1.66,4.62A6.17,6.17,0,0,0,313.24,245.4Z" transform="translate(-22.14 -13.52)"/><path class="cls-6" d="M354.65,224.88H339.27v6h11.32v8.39H339.27v6h15.38v8.39H330.29V216.49h24.36Z" transform="translate(-22.14 -13.52)"/><text class="cls-7" transform="translate(803.48 393.03)">in Kooperation mit</text><path class="cls-4" d="M828.64,415.05a8.5,8.5,0,0,1-8.51-8.5V387.82a8.51,8.51,0,0,1,.21-1.9,11.42,11.42,0,0,1-.45-3.18,10.11,10.11,0,0,1,10.18-10.38,10.18,10.18,0,0,1,7,2.74,10.29,10.29,0,0,1,3.21,7.64,11.13,11.13,0,0,1-.47,3.24,8.64,8.64,0,0,1,.2,1.84v18.73a8.5,8.5,0,0,1-8.51,8.5Z" transform="translate(-22.14 -13.52)"/><path class="cls-4" d="M850.8,415.05a8.49,8.49,0,0,1-5-1.61,8.55,8.55,0,0,1-5,1.61H838a8.5,8.5,0,0,1-8.51-8.5V387.82a8.5,8.5,0,0,1,8.51-8.5h2.31a8.22,8.22,0,0,1,2.05.25,16.61,16.61,0,0,1,4.49-.6c5.61,0,9.06,2.17,11,4s4.34,5.4,4.34,11.37v12.22a8.5,8.5,0,0,1-8.51,8.5Z" transform="translate(-22.14 -13.52)"/><path class="cls-4" d="M884.59,415.05a8.49,8.49,0,0,1-5.86-2.34,8.49,8.49,0,0,1-5.87,2.34H870a8.49,8.49,0,0,1-8.5-8.5v-25a8.5,8.5,0,0,1,8.5-8.5h2.9a8.49,8.49,0,0,1,5.67,2.16,8.53,8.53,0,0,1,5.66-2.16h3.44a8.5,8.5,0,0,1,6.24,14.28L888.6,393l6.25,8.47A8.5,8.5,0,0,1,888,415.05Z" transform="translate(-22.14 -13.52)"/><path class="cls-4" d="M899,415.4a16.85,16.85,0,0,1-8.87-2.42,16.12,16.12,0,0,1-6.26-7,20.25,20.25,0,0,1-1.9-8.84c0-5.2,1.5-9.51,4.46-12.81a17.43,17.43,0,0,1,25.3.1,18.5,18.5,0,0,1,4.45,12.71c0,5.2-1.5,9.52-4.48,12.83A16.44,16.44,0,0,1,899,415.4Z" transform="translate(-22.14 -13.52)"/><path class="cls-4" d="M920.62,415.4a16.88,16.88,0,0,1-8.87-2.42,16.12,16.12,0,0,1-6.26-7,20.25,20.25,0,0,1-1.9-8.84c0-5.2,1.5-9.51,4.46-12.81a17.43,17.43,0,0,1,25.3.1,18.51,18.51,0,0,1,4.46,12.71c0,5.2-1.51,9.52-4.49,12.83A16.44,16.44,0,0,1,920.62,415.4Z" transform="translate(-22.14 -13.52)"/><path class="cls-4" d="M934.77,423.46a8.51,8.51,0,0,1-8.51-8.5V387.82a8.5,8.5,0,0,1,8.51-8.5h2.3a8.5,8.5,0,0,1,2,.23,17,17,0,0,1,4.44-.58,15.48,15.48,0,0,1,12.41,5.76c2.57,3.23,3.87,7.42,3.87,12.44s-1.32,9.26-3.94,12.5a15.22,15.22,0,0,1-9.72,5.53,8.5,8.5,0,0,1-8.5,8.26Z" transform="translate(-22.14 -13.52)"/><path class="cls-4" d="M964.61,415.4a17,17,0,0,1-12.72-5.18c-2.16-2.28-4.74-6.36-4.74-12.88a19.11,19.11,0,0,1,4.22-12.65A15.78,15.78,0,0,1,963.88,379a15.47,15.47,0,0,1,11.94,5.18A17.28,17.28,0,0,1,980,395.9v1.8a8.54,8.54,0,0,1-1,3.9,8.85,8.85,0,0,1,.14,1.55v2.53a8.52,8.52,0,0,1-5.13,7.81,23.63,23.63,0,0,1-4.47,1.44A24.18,24.18,0,0,1,964.61,415.4Z" transform="translate(-22.14 -13.52)"/><path class="cls-4" d="M976.83,415.05a8.5,8.5,0,0,1-8.51-8.5V387.82a8.5,8.5,0,0,1,8.51-8.5h2.34a8.57,8.57,0,0,1,2.1.26,14.13,14.13,0,0,1,4.1-.61,19.23,19.23,0,0,1,4,.39,8.5,8.5,0,0,1,6.68,9.58l-.39,2.63a8.52,8.52,0,0,1-7.46,7.2v7.78a8.5,8.5,0,0,1-8.5,8.5Z" transform="translate(-22.14 -13.52)"/><path class="cls-4" d="M996.15,415.4a14.58,14.58,0,0,1-10.08-3.65,13.54,13.54,0,0,1-4.37-10.38,14.27,14.27,0,0,1,2.94-8.53l-.22-.55a8.49,8.49,0,0,1,3.83-10.64,22.13,22.13,0,0,1,10.4-2.64c4.42,0,8,1.26,10.72,3.73,2,1.83,4.36,5.23,4.36,11v12.78a8.5,8.5,0,0,1-8.5,8.5h-2.11a8.4,8.4,0,0,1-2.13-.27A18.22,18.22,0,0,1,996.15,415.4Z" transform="translate(-22.14 -13.52)"/><path class="cls-4" d="M1017.2,415.4c-8.34,0-13.94-5.72-13.94-14.23v-4.95a8.47,8.47,0,0,1-2.68-6.2v-1.36a8.49,8.49,0,0,1,4.14-7.3l.09-.32A8.51,8.51,0,0,1,1013,375h1.64a8.5,8.5,0,0,1,7.56,4.61,8.52,8.52,0,0,1,6.38,8.24V390a8.49,8.49,0,0,1-3.74,7.05l.47.33a8.5,8.5,0,0,1,3.41,6.81v2.17a8.51,8.51,0,0,1-4.81,7.66,13.32,13.32,0,0,1-3.7,1.1A18.66,18.66,0,0,1,1017.2,415.4Z" transform="translate(-22.14 -13.52)"/><path class="cls-4" d="M1024.41,415.05a8.5,8.5,0,0,1-8.51-8.5V387.82a9.14,9.14,0,0,1,.21-1.9,11.42,11.42,0,0,1-.45-3.18,10.3,10.3,0,0,1,3.13-7.59,10.2,10.2,0,0,1,17.23,7.59,11.13,11.13,0,0,1-.47,3.24,8.64,8.64,0,0,1,.2,1.84v18.73a8.5,8.5,0,0,1-8.51,8.5Z" transform="translate(-22.14 -13.52)"/><path class="cls-4" d="M1041.23,415.4a16.84,16.84,0,0,1-8.86-2.42,16.08,16.08,0,0,1-6.27-7,20.25,20.25,0,0,1-1.9-8.84c0-5.2,1.5-9.51,4.46-12.81a17.44,17.44,0,0,1,25.31.1,18.55,18.55,0,0,1,4.45,12.71c0,5.2-1.51,9.52-4.48,12.83A16.48,16.48,0,0,1,1041.23,415.4Z" transform="translate(-22.14 -13.52)"/><path class="cls-4" d="M1068.2,415.05a8.54,8.54,0,0,0-10,0h-2.84a8.5,8.5,0,0,1-8.51-8.5V387.82a8.5,8.5,0,0,1,8.51-8.5h2.31a8.22,8.22,0,0,1,2,.25,16.61,16.61,0,0,1,4.49-.6c5.61,0,9.06,2.17,11,4s4.34,5.4,4.34,11.37v12.22a8.5,8.5,0,0,1-8.51,8.5Z" transform="translate(-22.14 -13.52)"/><path class="cls-4" d="M1110.81,415.05a8.52,8.52,0,0,0-9.11,0h-2.84a8.54,8.54,0,0,0-9.09,0h-2.84a8.5,8.5,0,0,1-8.5-8.5V387.82a8.5,8.5,0,0,1,8.5-8.5h2.31a8.67,8.67,0,0,1,1.91.21,15.86,15.86,0,0,1,4.22-.56,16.92,16.92,0,0,1,6.05,1.06,16.36,16.36,0,0,1,5.88-1.06,14.6,14.6,0,0,1,10.87,4.22c2.64,2.73,4,6.48,4,11.14v12.22a8.5,8.5,0,0,1-8.51,8.5Z" transform="translate(-22.14 -13.52)"/><path class="cls-4" d="M1120,415.05a8.49,8.49,0,0,1-8.5-8.5V387.82a8.51,8.51,0,0,1,.21-1.9,11.06,11.06,0,0,1-.45-3.18,10.3,10.3,0,0,1,3.13-7.59,10.19,10.19,0,0,1,17.22,7.59,11.13,11.13,0,0,1-.47,3.24,8.64,8.64,0,0,1,.2,1.84v18.73a8.5,8.5,0,0,1-8.5,8.5Z" transform="translate(-22.14 -13.52)"/><path class="cls-4" d="M1135,415.4c-8.34,0-13.94-5.72-13.94-14.23v-4.95a8.47,8.47,0,0,1-2.68-6.2v-1.36a8.51,8.51,0,0,1,4.14-7.3l.1-.32a8.5,8.5,0,0,1,8.14-6.07h1.64a8.53,8.53,0,0,1,7.57,4.61,8.52,8.52,0,0,1,6.37,8.24V390a8.49,8.49,0,0,1-3.74,7.05l.47.33a8.5,8.5,0,0,1,3.41,6.81v2.17a8.51,8.51,0,0,1-4.81,7.66,13.35,13.35,0,0,1-3.69,1.1A18.88,18.88,0,0,1,1135,415.4Z" transform="translate(-22.14 -13.52)"/><text class="cls-8" transform="translate(803.48 393.03)">in Kooperation mit</text></svg>