<?xml version="1.0" encoding="utf-8"?>
<!-- Generator: Adobe Illustrator 27.8.0, SVG Export Plug-In . SVG Version: 6.00 Build 0)  -->
<svg version="1.1" xmlns="http://www.w3.org/2000/svg" xmlns:xlink="http://www.w3.org/1999/xlink" x="0px" y="0px"
	 viewBox="0 0 595.3 595.3" style="enable-background:new 0 0 595.3 595.3;" xml:space="preserve">
<style type="text/css">
	.st0{fill:#74A97F;}
	.st1{fill:#FF99B4;}
	.st2{fill:#7A0000;}
	.st3{fill:#FFFFFF;}
	.st4{fill:#1D1D1B;}
	.st5{fill:none;stroke:#1D1D1B;stroke-width:2.8346;stroke-miterlimit:10;}
</style>
<g id="Ebene_2">
	<path class="st0" d="M180.5,197.5c3.4-2.2,5.4-6.2,5.4-10.2c0-0.5,0-1-0.1-1.5c-0.5-4.5-3.7-8.5-8-10l0,0
		c-20-7.3-35.9-22-44.9-41.3c-7.9-17-9.5-35.8-4.8-53.7c1.2-4.5,2.8-9,4.8-13.3c7.9-17.2,21.5-30.8,38.8-38.9
		c17.1-8,36.1-9.6,54.1-4.7c4.2,1.1,8.4,2.6,12.4,4.5c17.3,7.9,31.2,21.5,39.3,39c7.9,17,9.5,35.8,4.8,53.7
		c-2,7.6-5.2,15.1-9.6,22.1l0,0c-1.2,1.9-1.9,4.2-1.9,6.5c0,2.2,0.6,4.4,1.8,6.3c2.3,3.9,6.9,6.3,11.4,6l0,0
		c7.8-0.5,15.7-0.6,23.6-0.2h0c4.2,0.2,8.6-2,10.8-5.5c1.3-2,2-4.4,2-6.8c0-1.9-0.4-3.7-1.2-5.3l0,0c0,0,0-0.1-0.1-0.1
		c-2.1-4.3-3.8-8.7-5.1-13.2c-6.1-20-5-41.2,3.2-60.7c8.9-21,25-37.6,45.8-46.9c11.1-5,23-7.7,34.9-7.9c11.4-0.2,22.9,1.7,33.8,5.9
		c11.3,4.3,21.4,10.7,30,18.9c8.4,8,15.1,17.5,19.9,28.3c4.8,10.7,7.4,22.1,7.8,33.6c0.4,11.9-1.6,23.8-6,35.1
		c-4.3,11.2-10.6,21.2-18.7,29.6c-8.6,9.1-19.2,16.3-31.1,21.2l0,0c-3.9,1.5-6.9,5.4-7.5,9.6c-0.1,0.6-0.1,1.2-0.1,1.8
		c0,3.6,1.7,7.3,4.5,9.6l0,0c0,0,0.1,0,0.1,0.1c0,0,0,0,0,0c0,0,0,0,0.1,0c0,0,0,0,0,0c0,0,0.1,0,0.1,0.1c0,0,0,0,0,0
		c0,0,0,0,0.1,0.1c0,0,0,0,0,0c19.6,16.1,35.6,35.1,47.7,55.9c25.8,43.9,34.7,95.1,24.9,145.5c-9.3,48-34.4,90.4-71.5,121.2
		c-9.7,8.1-19.9,15.1-30.6,21.2c-32.3,18.4-67.9,27.3-103.1,27.3c-3.1,0-6.2-0.1-9.2-0.2c-38.5-1.6-76.9-13.8-110.4-37
		c-10.1-7-19.8-15-28.7-23.9c-22-21.9-38.6-48-49-76.8c-9.4-25.8-13.6-53.2-12.3-80.9c1.2-27.5,7.8-54.3,19.4-79.1
		C123.8,248.3,148.6,219.1,180.5,197.5L180.5,197.5C180.5,197.5,180.5,197.5,180.5,197.5L180.5,197.5z"/>
	<path class="st1" d="M305.5,424.7c49.7-2.5,110,5.8,114.6,29.4c4.2,21.5-46.3,51.4-110.4,55.9s-110.7-22-114.4-43.5
		C191.8,445,241.9,427.9,305.5,424.7z"/>
	<path class="st2" d="M239.1,496.3c0,0,63.8-44.1,151.6-13l4.6,1.5c-23,17.4-60.1,24.2-84.5,25.2c-22.3,1-49.6,0.4-76.1-10.7
		L239.1,496.3z"/>
	<path class="st3" d="M363.1,157.3c0,0-11.9-15.8-6.8-57c3.2-25.6,32.2-50,59.3-42.9s32.2,39,28.2,56.5s-23.2,42.9-40.4,55.9
		L363.1,157.3z"/>
	<path class="st3" d="M245.6,159.2c0,0,11.9-15.8,6.8-57.1c-3.2-25.6-32.2-49.8-59.4-42.7s-32.2,38.7-28.3,56.3
		c4,17.5,23.2,43,40.4,56L245.6,159.2z"/>
</g>
<g id="Ebene_3">
	<g>
		<path class="st4" d="M180.4,197.3c7.7-5.2,6.6-17.2-2-20.9c-25.1-8.6-45-30.2-51.5-56c-11.8-45.2,18.4-91.6,64.4-99.7
			C261,9.1,311.5,84.2,274.5,144.3c-0.8,1-1.6,3.4-1.5,5.3c-0.2,6.2,5.7,10.6,10.5,10.2c5.1-0.4,10.2-0.5,15.4-0.5
			c2.5,0,5,0.1,7.5,0.2c0.9,0,2.4,0.1,3.3-0.1c5.2-0.8,9-5.8,8.4-11c-0.1-1.6-0.8-3.1-1.5-4.5c-10.1-21.3-11.5-46.6-3.7-68.9
			C334.5,12,414.5-7.5,462.7,38.3c48.2,45.8,32.6,126.4-28.6,150.9c-5.4,2-8.4,8.6-6.2,14c0.6,1.8,2.3,3.9,3.3,4.6
			c0,0-0.1-0.1-0.1-0.1l0,0c0,0,0.1,0.1,0.1,0.1l0.1,0.1c0,0-0.1-0.1,0,0l0.1,0.1l0.1,0.1c50.3,40.9,80.4,108.6,76.1,174.3
			C502.8,472,440,550.6,353.2,574.2c-78.2,22-164.3-4.3-216.5-66.6C55.6,412,76.1,266.1,180.4,197.3L180.4,197.3z M180.6,197.7
			c-104.2,71.4-122,220.2-35.7,313.6c105,112.9,291.5,78.7,347.8-65.4c32.7-84.2,5.6-180.9-63-235.8c-3-2.1-5.4-6.8-5.2-11
			c-0.1-5.4,4-10.8,8.5-12.5c37-14.7,59.9-55.2,53.6-94.4c-9.3-62.7-81.1-95.2-134.2-60.6c-33.2,20.9-48.5,65.2-35.1,102.1
			c1,2.8,2.1,5.7,3.4,8.4c2.5,4.5,2.7,10,0.2,14.5c-2.1,3.9-6.1,6.6-10.4,7.3c-3.9,0.4-7.7-0.2-11.5-0.1c-4.5-0.1-11.1,0.3-14.5,0.4
			c-5.4,0.6-10.9-2.3-13.7-7c-2.9-4.4-2.4-11.4,0.2-15.1c28.9-45.8,2.7-106.8-50.4-117.6c-45.4-9.5-89.7,23.6-93.7,69.8
			c-3.5,35,18.6,69.7,51.9,81.4C187.8,179.7,188.8,192.3,180.6,197.7L180.6,197.7z"/>
	</g>
	<g>
		<g>
			<path class="st4" d="M353.7,158.3c11.1-1.8,22.5-0.6,33.3,2.8c10.7,3.7,20.2,10.4,27.5,19c-9.2-5.9-18.5-11.5-28.8-15
				C375.3,161.8,364.6,159.9,353.7,158.3L353.7,158.3z"/>
		</g>
		<g>
			<path class="st4" d="M363.1,157.3c-9.8-15.1-10-38.2-8.4-55.6c2-22.6,20.9-42.3,43-46.8c27.8-5.1,46.9,14.9,49,41.5
				c1.3,12.3-1.9,23.9-8.1,34.4c-8.9,15.1-20.7,28.7-35,39c9-7.5,16.7-16.2,23.4-25.6c6.5-9.3,12.7-19.5,15.3-30.5
				c4.2-21.1-4.3-48.7-27.4-54.2c-24.9-6.1-51.2,14.4-56.6,38.5C355.4,115.9,354.1,140.8,363.1,157.3L363.1,157.3z"/>
		</g>
		<g>
			<path class="st4" d="M364.1,158.7c0,0-12.9-14.5-7.8-58.4c2.5-21.7,20.9-35,38.4-30.1c22.9,6.5,21.2,30.4,17.2,47.9
				s-11.3,35.2-21.5,46.3L364.1,158.7z"/>
			<path class="st4" d="M364.1,158.7c-10.5-13.8-11-37.8-9.7-54.6c0.5-14.9,8-29.5,22.4-35.1c14.1-5.7,32.6,1.2,37.4,16.1
				c7.8,21.4-7.4,64-23,79.8c0,0-0.4,0.4-0.4,0.4l-0.5-0.1C382.7,163.2,371.6,160.7,364.1,158.7L364.1,158.7z M364.1,158.7
				c7.8,1.4,18.8,3.3,26.6,4.7c0,0-0.9,0.3-0.9,0.3c5.9-7,10.2-15.3,13.7-23.9c6.3-16.8,16.6-50.7-0.6-63.4
				c-15.8-11.5-36-2.7-42.6,14.8c-1.7,4.2-2.4,8.6-2.9,13.2C355.8,121.3,354.8,143.8,364.1,158.7L364.1,158.7z"/>
		</g>
	</g>
	<g>
		<g>
			<path class="st4" d="M255,160.3c-10.9,1.6-21.6,3.5-32,6.9c-10.3,3.5-19.6,9.2-28.8,15c7.2-8.6,16.8-15.4,27.5-19.1
				C232.4,159.7,243.9,158.5,255,160.3L255,160.3z"/>
		</g>
		<g>
			<path class="st4" d="M245.6,159.2c9-16.5,7.7-41.3,4.9-59.5c-5.4-24.2-31.7-44.4-56.7-38.3c-23.1,5.5-31.7,33-27.4,54.1
				c2.6,11.1,8.8,21.2,15.3,30.5c6.7,9.4,14.5,18.2,23.4,25.6c-14.2-10.3-26-23.9-35-39c-6.3-10.5-9.5-22.1-8.2-34.3
				c2-26.7,21.3-46.5,49-41.5c22.1,4.4,41.1,24.1,43,46.7C255.6,121.1,255.3,144.1,245.6,159.2L245.6,159.2z"/>
		</g>
		<g>
			<path class="st4" d="M244.6,160.6c0,0,12.9-14.5,7.8-58.5c-2.5-21.8-21.1-34.6-38.4-30.1c-23.1,6-21.2,30.4-17.2,47.9
				c4,17.5,11.4,35.2,21.5,46.4L244.6,160.6z"/>
			<path class="st4" d="M244.6,160.6c9.5-14.6,8.8-37.6,7.2-54.4c-0.5-4.6-1.1-9.1-2.9-13.4c-6.7-17.7-27.7-26.7-43.8-15.2
				c-14.7,11.4-9.1,35.7-4.9,51.2c3.8,13.3,9.4,26.5,18.4,37.1c0,0-0.6-0.2-0.6-0.2C225.9,164.1,236.8,162.1,244.6,160.6
				L244.6,160.6z M244.6,160.6c-7.7,2-18.8,4.4-26.6,6.3c-6.6-7-11.3-15.5-15.1-24.2c-8.4-20.5-20.3-60.1,7.1-70.9
				c17-6.8,35.3,3.6,41.2,20.2c1.7,4.5,2.3,9.3,2.7,14C255.1,123,255,146.4,244.6,160.6L244.6,160.6z"/>
		</g>
	</g>
	<g>
		<path class="st4" d="M346.3,327.2c-4.5,1.5-8.8,2.9-12.7,5.6c-5,3.3-8.6,7.9-12.1,12.9C321.5,333.6,334.6,323.5,346.3,327.2
			L346.3,327.2z"/>
	</g>
	<g>
		<path class="st4" d="M266.7,330.2c11.7-3.7,24.7,6.4,24.8,18.5c-3.5-5-7.1-9.5-12.1-12.9C275.6,333.1,271.2,331.7,266.7,330.2
			L266.7,330.2z"/>
	</g>
	<path class="st5" d="M305.5,424.7c49.7-2.5,110,5.8,114.6,29.4c4.2,21.5-46.3,51.4-110.4,55.9s-110.7-22-114.4-43.5
		C191.8,445,241.9,427.9,305.5,424.7z"/>
	<g>
		<path class="st4" d="M239.1,496.3c32.5-22.9,74.8-30.2,113.7-24c13,2.2,25.8,5.8,37.9,11c-25.1-7-51.1-10.7-77.2-8.4
			C287.7,477,262,484,239.1,496.3L239.1,496.3z"/>
	</g>
</g>
</svg>
