<?xml version="1.0" encoding="UTF-8" standalone="no"?>
<!-- Created with Inkscape (http://www.inkscape.org/) -->

<svg
   xmlns:dc="http://purl.org/dc/elements/1.1/"
   xmlns:cc="http://creativecommons.org/ns#"
   xmlns:rdf="http://www.w3.org/1999/02/22-rdf-syntax-ns#"
   xmlns:svg="http://www.w3.org/2000/svg"
   xmlns="http://www.w3.org/2000/svg"
   xmlns:sodipodi="http://sodipodi.sourceforge.net/DTD/sodipodi-0.dtd"
   xmlns:inkscape="http://www.inkscape.org/namespaces/inkscape"
   version="1.1"
   id="svg61"
   width="33mm"
   height="30mm"
   viewBox="0 0 124.72441 113.38582"
   sodipodi:docname="logomono.svg"
   inkscape:export-filename="/home/mpe/development &amp; scripts/3D/Makerspace/Mitgliedsausweis/logomono.png"
   inkscape:export-xdpi="9.6000004"
   inkscape:export-ydpi="9.6000004"
   inkscape:version="0.92.3 (2405546, 2018-03-11)">
  <metadata
     id="metadata67">
    <rdf:RDF>
      <cc:Work
         rdf:about="">
        <dc:format>image/svg+xml</dc:format>
        <dc:type
           rdf:resource="http://purl.org/dc/dcmitype/StillImage" />
        <dc:title></dc:title>
      </cc:Work>
    </rdf:RDF>
  </metadata>
  <defs
     id="defs65" />
  <sodipodi:namedview
     pagecolor="#ffffff"
     bordercolor="#666666"
     borderopacity="1"
     objecttolerance="10"
     gridtolerance="10"
     guidetolerance="10"
     inkscape:pageopacity="0"
     inkscape:pageshadow="2"
     inkscape:window-width="1280"
     inkscape:window-height="736"
     id="namedview63"
     showgrid="true"
     inkscape:zoom="5.6681679"
     inkscape:cx="59.6118"
     inkscape:cy="58.786784"
     inkscape:window-x="0"
     inkscape:window-y="27"
     inkscape:window-maximized="1"
     inkscape:current-layer="svg61"
     units="mm">
    <inkscape:grid
       type="xygrid"
       id="grid15" />
  </sodipodi:namedview>
  <path
     style="fill:#000000;stroke-width:0.05705369"
     d="M -0.37795276,93.853027 V 73.564325 H 62.36219 125.10234 V 93.853027 114.14173 H 62.36219 -0.37795276 Z M 65.812898,113.96839 c 0.533293,-0.0362 1.109705,-0.0816 1.280936,-0.10278 l 0.311296,-0.0372 0.667611,-5.64036 c 0.367182,-3.10205 0.676254,-5.64832 0.686828,-5.65828 0.01066,-0.01 0.37856,-0.0724 0.817746,-0.13953 2.987568,-0.45481 6.781905,-1.4801 9.436346,-2.549891 0.264916,-0.106706 0.508744,-0.193078 0.541854,-0.191971 0.0331,0 0.291214,0.315591 0.573555,0.698732 0.282311,0.38323 1.810165,2.43422 3.395213,4.55789 l 2.881881,3.86128 1.025115,-0.4979 c 1.310454,-0.63642 2.775812,-1.43581 4.219148,-2.30155 1.279306,-0.76738 3.450716,-2.19674 3.450716,-2.27144 0,-0.0272 -0.991412,-2.3549 -2.203112,-5.173575 -1.211718,-2.818572 -2.214288,-5.164311 -2.22793,-5.212531 -0.0164,-0.05838 0.23074,-0.298074 0.734424,-0.712721 2.408116,-1.981728 4.798376,-4.384847 6.687003,-6.723036 0.30212,-0.374078 0.482003,-0.551655 0.541854,-0.534843 0.0493,0.0141 2.395068,1.017238 5.212888,2.229771 2.81782,1.212532 5.1445,2.204604 5.17041,2.204604 0.0484,0 1.33101,-1.911362 1.89565,-2.825014 0.93384,-1.51111 1.95099,-3.35734 2.70317,-4.906403 l 0.47027,-0.968516 -3.22918,-2.412984 -3.22916,-2.412884 h -8.909941 -8.909944 l -0.302936,0.413741 c -1.825578,2.493518 -4.037442,4.79587 -6.409652,6.671696 -3.55908,2.814545 -7.574017,4.843385 -11.959978,6.043737 -5.624765,1.539297 -11.775497,1.548055 -17.451721,0.02516 C 46.414762,87.451219 39.996467,83.076236 35.452886,76.975019 l -0.541874,-0.72762 h -8.907037 -8.907017 l -3.228077,2.412079 -3.228086,2.412179 0.49788,1.026399 c 0.636353,1.311791 1.435125,2.777902 2.300528,4.222371 0.764767,1.276456 2.195365,3.452774 2.269673,3.452774 0.02656,0 2.353236,-0.992072 5.170407,-2.204504 2.817181,-1.212432 5.161624,-2.215678 5.209895,-2.229268 0.05816,-0.0161 0.298116,0.231131 0.71217,0.734969 1.957965,2.382079 4.137867,4.563229 6.518508,6.522407 0.503433,0.414244 0.750884,0.654435 0.734475,0.712621 -0.01368,0.04832 -1.016171,2.394059 -2.227911,5.213034 -1.21176,2.81877 -2.203182,5.14689 -2.203182,5.17337 0,0.0746 2.176058,1.50538 3.450717,2.26934 1.467209,0.87942 2.92988,1.67801 4.219337,2.30385 l 1.025298,0.4976 3.05293,-4.08929 c 1.679116,-2.249 3.20689,-4.30149 3.395032,-4.56101 0.266396,-0.367335 0.367344,-0.466492 0.456168,-0.447869 0.06278,0.01308 0.588908,0.203952 1.169244,0.424109 2.583464,0.97949 5.61075,1.78331 8.453304,2.24477 1.103366,0.17909 1.124624,0.18513 1.15202,0.32948 0.0153,0.0806 0.315943,2.61251 0.667974,5.62587 0.35203,3.01336 0.654955,5.49641 0.673134,5.51795 0.03772,0.0443 1.257456,0.14678 2.599742,0.21764 1.154062,0.0614 4.600735,0.0262 5.87476,-0.0594 z M 63.816622,88.288465 c 7.756879,-0.401863 14.746927,-3.429721 20.299406,-8.793251 0.966703,-0.933887 2.885925,-3.072252 2.885925,-3.215501 0,-0.01812 -1.299206,-0.03322 -2.887142,-0.03322 h -2.887173 l -0.503423,0.479375 c -1.002278,0.954423 -2.239088,1.927268 -3.561062,2.801157 -5.405282,3.573271 -11.946145,5.06163 -18.422781,4.192171 -3.05115,-0.409715 -5.934007,-1.319945 -8.72181,-2.753844 -2.1413,-1.101396 -4.317168,-2.627605 -5.945488,-4.170124 l -0.579298,-0.548735 h -2.890434 c -1.747426,0 -2.882906,0.02114 -2.871407,0.05336 0.01046,0.0292 0.245741,0.325254 0.52286,0.65826 4.324985,5.197028 10.100747,8.840967 16.550059,10.441167 2.991582,0.742318 6.041928,1.043413 9.011768,0.889594 z M 55.977589,11.476626 c -0.002,0.01812 -0.305037,0.07852 -0.673638,0.135096 -3.140057,0.48159 -6.896355,1.490876 -9.593221,2.577675 -0.264896,0.106707 -0.508724,0.19318 -0.541834,0.191972 -0.0331,0 -0.3203,-0.354348 -0.638184,-0.784799 C 44.212826,13.166219 42.685054,11.115333 41.13565,9.0391794 L 38.318559,5.2642726 37.350326,5.7328769 c -1.527049,0.7390961 -3.381098,1.7610662 -4.90376,2.7031066 -0.935416,0.5788345 -2.823298,1.8489485 -2.823298,1.8993825 0,0.02718 0.991221,2.355504 2.202699,5.173572 1.211498,2.818069 2.214239,5.16401 2.228313,5.213135 0.0173,0.0604 -0.20261,0.275525 -0.676988,0.662589 -2.367592,1.931797 -4.693826,4.259416 -6.624446,6.62841 -0.3852,0.472631 -0.602148,0.694802 -0.662159,0.67789 -0.0491,-0.0141 -2.394726,-1.017138 -5.212541,-2.22967 -2.817825,-1.212431 -5.142469,-2.204503 -5.16588,-2.204503 -0.05644,0 -0.814738,1.113073 -1.555229,2.282822 -1.129242,1.783816 -2.161018,3.62743 -3.01785,5.392221 l -0.498302,1.026399 3.303401,2.469156 3.30339,2.469359 h 8.804922 8.804912 l 0.10135,-0.156939 c 0.215961,-0.334416 1.15528,-1.557317 1.675765,-2.181652 4.005499,-4.804931 9.314209,-8.42612 15.218297,-10.380768 3.037196,-1.005562 7.39223,-1.665223 10.675217,-1.791561 7.956128,-0.306329 15.719627,2.22947 21.978229,7.178756 2.391114,1.890825 3.304519,4.449568 5.036211,6.861345 l 0.338076,0.470819 h 8.797104 8.797111 l 3.30424,-2.469459 3.30424,-2.469559 -0.49774,-1.026098 c -0.63778,-1.31481 -1.43692,-2.781123 -2.30102,-4.222068 -0.76584,-1.277161 -2.19533,-3.452773 -2.26861,-3.452773 -0.0262,0 -2.35285,0.99197 -5.1703,2.204503 -2.8175,1.212532 -5.162176,2.215678 -5.210447,2.229268 -0.05815,0.0161 -0.298256,-0.231333 -0.71218,-0.734969 -1.957975,-2.38208 -4.137856,-4.563229 -6.518498,-6.522407 -0.503162,-0.414144 -0.750894,-0.654436 -0.734546,-0.712621 0.01358,-0.04832 1.016132,-2.394966 2.227922,-5.214947 1.21178,-2.81988 2.203242,-5.147902 2.203242,-5.17337 0,-0.07248 -2.19116,-1.5126211 -3.450716,-2.2674212 -1.46725,-0.8794257 -2.92988,-1.6781167 -4.219419,-2.3039625 L 86.405661,5.2632659 83.266883,9.4667116 c -1.72632,2.3118154 -3.254063,4.3631034 -3.394952,4.5583974 -0.140898,0.195294 -0.283276,0.355857 -0.316386,0.356763 -0.0331,0 -0.276948,-0.08556 -0.541854,-0.192475 -2.671091,-1.07643 -6.395578,-2.082495 -9.436346,-2.548985 -0.439195,-0.06744 -0.807799,-0.130927 -0.818852,-0.141538 m 0,0 c -0.0114,-0.01094 -0.320441,-2.5567375 -0.687261,-5.6582836 L 67.404285,0.2013333 67.06489,0.1600598 C 66.878226,0.1369064 66.379008,0.095633 65.955527,0.068453 65.495898,0.0382529 77.261677,0.0150995 95.143941,0.0100663 L 125.10236,-3.9653541e-7 V 20.260113 40.520326 H 62.362221 -0.37793263 V 20.260213 -4.3653542e-7 L 29.551968,0.01006626 c 18.018144,0.0100666 29.634794,0.0281867 29.188434,0.0583867 -0.407816,0.0281867 -0.89493,0.0694601 -1.08248,0.0916068 L 57.316917,0.20133326 56.648994,5.822873 c -0.367374,3.0917815 -0.669472,5.636039 -0.671405,5.653753 M 44.015006,37.290832 c 1.763864,-1.679325 3.871502,-3.146544 6.22695,-4.335017 3.859802,-1.947401 7.781538,-2.878871 12.120265,-2.878871 3.107902,0 5.881309,0.460551 8.785988,1.458965 3.56743,1.226323 7.0253,3.317375 9.643442,5.831732 l 0.550236,0.528501 2.887766,-0.0151 2.887756,-0.0151 -0.29721,-0.370957 C 85.751611,36.16125 83.999215,34.343609 82.752765,33.276137 78.089151,29.282279 72.408169,26.736516 66.451877,25.971246 64.917705,25.77414 64.022331,25.718874 62.362221,25.718874 c -2.096259,0 -3.847961,0.154725 -5.694917,0.502931 -7.293185,1.37511 -13.652454,5.130688 -18.460287,10.902223 -0.20918,0.251063 -0.431207,0.527091 -0.493372,0.613463 l -0.113041,0.15694 h 2.889879 2.889859 z"
     id="path118"
     inkscape:connector-curvature="0"
     inkscape:export-xdpi="299.72058"
     inkscape:export-ydpi="299.72058"
     sodipodi:nodetypes="ccccccccccccccccccccccscccccsscccccccccccccccccccsccccccscccccccccsccccccsscccccccsccccccccccccccsccccccsccccccccccccccccccccsccccccsccccccccccccccccccccccccccccccsccccccccsccccccc" />
</svg>
