<svg id="Logo_neu" xmlns="http://www.w3.org/2000/svg" viewBox="0 0 549.28 501.14"><defs><style>.cls-1{fill:#fdfeff;}.cls-2{fill:#1c1d1c;}</style></defs><title>Logo_mit_Kontur_sw</title><path class="cls-1" d="M562.22,184.07H505.79c2.77-2.08,5.54-4.14,8.26-6.17l6.91-5.16,1.52-1.12,7.21-5.31-4.05-8s-.38-.74-.71-1.45a252.51,252.51,0,0,0-20.29-35l-1.11-1.6-4.89-7.1-7.93,3.36-2,.84-11.42,4.92-11.17,4.81-12.27,5.28a202.31,202.31,0,0,0-23.55-23.56l2.36-5.49q6.26-14.58,12.5-29.16c.57-1.24.93-2.1,1-2.19l3.45-8.15L442.21,59l-1.67-1.13a245.28,245.28,0,0,0-34.15-19.77c-1.12-.53-1.95-1-1.95-1l-8.16-4.23L391,40.39s-.52.72-1.21,1.6c-.23.31-.42.57-.54.75L383.75,50q-8.29,11.12-16.6,22.22-4.39-1.58-8.75-2.9A195.88,195.88,0,0,0,335,63.66l-.15-1.21q-1.11-9.51-2.26-19l-.48-4.09c-.17-1.37-.33-2.74-.5-4.1-.38-3.17-.78-6.43-1.13-9.63-.07-.61-.2-1.67-.2-1.67l-1-8.56-8.59-.72-1.15-.11c-2.19-.26-4.29-.33-6.14-.39-1.12,0-2.19-.08-3.18-.15l-.47,0h-1.53c-1.71,0-3.45-.05-5.29-.11s-3.91-.13-6-.13h-.43c-3,0-6.07,0-9.48.24-1.3.1-2.59.15-4,.22-1.78.08-3.63.16-5.56.32l-1.42.14-8.37.84-1.06,8.34s-.11.87-.18,1.51c-.47,4.24-1,8.57-1.5,12.76q-.42,3.46-.83,6.93l-.22,1.86c-.64,5.48-1.3,11.09-1.94,16.7a212.58,212.58,0,0,0-32.23,8.64l-10-13.34L207,41.84l-1.23-1.64-5.25-7.06L192.63,37l-1.7.82A238.57,238.57,0,0,0,167.64,50.5c-2.32,1.44-4.57,2.93-6.74,4.36C159.24,56,157.68,57,156.09,58l-1.39.88-7.46,4.83,3.47,8.18,1.18,2.77,2.55,6,12.09,28.19A210.14,210.14,0,0,0,143,132.35l-9.37-4-25.47-10.94h0l0,0-1.94-.82-7.93-3.35-4.89,7.09-1.23,1.79a247.32,247.32,0,0,0-20,34.52l-.89,1.82-3.75,7.66,6.69,5.29,1.7,1.34.11.08.11.09,7,5.23,8,6H23.51V344.42H91.14l-4.73,3.52L76,355.7c-.86.65-1.52,1.13-1.55,1.15l-7.18,5.23,3.92,8s.39.8.89,1.86A250.83,250.83,0,0,0,90.44,404c.27.41.56.83.84,1.24l1,1.51.94,1.41,5,7.45,8.16-3.7,1.43-.64h0c.32-.14.63-.29.91-.43l6.29-2.7,28-12a201.37,201.37,0,0,0,23.54,23.55Q159.11,437,151.66,454.3c-.5,1.18-1,2.34-1,2.34l-3.15,7.74,6.8,4.86,2.12,1.49A250.06,250.06,0,0,0,190.6,490.5l.55.27.72.35.77.37,7.74,3.8,5.28-6.81c.16-.2.56-.73.89-1.19l.12-.18,0-.06a1.71,1.71,0,0,1,.11-.14l.39-.51,7.08-9.49,15.45-20.68A198,198,0,0,0,262,464.84l.36,3.11c1.36,11.5,2.76,23.39,4.09,35.08.07.56.16,1.42.16,1.43l1,8.93,9,.5,1.37.08c3.4.19,6.88.43,10.24.65l3.78.26.38,0h.39l13.66-.09h.32l.33,0,3.35-.23c2.91-.21,5.65-.41,8.41-.55l1.36,0,8.91-.32,1.19-8.83s.17-1.21.24-1.9c.3-2.72.64-5.5,1-8.19.21-1.77.43-3.54.64-5.31l1.62-14,1.23-10.59c1.71-.31,3.36-.65,4.91-1a196.22,196.22,0,0,0,27.32-7.66l3.25,4.34q9.67,13,19.37,25.94c.67.89,1.21,1.65,1.23,1.67l5.24,7.26,8-4,1.94-.93a253.2,253.2,0,0,0,34.34-19.87l1.9-1.3,6.94-4.83-3.17-7.83s-.46-1.13-.94-2.24l-8.16-19-6.78-15.77a203.88,203.88,0,0,0,23.56-23.55l11,4.74,23.81,10.24,2,.84,7.89,3.35,4.91-7,1.15-1.65a252.93,252.93,0,0,0,20.29-35c.34-.71.75-1.55.76-1.56l3.81-7.76-6.84-5.28s-.77-.6-1.68-1.28l-6.54-4.88-8.68-6.48h67V184.07Z" transform="translate(-23.51 -13.76)"/><path id="Zahnrad" class="cls-2" d="M160.44,67.77l1.33-.85c3.84-2.44,7.58-5,11.44-7.43a228.12,228.12,0,0,1,22.27-12.1l1.81-.88,1.24,1.66,26.25,35.15c.63.84,1.23,1.62,1.23,1.62s1-.34,1.83-.68A197.51,197.51,0,0,1,265,73.81c1.73-.32,3.48-.51,5.21-.77l1.32-.2s.1-.83.15-1.31c.93-8.41,1.92-16.82,2.91-25.24.78-6.58,1.6-13.16,2.34-19.75.06-.57.16-1.34.16-1.34l1.27-.12c3.12-.27,6.22-.3,9.33-.53s6.07-.21,9.08-.22c4.21,0,8.37.3,12.6.24,2.95.21,5.91.15,8.86.49.58.07,1.49.15,1.49.15l.19,1.59c.51,4.6,1.09,9.2,1.64,13.8.91,7.69,1.84,15.39,2.74,23.09.29,2.46.62,4.92.8,7.38.05.69.19,1.83.19,1.83l1.85.26a175.5,175.5,0,0,1,28.18,6.32q6.85,2.08,13.51,4.72l2,.79s.58-.73,1.32-1.72Q385,66.1,397.81,48.89c.09-.13.17-.27.27-.39.86-1.1,1.49-2,1.49-2s1,.5,2.3,1.14a232.38,232.38,0,0,1,32.67,18.92c1.15.79,1.89,1.27,1.89,1.27s-.35.84-.91,2q-8.56,20-17.16,40c-.44,1-.88,2-.88,2s.86.72,1.73,1.42a190.86,190.86,0,0,1,30.13,30.14l.15.18,1.26,1.54,1.81-.77,17.77-7.63,22.59-9.74,1.91-.81s.56.82,1.13,1.63a240.2,240.2,0,0,1,19.43,33.53c.39.83.82,1.67.82,1.67l-1.58,1.17q-12.48,9.33-25,18.66c-.5.39-1.46,1.08-1.46,1.08h-1.83q-35,0-70.07,0h-2.12L413,182.32A140.46,140.46,0,0,0,347.15,132a140.7,140.7,0,0,0-163,49.95,4.42,4.42,0,0,1-4.12,2.06q-34.56-.09-69.11,0l-2.29,0-1.87-1.35c-8.09-6.11-16.25-12.16-24.38-18.23l-1.7-1.34.92-1.87a236.66,236.66,0,0,1,19.18-33.12l1.24-1.79,1.94.82,40.15,17.25,2,.84s.71-.85,1.4-1.72a196.93,196.93,0,0,1,30.32-30.29l1.53-1.22s-.39-.95-.77-1.84l-17-39.58ZM318.23,503.44l1.51-.06s.14-1.05.2-1.65c.5-4.52,1.08-9,1.61-13.56q1.77-15.12,3.53-30.24c.14-1.22.29-2.29.29-2.29s1.27-.2,2.24-.33c3.4-.44,6.76-1.11,10.12-1.78a187.15,187.15,0,0,0,31.54-9.4l1.59-.62a11.29,11.29,0,0,1,1,1.31,7.3,7.3,0,0,0,.57.77q12.92,17.3,25.83,34.58c.74,1,1.34,1.83,1.34,1.83l2.08-1a242,242,0,0,0,32.9-19l1.85-1.28s-.42-1-.85-2l-17.29-40.23c-.4-.93-.77-1.88-.77-1.88l1.52-1.21a193.4,193.4,0,0,0,30.48-30.46c.62-.79,1.26-1.55,1.26-1.55l2,.84,40.16,17.26c.93.41,1.92.82,1.92.82l1.13-1.61a242.79,242.79,0,0,0,19.43-33.53l.81-1.67-1.55-1.18c-8-6-16-11.93-24-17.95-.6-.45-1.76-1.29-1.76-1.29s-1.41,0-2.18,0q-35.27.06-70.54,0c-.78,0-2.27,0-2.27,0s-.9,1.15-1.44,1.89a140.71,140.71,0,0,1-228.1,0c-.51-.71-1.41-1.86-1.41-1.86s-1.49,0-2.32,0q-35.26.09-70.54,0c-.73,0-2.11,0-2.11,0l-1.62,1.2c-8,6-16,12-24,18L80.7,365.4l1,2a237.81,237.81,0,0,0,17.56,30.75l1.88,2.77.94,1.41,1.54-.69.75-.37q20.09-8.62,40.11-17.23l1.74-.75.85,1.07a188.89,188.89,0,0,0,31.3,31.32l1.15.91s-.35.81-.59,1.26-.4.87-.59,1.31q-8.46,19.67-16.91,39.34c-.47,1.08-.9,2.15-.9,2.15l2,1.4A237.39,237.39,0,0,0,195.15,481l1.29.62.86.42s.38-.48.58-.78.57-.77.86-1.15l26-34.77c.69-.91,1.34-1.79,1.34-1.79l2.12.84.22.1a186.45,186.45,0,0,0,41,10.87l2.05.31s.16,1.05.29,2.17c.08.8.24,1.58.33,2.37,1.64,13.89,3.29,27.77,4.87,41.67.06.59.16,1.49.16,1.49l1.39.08c4.71.27,9.41.61,14.11.92l13.66-.1C310.25,504,314.24,503.64,318.23,503.44ZM195,184c7.36,0,14.72,0,22.08,0h1.33s1-.92,1.36-1.26a101.29,101.29,0,0,1,9.8-8.46,112.41,112.41,0,0,1,60.84-23,112.83,112.83,0,0,1,86.68,31.5l1.32,1.24H380c7-.06,13.94,0,21,0h1.7C350.64,115.79,246,115.9,194.19,184A6.12,6.12,0,0,0,195,184ZM308.24,395.67a129.06,129.06,0,0,0,64.63-22.75A133.48,133.48,0,0,0,402.49,345h-1.23c-7.36,0-14.72,0-22.07,0l-1.29,0s-.68.6-1,.94c-1.75,1.65-3.51,3.28-5.34,4.83A112.44,112.44,0,0,1,310,377a109.94,109.94,0,0,1-25.12-.27,112.9,112.9,0,0,1-28.17-7.12,111.46,111.46,0,0,1-36.25-23.22C220,345.88,219,345,219,345s-1.24-.05-1.94,0c-2.79.1-5.59,0-8.39,0h-14C215.78,373.36,256.8,399.41,308.24,395.67Z" transform="translate(-23.51 -13.76)"/><path id="Box" class="cls-2" d="M34.08,194.64v139.2H562.22V194.64Zm324,66.25H50.33v-50.4H358.11Z" transform="translate(-23.51 -13.76)"/><path id="T" class="cls-1" d="M503.43,259.22v33.11a13.81,13.81,0,0,1,0,1.44c-.09,1,.26,1.54,1.34,1.84a10.32,10.32,0,0,1,4.92,3.28,11.36,11.36,0,1,1-19.56,10.36A11.12,11.12,0,0,1,497,295.84c1.45-.56,1.68-1.29,1.68-2.62q0-34.07,0-68.15c0-2.16.15-2.12-2.06-2.11-4.07,0-8.16,0-12.23,0a2.07,2.07,0,0,0-2.38,1.63A10.82,10.82,0,0,1,471.82,232c-5.82.35-10.67-3.8-11.73-9.8a11.36,11.36,0,0,1,21.65-6.11,2.73,2.73,0,0,0,3.06,2.07q16.44-.1,32.88,0a2.41,2.41,0,0,0,2.72-1.85,11.22,11.22,0,0,1,12.65-6.83,11.37,11.37,0,0,1,0,22.34A11.51,11.51,0,0,1,520.35,225c-.85-2.08-.85-2.08-3-2.08-4,0-8,0-12,0-1.94,0-2,0-2,1.95Q503.43,242.06,503.43,259.22Zm-23-38.48a9,9,0,1,0-9.09,8.94A9,9,0,0,0,480.4,220.74Zm59.52,0a9,9,0,1,0-9.07,9A9,9,0,0,0,539.92,220.71Zm-47.84,85.7a9,9,0,1,0,9-9.05A9.05,9.05,0,0,0,492.08,306.41Z" transform="translate(-23.51 -13.76)"/><path id="G" class="cls-1" d="M444.87,278.05a2.74,2.74,0,0,1-1.08,1.62c-3.67,3.67-7.39,7.3-11,11a4.16,4.16,0,0,1-3.37,1.36c-4.48-.07-8.95,0-13.43,0-2.53,0-2.77-.25-2.78-2.74,0-3,0-5.92,0-8.88,0-2,.3-2.28,2.16-2.34h7v5.86h2.15v-5.86h4.75v5.87h2.15v-5.87ZM415.64,311a.91.91,0,0,1,.16-1.43l30.11-29.94c.34-.34.67-.68,1-1a1.5,1.5,0,0,1,2.33,0c2.05,2,4.11,4,6.09,6.12,1,1,.9,1.49-.23,2.64l-10.34,10.41-3.58-3.58-1.11,1.1,3.6,3.57-3,2.94-3.57-3.54-1.1,1.11,3.56,3.56-3,2.93-3.53-3.54-1.1,1.11,3.56,3.53-2.95,2.9-3.54-3.5-1.11,1.1,3.57,3.53-2.88,2.82-3.54-3.5-1.1,1.1,3.55,3.56-3.82,4.08Zm30.8-25.41a1.84,1.84,0,1,0,1.83-1.78A1.83,1.83,0,0,0,446.44,285.57Zm-25.21,35.7c-2,2.05-4,4.11-6.12,6.09-1,1-1.5.89-2.65-.23l-10.27-10.48,3.45-3.45-1.11-1.1-3.43,3.43-2.94-3,3.4-3.41-1.1-1.1-3.4,3.4-2.93-3,3.37-3.37-1.1-1.1L393,307.31l-2.9-2.95,3.33-3.33-1.1-1.1-3.32,3.31-2.82-2.88,3.29-3.28L388.41,296l-3.27,3.28-.1-.1-5.9-6.21c1.4,0,2.9,0,4.4,0,2.14,0,3.24-1.1,3.31-3.2,0-1.58,0-3.15,0-4.81,1,.12,1.29.75,1.71,1.17q15.84,15.9,31.64,31.81c.34.34.69.68,1,1A1.52,1.52,0,0,1,421.23,321.27Zm-7-2.82a1.84,1.84,0,0,0,0,3.67,1.86,1.86,0,0,0,1.77-1.85A1.83,1.83,0,0,0,414.27,318.45Zm-28.82-51.71q0,10.8,0,21.59c0,2.76-.2,3-3,3-2.24,0-4.48,0-6.71-.05-1.75,0-2.06-.28-2.08-1.87V276.46h6V274h-6v-5.79h6v-2.5h-6v-5.2h6V258h-6V244c0-1.52.52-2,2.07-2,2.48,0,5,0,7.43,0,2.11,0,2.29.2,2.3,2.37Q385.47,255.59,385.45,266.74Zm-3.88,19.32a2,2,0,0,0-2-2.16,2,2,0,0,0-1.94,2,1.82,1.82,0,0,0,1.87,2A2,2,0,0,0,381.57,286.06Zm.18-38.46a2.09,2.09,0,0,0-1.86-2.08,2,2,0,0,0-2.16,2,2.07,2.07,0,0,0,1.82,2.12A2.2,2.2,0,0,0,381.75,247.6ZM421,214.7c-.33.35-.68.68-1,1q-15.81,15.92-31.64,31.81c-.42.42-.72,1.05-1.71,1.17,0-1.66,0-3.23,0-4.8-.07-2.11-1.17-3.17-3.31-3.21-1.5,0-3,0-4.4,0l5.91-6.21.09-.1,3.27,3.28,1.11-1.11L386,233.27l2.82-2.88,3.32,3.32,1.1-1.11-3.32-3.32,2.89-3,3.36,3.35,1.1-1.1-3.36-3.37,2.93-3,3.39,3.39,1.1-1.1-3.4-3.41,2.94-3,3.44,3.44,1.1-1.11L401.92,217,412.2,206.5c1.15-1.12,1.62-1.19,2.64-.22,2.09,2,4.1,4,6.12,6.09A1.51,1.51,0,0,1,421,214.7Zm-5.19-1.34a1.77,1.77,0,1,0-1.78,1.83A1.85,1.85,0,0,0,415.78,213.36Z" transform="translate(-23.51 -13.76)"/><path class="cls-2" d="M87.73,216.73v37.15H78.22v-13l-4.87,13H67.58l-5-13.38v13.38H53.11V216.73h9.13l8.23,21.57,8.28-21.57Z" transform="translate(-23.51 -13.76)"/><path class="cls-2" d="M115.35,253.88l-3.58-9.79H104l-3.52,9.79H90.29l11.65-37.15h12l11.64,37.15Z" transform="translate(-23.51 -13.76)"/><path class="cls-2" d="M154.53,216.73l-14.8,18.62,14.74,18.53H143.36l-6.41-8v8h-9V216.73h9v8.64l6.46-8.64Z" transform="translate(-23.51 -13.76)"/><path class="cls-2" d="M182,225.12H166.57v6h11.32v8.39H166.57v6H182v8.39H157.59V216.73H182Z" transform="translate(-23.51 -13.76)"/><path class="cls-2" d="M200,253.88l-5.34-12.09h-.11v12.09h-9V216.73h12.13a14.45,14.45,0,0,1,5.68,1,9.58,9.58,0,0,1,3.64,2.6,9.77,9.77,0,0,1,1.95,3.79,17.5,17.5,0,0,1,.59,4.57,10.65,10.65,0,0,1-.89,4.45,12.56,12.56,0,0,1-2.08,3.27,9.55,9.55,0,0,1-2.43,2,4.46,4.46,0,0,1-1.92.68l8.06,14.83Z" transform="translate(-23.51 -13.76)"/><path class="cls-2" d="M239.08,245.24a7,7,0,0,1-1.1,3.37,9.21,9.21,0,0,1-2.72,2.74,14,14,0,0,1-4.2,1.85,20.93,20.93,0,0,1-5.55.68,16.51,16.51,0,0,1-4.52-.6,14.38,14.38,0,0,1-3.82-1.7,11.25,11.25,0,0,1-2.91-2.67,10.05,10.05,0,0,1-1.73-3.57l8.54-3.35c-.07,0,0,.27.25.7a7.57,7.57,0,0,0,1,1.38,7,7,0,0,0,1.58,1.29,2.89,2.89,0,0,0,2,.43,3.75,3.75,0,0,0,1.79-.75,2.25,2.25,0,0,0,.83-2,2.58,2.58,0,0,0-.72-1.57,10.21,10.21,0,0,0-1.9-1.52c-1.81-1.13-3.5-2.13-5-3a27.74,27.74,0,0,1-4.06-2.68,11.13,11.13,0,0,1-2.72-3.14,8.84,8.84,0,0,1-1-4.4,8.43,8.43,0,0,1,1.07-4.29,9.72,9.72,0,0,1,2.83-3.09,13,13,0,0,1,4.06-1.9,18.82,18.82,0,0,1,4.76-.7,15.81,15.81,0,0,1,5.15.77,12.83,12.83,0,0,1,3.74,2,9,9,0,0,1,2.38,2.72,9.61,9.61,0,0,1,1.12,3l-7.85,2.89a9.5,9.5,0,0,0-.48-1.22,4.81,4.81,0,0,0-.88-1.25,5.12,5.12,0,0,0-1.34-1,3.81,3.81,0,0,0-1.79-.4,3.35,3.35,0,0,0-2,.62,2.27,2.27,0,0,0,0,3.55,28.59,28.59,0,0,0,2.59,1.92c1.64.87,3.21,1.73,4.73,2.6a21.42,21.42,0,0,1,4,2.94,13.7,13.7,0,0,1,2.83,3.72,10.63,10.63,0,0,1,1.07,4.92Z" transform="translate(-23.51 -13.76)"/><path class="cls-2" d="M253.93,216.73a12.06,12.06,0,0,1,4.64.85,9.83,9.83,0,0,1,3.56,2.42,11,11,0,0,1,2.27,3.79,14.72,14.72,0,0,1,.8,5,14.35,14.35,0,0,1-.8,4.9,11.36,11.36,0,0,1-2.27,3.79,10,10,0,0,1-3.56,2.47,11.88,11.88,0,0,1-4.64.87h-3v13.09H241.8V216.73h12.13Z" transform="translate(-23.51 -13.76)"/><path class="cls-2" d="M288.84,253.88l-3.58-9.79h-7.74L274,253.88h-10.2l11.64-37.15h12l11.65,37.15Z" transform="translate(-23.51 -13.76)"/><path class="cls-2" d="M314.6,245.64a5.26,5.26,0,0,0,3.82-1.1,8.29,8.29,0,0,0,2.33-3l7.74,4.05c-.32.6-.77,1.36-1.36,2.29a12,12,0,0,1-2.48,2.75,14.53,14.53,0,0,1-4.09,2.32,16.81,16.81,0,0,1-6.12,1h-.05a17,17,0,0,1-6.81-1.2,12.21,12.21,0,0,1-4.49-3.22,12.75,12.75,0,0,1-2.54-4.7,24.23,24.23,0,0,1-1-5.56v-7.69a17.57,17.57,0,0,1,1-5.42,14.28,14.28,0,0,1,2.78-4.77A13.61,13.61,0,0,1,308,218a15.36,15.36,0,0,1,6.46-1.27h.06a16.47,16.47,0,0,1,5.61.85,14.1,14.1,0,0,1,4,2.19,11.83,11.83,0,0,1,2.72,3,16.74,16.74,0,0,1,1.63,3.4l-7.74,4a11.42,11.42,0,0,0-.88-1.85,7.75,7.75,0,0,0-1.37-1.7,6.68,6.68,0,0,0-1.81-1.19,4.62,4.62,0,0,0-2.14-.4,6.13,6.13,0,0,0-4.35,2,6.58,6.58,0,0,0-1.63,4.57V239a6.74,6.74,0,0,0,1.65,4.62A6.25,6.25,0,0,0,314.6,245.64Z" transform="translate(-23.51 -13.76)"/><path class="cls-2" d="M356,225.12H340.63v6H352v8.39H340.63v6H356v8.39H331.66V216.73H356Z" transform="translate(-23.51 -13.76)"/></svg>