<svg id="Logo_neu" xmlns="http://www.w3.org/2000/svg" viewBox="0 0 549.28 501.14"><defs><style>.cls-1{fill:#fdfeff;}.cls-2{fill:#1c1d1c;}</style></defs><title>Logo_mit_Kontur_sw</title><path id="Hintergrund" class="cls-1" d="M538.71,170.31H482.28l8.26-6.17,6.91-5.16,1.52-1.12,7.21-5.31-4.05-8s-.37-.74-.71-1.45a251.51,251.51,0,0,0-20.29-35c-.55-.8-1.1-1.6-1.11-1.6l-4.89-7.1-7.93,3.36-2,.84-11.42,4.92-11.17,4.81-12.27,5.28a201.62,201.62,0,0,0-23.56-23.56l2.36-5.49,12.51-29.16c.56-1.24.93-2.1,1-2.19l3.46-8.15-7.42-4.84L417,44.1a245.28,245.28,0,0,0-34.15-19.77c-1.12-.53-1.94-1-1.95-1l-8.16-4.23-5.33,7.49s-.51.72-1.2,1.6c-.24.31-.42.57-.54.75l-5.45,7.3Q351.94,47.4,343.64,58.5c-2.92-1-5.85-2-8.75-2.9a195.88,195.88,0,0,0-23.44-5.7l-.14-1.21q-1.12-9.51-2.26-19l-.49-4.09c-.16-1.37-.33-2.74-.5-4.1-.38-3.17-.77-6.43-1.13-9.63-.07-.61-.2-1.67-.2-1.67l-1-8.56L297.12.91,296,.8c-2.19-.26-4.28-.33-6.13-.39-1.13,0-2.2-.08-3.19-.15l-.46,0h-1.53c-1.72,0-3.46,0-5.3-.11s-3.91-.13-6-.13H273c-3,0-6.08,0-9.49.24-1.3.1-2.59.15-4,.22-1.78.08-3.63.16-5.56.32l-1.41.14-8.37.84-1.06,8.34s-.12.87-.19,1.51c-.47,4.24-1,8.57-1.5,12.76-.27,2.31-.55,4.62-.82,6.93l-.22,1.86c-.65,5.48-1.31,11.09-1.95,16.7a212.9,212.9,0,0,0-32.23,8.64l-10-13.34L183.49,28.08l-1.22-1.64L177,19.38l-7.9,3.88-1.7.82a239.74,239.74,0,0,0-23.29,12.66c-2.32,1.44-4.56,2.93-6.74,4.36-1.65,1.1-3.22,2.13-4.81,3.15l-1.38.89L123.73,50l3.47,8.18,1.18,2.77,2.55,6Q137,81,143,95.05a209.31,209.31,0,0,0-23.54,23.54l-9.37-4L84.65,103.63h0l0,0-2-.82-7.93-3.35-4.89,7.09-1.23,1.79a248.32,248.32,0,0,0-20,34.52l-.89,1.82L44,152.31l6.69,5.29,1.7,1.34.11.08.12.09,7,5.23,8,6H0V330.66H67.63l-4.72,3.52q-5.2,3.87-10.39,7.76L51,343.09l-7.19,5.23,3.92,8,.9,1.86a249.57,249.57,0,0,0,18.33,32.11l.84,1.24,1,1.51.95,1.41,5,7.45,8.16-3.7,1.43-.64h0c.33-.14.63-.29.92-.43l6.28-2.69,28-12A201.37,201.37,0,0,0,143,405.93l-14.88,34.61c-.51,1.18-1,2.34-1,2.34L124,450.62l6.8,4.86L133,457a249.35,249.35,0,0,0,34.14,19.77l.55.27.72.35.77.37,7.74,3.8,5.28-6.81c.16-.2.57-.73.89-1.19l.12-.18,0-.06.11-.14q.21-.25.39-.51l7.09-9.49,15.45-20.68a197.57,197.57,0,0,0,32.23,8.61l.37,3.11c1.35,11.5,2.75,23.39,4.08,35.08.07.56.16,1.42.16,1.43l1,8.93,9,.5,1.37.08c3.4.19,6.88.43,10.24.65l3.78.26.38,0h.39l13.66-.09h.33l.32,0,3.36-.23c2.9-.21,5.64-.41,8.41-.55l1.35-.05,8.91-.32,1.2-8.83s.16-1.21.24-1.9c.3-2.72.63-5.5,1-8.19.22-1.77.43-3.54.64-5.31l1.62-14q.63-5.3,1.24-10.59c1.71-.31,3.35-.65,4.9-1a196.35,196.35,0,0,0,27.33-7.66l3.24,4.34q9.67,13,19.37,25.94c.67.89,1.22,1.65,1.24,1.67l5.23,7.26,8-4,1.94-.93A253.3,253.3,0,0,0,417,456.92l1.89-1.3,6.95-4.83L422.69,443s-.46-1.13-.94-2.24l-8.16-19L406.82,406a205.48,205.48,0,0,0,23.56-23.55l11,4.74,23.82,10.24,2,.84,7.88,3.35,4.91-7,1.15-1.65a251.93,251.93,0,0,0,20.29-35c.34-.71.76-1.55.76-1.56l3.82-7.76-6.84-5.28L497.48,342l-6.55-4.88-8.68-6.48h67V170.31Z"/><path id="Zahnrad" class="cls-2" d="M136.94,54l1.32-.85c3.84-2.44,7.58-5,11.45-7.43A226.81,226.81,0,0,1,172,33.63l1.81-.88L175,34.41l26.26,35.15c.63.84,1.23,1.62,1.23,1.62s.94-.34,1.82-.68a197.61,197.61,0,0,1,37.19-10.45c1.72-.32,3.47-.51,5.21-.77l1.32-.2s.09-.83.14-1.31c.93-8.41,1.93-16.82,2.92-25.24.77-6.58,1.6-13.16,2.33-19.75.06-.57.16-1.34.16-1.34l1.27-.12c3.12-.27,6.23-.3,9.33-.53s6.07-.21,9.08-.22c4.22,0,8.37.3,12.61.24,2.94.21,5.9.15,8.85.49.58.07,1.5.15,1.5.15s.12,1,.18,1.59c.52,4.6,1.09,9.2,1.64,13.8q1.38,11.54,2.75,23.09c.29,2.46.61,4.92.79,7.38,0,.69.19,1.83.19,1.83l1.85.26a175.26,175.26,0,0,1,28.18,6.32q6.85,2.09,13.52,4.72l2,.79s.57-.73,1.31-1.72q12.86-17.18,25.69-34.38c.1-.13.17-.27.27-.39.86-1.1,1.49-2,1.49-2s1,.5,2.3,1.14A233.05,233.05,0,0,1,411,52.81c1.14.79,1.89,1.27,1.89,1.27s-.36.84-.91,2q-8.56,20-17.17,40c-.44,1-.88,2-.88,2s.86.72,1.73,1.42a190.44,190.44,0,0,1,30.13,30.14l.16.18,1.25,1.54,1.82-.77,17.77-7.63,22.59-9.74,1.9-.81,1.13,1.63a240.2,240.2,0,0,1,19.43,33.53c.4.83.82,1.67.82,1.67l-1.57,1.17q-12.5,9.33-25,18.66c-.51.39-1.46,1.08-1.46,1.08h-1.84q-35,0-70.07,0h-2.12l-1.21-1.71a140.46,140.46,0,0,0-65.83-50.3,140.72,140.72,0,0,0-163,50,4.41,4.41,0,0,1-4.12,2.06q-34.54-.09-69.11,0l-2.28,0-1.87-1.35c-8.1-6.11-16.25-12.16-24.38-18.23l-1.7-1.34.92-1.87A234.7,234.7,0,0,1,77.3,114.31l1.23-1.79,1.94.82,40.16,17.25,2,.84s.71-.85,1.4-1.72a196.55,196.55,0,0,1,30.33-30.29l1.53-1.22-.78-1.84-17-39.58ZM294.72,489.68l1.51-.06s.14-1.05.21-1.65c.5-4.52,1.08-9,1.61-13.56q1.77-15.12,3.52-30.24c.15-1.22.29-2.29.29-2.29s1.27-.2,2.24-.33c3.4-.44,6.76-1.11,10.12-1.78a187.15,187.15,0,0,0,31.54-9.4l1.59-.62a12.2,12.2,0,0,1,1,1.31,7.22,7.22,0,0,0,.56.77q12.92,17.3,25.83,34.58c.74,1,1.34,1.83,1.34,1.83l2.08-1a240.75,240.75,0,0,0,32.9-19c.94-.64,1.85-1.28,1.85-1.28s-.42-1-.85-2l-17.28-40.23c-.41-.93-.78-1.88-.78-1.88l1.52-1.21A193,193,0,0,0,426,371.11c.63-.79,1.26-1.55,1.26-1.55l2,.84,40.16,17.26,1.92.82,1.13-1.61a240.77,240.77,0,0,0,19.43-33.53l.81-1.67-1.54-1.18c-8-6-16-11.93-24-17.95-.6-.45-1.76-1.29-1.76-1.29s-1.41,0-2.17,0q-35.28.06-70.55,0c-.78,0-2.27,0-2.27,0s-.9,1.15-1.44,1.89a140.7,140.7,0,0,1-228.09,0c-.52-.71-1.41-1.86-1.41-1.86s-1.49,0-2.32,0q-35.28.09-70.55,0c-.73,0-2.11,0-2.11,0l-1.62,1.2c-8,6-16,11.95-24,17.95-1,.72-1.67,1.24-1.67,1.24s.41.83,1,2A237.74,237.74,0,0,0,75.7,384.37l1.88,2.77.94,1.41s.92-.42,1.55-.69l.74-.37q20.09-8.62,40.11-17.23l1.75-.75.85,1.07a188.89,188.89,0,0,0,31.3,31.32l1.14.91s-.35.81-.58,1.26-.4.87-.59,1.31l-16.92,39.34c-.46,1.08-.9,2.15-.9,2.15s1,.7,2,1.4a236.8,236.8,0,0,0,32.69,18.93l1.28.62.87.42s.37-.48.58-.78.57-.77.85-1.15l26-34.77,1.33-1.79,2.13.84.21.1a186.45,186.45,0,0,0,41,10.87l2.06.31s.15,1.05.28,2.17c.09.8.24,1.58.34,2.37,1.63,13.89,3.28,27.77,4.86,41.67.07.59.16,1.49.16,1.49l1.39.08c4.71.27,9.42.61,14.12.92l13.66-.1C286.74,490.2,290.73,489.88,294.72,489.68ZM171.52,170.22c7.36,0,14.71,0,22.07,0h1.33s1-.92,1.37-1.26a101.17,101.17,0,0,1,9.79-8.46,112.44,112.44,0,0,1,60.84-23A112.8,112.8,0,0,1,353.6,169l1.33,1.24h1.6c7-.06,13.93,0,21,0h1.69c-52.06-68.24-156.67-68.13-208.51,0A6.57,6.57,0,0,0,171.52,170.22ZM284.73,381.91a129.13,129.13,0,0,0,64.64-22.75A133.43,133.43,0,0,0,379,331.25h-1.23c-7.36,0-14.71,0-22.07,0l-1.28,0s-.68.6-1,.94c-1.74,1.65-3.5,3.28-5.34,4.83a112.44,112.44,0,0,1-61.54,26.19,109.94,109.94,0,0,1-25.12-.27,113,113,0,0,1-28.17-7.12,111.46,111.46,0,0,1-36.25-23.22c-.5-.48-1.44-1.35-1.44-1.35s-1.24-.05-1.93,0c-2.8.1-5.6,0-8.4,0h-14C192.28,359.6,233.29,385.65,284.73,381.91Z"/><path id="Box" class="cls-2" d="M10.57,180.88v139.2H538.71V180.88Zm328.18,65.47H23.36V196.73H338.75Z"/><path id="T" class="cls-1" d="M479.92,245.46v33.11c0,.48,0,1,0,1.44-.1,1,.25,1.54,1.33,1.84a10.35,10.35,0,0,1,4.93,3.28,11.33,11.33,0,0,1-9.85,18.74,11.31,11.31,0,0,1-2.85-21.79,2.29,2.29,0,0,0,1.69-2.62q0-34.06,0-68.15c0-2.16.15-2.12-2.06-2.11-4.08,0-8.16.05-12.24,0a2.06,2.06,0,0,0-2.37,1.64,10.84,10.84,0,0,1-10.16,7.47c-5.83.35-10.68-3.8-11.73-9.8a11.35,11.35,0,0,1,21.64-6.11,2.74,2.74,0,0,0,3.07,2.07q16.44-.1,32.87,0a2.42,2.42,0,0,0,2.73-1.85,11.2,11.2,0,0,1,12.64-6.83,11.37,11.37,0,0,1,0,22.34,11.5,11.5,0,0,1-12.68-6.82c-.86-2.08-.86-2.08-3-2.08h-12c-1.94,0-2,0-2,2Q479.92,228.3,479.92,245.46ZM456.9,207a9,9,0,1,0-9.1,8.94A9,9,0,0,0,456.9,207Zm59.52,0a9,9,0,1,0-9.07,9A9.05,9.05,0,0,0,516.42,207Zm-47.85,85.7a9,9,0,1,0,9-9A9.05,9.05,0,0,0,468.57,292.65Z"/><path id="G" class="cls-1" d="M421.36,264.29a2.77,2.77,0,0,1-1.07,1.62c-3.68,3.67-7.4,7.3-11,11a4.15,4.15,0,0,1-3.36,1.36c-4.48-.07-9,0-13.44,0-2.53,0-2.76-.25-2.78-2.74,0-3,0-5.92,0-8.88,0-2,.29-2.28,2.16-2.34h7v5.86H401V264.3h4.76v5.87H408v-5.87Zm-29.22,32.93a.91.91,0,0,1,.16-1.43c10.59-10.55,19.5-19.39,30.1-29.94l1-1a1.51,1.51,0,0,1,2.34,0c2.05,2,4.11,4,6.09,6.12,1,1,.89,1.49-.23,2.64L421.27,284l-3.58-3.58-1.1,1.1,3.6,3.57-3,2.94-3.58-3.54-1.1,1.11,3.56,3.56-3,2.93-3.53-3.54-1.1,1.11,3.57,3.53-3,2.9-3.54-3.5-1.1,1.1,3.56,3.53-2.88,2.83-3.53-3.51-1.11,1.1,3.56,3.56-3.83,4.08Zm30.8-25.41a1.84,1.84,0,0,0,3.67,0,1.86,1.86,0,0,0-1.85-1.77A1.83,1.83,0,0,0,422.94,271.81Zm-25.22,35.7c-2,2.05-4,4.11-6.12,6.09-1,1-1.49.89-2.64-.23l-10.28-10.48,3.45-3.45-1.1-1.1-3.44,3.43-2.94-3,3.41-3.41-1.11-1.1-3.39,3.4-2.93-3L374,291.3l-1.1-1.1-3.35,3.35-2.9-2.95,3.32-3.33-1.1-1.1-3.32,3.31-2.82-2.88,3.29-3.28-1.1-1.11-3.28,3.28-.09-.1-5.91-6.21c1.41,0,2.91,0,4.4,0,2.14,0,3.24-1.1,3.31-3.2.05-1.58,0-3.15,0-4.81,1,.12,1.29.75,1.72,1.17l31.64,31.81c.33.34.68.68,1,1A1.51,1.51,0,0,1,397.72,307.51Zm-7-2.82a1.84,1.84,0,0,0,0,3.67,1.86,1.86,0,0,0,1.77-1.85A1.83,1.83,0,0,0,390.76,304.69ZM362,253q0,10.8,0,21.59c0,2.76-.2,3-3,3-2.24,0-4.47,0-6.71-.05-1.75,0-2.06-.28-2.08-1.87V262.7h6v-2.51h-6V254.4h6v-2.5h-6v-5.2h6v-2.5h-6V230.27c0-1.52.52-2,2.08-2,2.47,0,4.95,0,7.43,0,2.1,0,2.29.2,2.29,2.37C362,238.11,362,245.55,362,253Zm-3.89,19.32a2,2,0,0,0-2-2.16,2,2,0,0,0-1.94,2,1.82,1.82,0,0,0,1.87,2A2,2,0,0,0,358.06,272.3Zm.18-38.46a2.07,2.07,0,0,0-1.85-2.08,2,2,0,0,0-2.17,2,2.07,2.07,0,0,0,1.82,2.12A2.19,2.19,0,0,0,358.24,233.84Zm39.22-32.9c-.33.35-.67.68-1,1q-15.82,15.91-31.64,31.81c-.42.42-.73,1-1.72,1.17,0-1.66,0-3.23,0-4.8-.06-2.11-1.17-3.17-3.3-3.21-1.5,0-3,0-4.41,0l5.91-6.21.09-.1,3.28,3.28,1.1-1.1-3.28-3.29,2.82-2.88,3.31,3.32,1.1-1.11-3.32-3.32,2.9-3,3.35,3.35,1.11-1.1-3.37-3.37,2.93-3,3.39,3.39,1.11-1.1-3.41-3.41,2.94-3,3.44,3.44,1.1-1.11-3.44-3.44,10.27-10.49c1.15-1.12,1.62-1.19,2.64-.22,2.09,2,4.1,4,6.12,6.09A1.5,1.5,0,0,1,397.46,200.94Zm-5.19-1.34a1.77,1.77,0,1,0-1.78,1.83A1.84,1.84,0,0,0,392.27,199.6Z"/><path id="Makerspace" class="cls-2" d="M64.22,203v37.15H54.71v-13l-4.86,13H44.08l-5-13.38v13.38H29.6V203h9.13L47,224.54,55.24,203Zm27.62,37.15-3.58-9.79H80.52L77,240.12H66.79L78.43,203h12l11.65,37.15ZM131,203l-14.8,18.62L131,240.12H119.85l-6.41-8v8h-9V203h9v8.64l6.47-8.64Zm27.43,8.39H143.06v6h11.33v8.39H143.06v6h15.39v8.39H134.09V203h24.36Zm18,28.76L171.11,228H171v12.09h-9V203h12.13a14.5,14.5,0,0,1,5.69,1,9.62,9.62,0,0,1,3.63,2.6,9.77,9.77,0,0,1,2,3.79,17.5,17.5,0,0,1,.59,4.57,10.81,10.81,0,0,1-.88,4.45,12.85,12.85,0,0,1-2.09,3.27,9.55,9.55,0,0,1-2.43,2,4.46,4.46,0,0,1-1.92.68l8.07,14.83Zm39.11-8.64a7,7,0,0,1-1.09,3.37,9.39,9.39,0,0,1-2.73,2.75,14.16,14.16,0,0,1-4.19,1.84,21,21,0,0,1-5.56.68,16.39,16.39,0,0,1-4.51-.6,14.24,14.24,0,0,1-3.82-1.7,11.25,11.25,0,0,1-2.91-2.67,10.24,10.24,0,0,1-1.74-3.57l8.55-3.35c-.07,0,0,.27.24.7a7.2,7.2,0,0,0,1,1.38,6.77,6.77,0,0,0,1.57,1.29,2.92,2.92,0,0,0,2,.43,3.79,3.79,0,0,0,1.79-.75,2.27,2.27,0,0,0,.82-2.05,2.47,2.47,0,0,0-.72-1.57,10.1,10.1,0,0,0-1.89-1.52c-1.82-1.13-3.5-2.13-5-3a26.7,26.7,0,0,1-4.06-2.68,11,11,0,0,1-2.73-3.14,8.84,8.84,0,0,1-1-4.4,8.43,8.43,0,0,1,1.07-4.29,9.83,9.83,0,0,1,2.83-3.09,13,13,0,0,1,4.06-1.9,18.88,18.88,0,0,1,4.76-.7,15.72,15.72,0,0,1,5.15.77,12.83,12.83,0,0,1,3.74,2,9,9,0,0,1,2.38,2.72,9.37,9.37,0,0,1,1.12,3l-7.85,2.89a9.5,9.5,0,0,0-.48-1.22,4.58,4.58,0,0,0-.88-1.25,5.12,5.12,0,0,0-1.34-1,3.78,3.78,0,0,0-1.79-.4,3.35,3.35,0,0,0-1.95.62,2.27,2.27,0,0,0-.05,3.55,28.59,28.59,0,0,0,2.59,1.92c1.64.87,3.21,1.73,4.73,2.6a21.1,21.1,0,0,1,4,2.94,13.5,13.5,0,0,1,2.83,3.72,10.51,10.51,0,0,1,1.07,4.92ZM230.42,203a12.15,12.15,0,0,1,4.65.85,9.8,9.8,0,0,1,3.55,2.42,10.83,10.83,0,0,1,2.27,3.79,14.72,14.72,0,0,1,.8,5,14.35,14.35,0,0,1-.8,4.9,11.2,11.2,0,0,1-2.27,3.79,9.92,9.92,0,0,1-3.55,2.47,12,12,0,0,1-4.65.87h-3v13.09h-9.14V203h12.13Zm34.92,37.15-3.58-9.79H254l-3.53,9.79h-10.2L251.93,203h12l11.65,37.15Zm25.76-8.24a5.28,5.28,0,0,0,3.82-1.1,8.27,8.27,0,0,0,2.32-3l7.75,4.05c-.32.6-.78,1.36-1.36,2.29a12,12,0,0,1-2.49,2.75,14.53,14.53,0,0,1-4.09,2.32,16.75,16.75,0,0,1-6.11,1h-.06a17.09,17.09,0,0,1-6.81-1.2,12.3,12.3,0,0,1-4.49-3.22,12.73,12.73,0,0,1-2.53-4.7,23.71,23.71,0,0,1-1-5.56V217.8a17.57,17.57,0,0,1,1-5.42,14.45,14.45,0,0,1,2.78-4.77,13.61,13.61,0,0,1,4.62-3.37,15.37,15.37,0,0,1,6.47-1.27H291a16.47,16.47,0,0,1,5.61.85,14,14,0,0,1,4,2.19,11.87,11.87,0,0,1,2.73,3.05,17.87,17.87,0,0,1,1.63,3.4l-7.75,4a10.64,10.64,0,0,0-.88-1.85A7.7,7.7,0,0,0,295,213a6.73,6.73,0,0,0-1.82-1.19,4.62,4.62,0,0,0-2.14-.4,6.17,6.17,0,0,0-4.35,2,6.58,6.58,0,0,0-1.63,4.57v7.24a6.7,6.7,0,0,0,1.66,4.62A6.21,6.21,0,0,0,291.1,231.88Zm41.41-20.52H317.13v6h11.32v8.39H317.13v6h15.38v8.39H308.15V203h24.36Z"/></svg>