<?xml version="1.0" encoding="utf-8"?>
<!-- Generator: Adobe Illustrator 23.0.3, SVG Export Plug-In . SVG Version: 6.00 Build 0)  -->
<svg version="1.1" xmlns="http://www.w3.org/2000/svg" xmlns:xlink="http://www.w3.org/1999/xlink" x="0px" y="0px"
	 viewBox="0 0 549.28 501.14" style="enable-background:new 0 0 549.28 501.14;" xml:space="preserve">
<style type="text/css">
	.st0{display:none;}
	.st1{display:inline;}
	.st2{fill:#1C1D1C;}
	.st3{fill:#FDFEFF;}
	.st4{fill:#A93031;}
</style>
<g id="Hintergrund" class="st0">
	<g class="st1">
		<rect x="-23.51" y="-13.76" class="st2" width="595.28" height="542.58"/>
	</g>
</g>
<g id="Logo_x5F_neu">
	<path id="Hintergrund_1_" class="st3" d="M538.71,170.31h-56.42c2.77-2.07,5.54-4.13,8.26-6.16c2.3-1.72,4.61-3.44,6.91-5.16
		c0.74-0.56,1.51-1.12,1.52-1.13l7.21-5.31l-4.05-7.99c-0.02-0.03-0.38-0.74-0.71-1.45c-5.92-12.38-12.74-24.15-20.28-35.01
		c-0.55-0.8-1.11-1.6-1.11-1.6l-4.89-7.09l-7.93,3.36c0,0-0.99,0.42-1.96,0.84c-3.81,1.64-7.61,3.28-11.42,4.92
		c-3.72,1.6-7.45,3.21-11.17,4.81c-4.09,1.76-8.18,3.52-12.27,5.27c-7.16-8.45-15.05-16.35-23.56-23.56l2.36-5.49
		c4.17-9.72,8.34-19.44,12.51-29.16c0.57-1.24,0.93-2.1,0.97-2.19l3.46-8.15l-7.41-4.84c-0.05-0.03-0.69-0.45-1.67-1.13
		c-11.15-7.68-22.64-14.33-34.15-19.77c-1.12-0.53-1.94-0.95-1.95-0.96l-8.16-4.23l-5.33,7.49c0,0-0.52,0.73-1.2,1.61
		c-0.24,0.3-0.42,0.57-0.54,0.75l-5.45,7.3c-5.53,7.41-11.07,14.82-16.61,22.23c-2.93-1.05-5.85-2.02-8.75-2.9
		c-8.32-2.53-16.04-4.41-23.44-5.7l-0.15-1.22c-0.75-6.34-1.5-12.67-2.26-19.01l-0.49-4.09c-0.16-1.37-0.33-2.73-0.49-4.1
		c-0.38-3.16-0.78-6.43-1.14-9.63c-0.07-0.61-0.19-1.67-0.19-1.67l-1.02-8.56l-8.59-0.72c-0.03,0-0.71-0.06-1.15-0.11
		c-2.19-0.26-4.28-0.33-6.13-0.39c-1.13-0.04-2.19-0.07-3.19-0.15l-0.46-0.03l-0.47,0.01c-0.36,0.01-0.71,0.01-1.07,0.01
		c-1.72,0-3.45-0.06-5.29-0.12C277.44,0.06,275.45,0,273.4,0l-0.14,0l-0.29,0c-2.99,0-6.08,0.01-9.49,0.24
		c-1.3,0.09-2.59,0.15-3.96,0.21c-1.79,0.08-3.63,0.16-5.56,0.33c-0.47,0.04-1.42,0.14-1.42,0.14l-8.37,0.84l-1.06,8.34
		c0,0-0.11,0.87-0.18,1.51c-0.47,4.24-0.99,8.57-1.5,12.76c-0.28,2.31-0.56,4.62-0.83,6.93l-0.22,1.86
		c-0.65,5.48-1.31,11.09-1.95,16.71c-11.19,2.09-22,4.99-32.23,8.64l-9.97-13.35l-12.76-17.08l-1.22-1.64l-5.25-7.06l-7.89,3.88
		c-0.02,0.01-0.86,0.42-1.7,0.82c-8.44,4.03-16.05,8.17-23.29,12.66c-2.32,1.44-4.56,2.92-6.74,4.36c-1.66,1.09-3.22,2.13-4.81,3.14
		c-0.57,0.36-1.38,0.89-1.38,0.89l-7.46,4.83l3.47,8.18l1.18,2.77l2.55,5.95c4.03,9.4,8.06,18.79,12.09,28.19
		c-8.49,7.23-16.38,15.12-23.54,23.54l-9.37-4.02l-25.47-10.94l-0.03-0.01l-0.03-0.01l-1.94-0.82l-7.93-3.35l-4.89,7.09l-1.23,1.78
		c-7.5,10.81-14.23,22.43-20,34.52l-0.89,1.82l-3.75,7.66l6.69,5.29l1.7,1.34l0.11,0.09l0.11,0.09c2.34,1.75,4.68,3.49,7.02,5.23
		c2.63,1.96,5.31,3.96,7.99,5.96h-57H0v10.57v139.2v10.57h10.57h57.06c-1.58,1.18-3.16,2.36-4.72,3.52
		c-3.47,2.58-6.93,5.17-10.39,7.76c-0.87,0.65-1.52,1.13-1.55,1.15l-7.19,5.23l3.92,7.98c0.01,0.03,0.39,0.79,0.89,1.86
		c5.23,11.01,11.4,21.81,18.33,32.11c0.28,0.42,0.56,0.83,0.84,1.24c0.34,0.5,0.68,1.01,1.02,1.51l0.95,1.41l4.99,7.44l8.16-3.7
		c0.01-0.01,0.86-0.39,1.43-0.64l0-0.01c0.32-0.14,0.63-0.28,0.91-0.42l6.29-2.7c9.34-4.01,18.65-8.01,27.99-12.03
		c7.15,8.46,15.04,16.35,23.54,23.55c-4.96,11.54-9.93,23.08-14.89,34.62c-0.5,1.17-0.98,2.34-0.98,2.34l-3.15,7.74l6.8,4.85
		c0,0,1.05,0.75,2.12,1.49c10.8,7.46,22.29,14.12,34.15,19.77c0.19,0.09,0.37,0.18,0.55,0.27c0.24,0.12,0.48,0.23,0.72,0.35
		c0.26,0.12,0.77,0.37,0.77,0.38l7.74,3.8l5.28-6.81c0.16-0.21,0.57-0.74,0.89-1.2l0.12-0.18l0.04-0.06
		c0.04-0.05,0.07-0.1,0.11-0.14c0.13-0.17,0.26-0.34,0.39-0.51l7.08-9.48c5.15-6.89,10.3-13.79,15.45-20.68
		c10.74,3.84,21.54,6.72,32.23,8.61l0.37,3.11c1.36,11.5,2.76,23.39,4.09,35.08c0.06,0.56,0.16,1.42,0.16,1.43l0.96,8.94l8.97,0.5
		l1.37,0.08c3.4,0.19,6.87,0.43,10.24,0.66c1.26,0.09,2.52,0.17,3.78,0.25l0.38,0.03l0.39,0l13.66-0.09l0.33,0l0.33-0.02
		c1.12-0.08,2.24-0.16,3.35-0.24c2.9-0.21,5.64-0.41,8.41-0.54c0.51-0.03,1.34-0.05,1.35-0.05l8.91-0.31l1.19-8.83
		c0,0,0.16-1.21,0.24-1.91c0.3-2.71,0.64-5.5,0.97-8.19c0.22-1.77,0.43-3.54,0.64-5.31c0.54-4.65,1.09-9.3,1.63-13.96
		c0.41-3.53,0.82-7.06,1.23-10.59c1.71-0.32,3.36-0.65,4.9-0.96c9.03-1.82,18.2-4.39,27.33-7.67l3.24,4.34
		c6.45,8.65,12.91,17.29,19.37,25.93c0.67,0.9,1.22,1.65,1.24,1.68l5.23,7.26l8.02-3.96c0.03-0.01,0.86-0.42,1.94-0.94
		c11.73-5.58,23.29-12.26,34.34-19.86c0.96-0.66,1.9-1.31,1.9-1.31l6.95-4.82l-3.18-7.84c0,0-0.46-1.13-0.94-2.24l-8.16-18.99
		l-6.78-15.77c8.48-7.2,16.38-15.09,23.56-23.55l11.04,4.74l23.82,10.24c0.95,0.41,1.96,0.84,1.96,0.84l7.88,3.35l4.91-7.02
		c0,0,0.56-0.81,1.15-1.65c7.54-10.85,14.36-22.62,20.29-35c0.34-0.72,0.76-1.55,0.76-1.57l3.81-7.75l-6.84-5.28
		c0,0-0.77-0.6-1.68-1.27c-2.18-1.63-4.36-3.26-6.54-4.88c-2.86-2.13-5.77-4.3-8.68-6.48h56.46h10.57v-10.57v-139.2v-10.57H538.71z"
		/>
	<path id="Zahnrad" class="st2" d="M136.94,54.01c0,0,0.78-0.51,1.32-0.85c3.84-2.44,7.58-5.04,11.44-7.44
		c7.19-4.46,14.63-8.46,22.27-12.1c0.9-0.43,1.81-0.88,1.81-0.88s0.62,0.84,1.24,1.66c8.75,11.72,17.5,23.44,26.26,35.15
		c0.63,0.84,1.23,1.62,1.23,1.62s0.94-0.34,1.83-0.69c12.04-4.73,24.46-8.14,37.18-10.45c1.73-0.31,3.47-0.5,5.21-0.76
		c0.47-0.07,1.32-0.2,1.32-0.2s0.09-0.84,0.15-1.31c0.93-8.42,1.92-16.83,2.91-25.24c0.78-6.59,1.6-13.17,2.33-19.76
		c0.06-0.57,0.16-1.34,0.16-1.34s0.84-0.08,1.27-0.12c3.12-0.27,6.23-0.3,9.33-0.53c3.16-0.22,6.07-0.21,9.08-0.22
		c4.21-0.01,8.37,0.3,12.6,0.23c2.95,0.21,5.91,0.15,8.86,0.49c0.58,0.07,1.49,0.14,1.49,0.14s0.12,1.01,0.19,1.59
		c0.52,4.6,1.09,9.2,1.64,13.8c0.92,7.69,1.84,15.39,2.75,23.09c0.29,2.46,0.61,4.92,0.79,7.39c0.05,0.69,0.19,1.82,0.19,1.82
		s1.2,0.17,1.86,0.26c9.58,1.26,18.94,3.51,28.18,6.32c4.57,1.39,9.07,2.97,13.52,4.73c1.09,0.43,1.96,0.79,1.96,0.79
		s0.58-0.74,1.31-1.72c8.57-11.46,17.13-22.92,25.69-34.38c0.1-0.13,0.18-0.27,0.27-0.39c0.86-1.1,1.49-1.98,1.49-1.98
		s0.96,0.5,2.3,1.13c11.42,5.4,22.28,11.76,32.67,18.92c1.15,0.79,1.89,1.28,1.89,1.28s-0.35,0.83-0.91,2.04
		c-5.71,13.34-11.44,26.68-17.17,40.02c-0.44,1.03-0.88,2.04-0.88,2.04s0.86,0.72,1.73,1.41c11.16,8.93,21.22,18.96,30.13,30.14
		c0.05,0.06,0.1,0.12,0.15,0.18c0.66,0.81,1.26,1.54,1.26,1.54s0.95-0.4,1.81-0.77c5.93-2.54,11.85-5.09,17.77-7.64
		c7.53-3.24,15.06-6.49,22.59-9.73c0.95-0.41,1.9-0.81,1.9-0.81s0.56,0.82,1.13,1.63c7.4,10.64,13.84,21.84,19.43,33.53
		c0.4,0.83,0.82,1.67,0.82,1.67s-0.8,0.59-1.58,1.17c-8.32,6.22-16.66,12.42-24.96,18.66c-0.51,0.38-1.52,1.13-1.52,1.13l-1.78,0
		l-70.07,0l-2.08,0c0,0-0.83-1.16-1.25-1.75c-16.9-23.36-38.82-40.18-65.83-50.29c-10.11-3.79-20.55-6.24-31.27-7.6
		c-9.24-1.17-18.52-1.44-27.77-0.73c-25.35,1.93-48.58,10.07-69.54,24.51c-13.42,9.25-24.94,20.49-34.41,33.77l-1.52,2.1l-71.71,0
		l-2.28,0l-1.87-1.44c-8.1-6.12-16.25-12.16-24.38-18.24l-1.7-1.34l0.92-1.87c5.51-11.55,11.89-22.6,19.18-33.12l1.23-1.78
		l1.94,0.82c13.39,5.75,26.77,11.5,40.15,17.25c1,0.43,1.98,0.84,1.98,0.84s0.71-0.85,1.4-1.72c9-11.21,19.12-21.29,30.32-30.29
		c0.78-0.63,1.53-1.22,1.53-1.22s-0.39-0.95-0.78-1.84c-5.66-13.19-11.32-26.39-16.98-39.58L136.94,54.01z M294.72,489.68
		c0.57-0.03,1.51-0.06,1.51-0.06s0.14-1.05,0.21-1.64c0.5-4.53,1.08-9.04,1.61-13.57c1.18-10.08,2.34-20.16,3.52-30.24
		c0.14-1.22,0.29-2.29,0.29-2.29s1.27-0.2,2.24-0.33c3.4-0.44,6.76-1.11,10.12-1.79c10.8-2.18,21.3-5.37,31.54-9.39
		c0.61-0.24,1.59-0.62,1.59-0.62s0.66,0.77,0.97,1.31c0.16,0.27,0.38,0.52,0.57,0.77c8.61,11.53,17.21,23.06,25.83,34.58
		c0.75,1,1.35,1.83,1.35,1.83s0.9-0.44,2.07-1c11.48-5.46,22.43-11.83,32.9-19.03c0.93-0.64,1.85-1.28,1.85-1.28
		s-0.42-1.03-0.85-2.04c-5.76-13.41-11.52-26.82-17.28-40.23c-0.4-0.94-0.77-1.89-0.77-1.89s0.76-0.6,1.52-1.21
		c11.29-9.02,21.46-19.17,30.48-30.47c0.63-0.78,1.26-1.55,1.26-1.55s1,0.41,2,0.84c13.39,5.75,26.77,11.51,40.16,17.27
		c0.93,0.4,1.92,0.82,1.92,0.82s0.55-0.79,1.13-1.62c7.39-10.64,13.84-21.84,19.43-33.53c0.37-0.77,0.81-1.67,0.81-1.67
		s-0.71-0.55-1.55-1.17c-8-5.98-16.02-11.93-23.99-17.95c-0.61-0.46-2.32-1.88-2.32-1.88l-1.62,0l-70.55,0l-1.81,0
		c0,0-1.35,1.72-1.89,2.47c-10.28,14.21-22.8,26.09-37.51,35.64c-20.06,13.02-42.07,20.39-65.88,22.27
		c-10.71,0.85-21.39,0.37-32.04-1.27c-13.96-2.14-27.29-6.26-39.98-12.45c-21.24-10.36-38.8-25.13-52.7-44.23
		c-0.51-0.71-1.84-2.44-1.84-2.44l-1.89,0l-70.55,0l-1.55-0.01c0,0-1.61,1.36-2.18,1.79c-7.97,6.02-16.01,11.95-23.99,17.95
		c-0.96,0.72-1.67,1.24-1.67,1.24s0.41,0.83,0.96,1.98c5.08,10.69,10.95,20.93,17.56,30.75c0.62,0.93,1.26,1.85,1.88,2.78
		c0.45,0.68,0.94,1.4,0.94,1.4s0.92-0.42,1.55-0.69c-0.03,0.02,0.75-0.36,0.75-0.36c13.39-5.75,26.73-11.48,40.11-17.24
		c0.62-0.26,1.74-0.75,1.74-0.75s0.51,0.65,0.85,1.07c9.2,11.67,19.65,22.1,31.3,31.32c0.44,0.35,1.14,0.9,1.14,0.9
		s-0.35,0.81-0.58,1.27c-0.21,0.49-0.4,0.87-0.59,1.31c-5.64,13.11-11.28,26.23-16.92,39.34c-0.46,1.08-0.9,2.15-0.9,2.15
		s0.98,0.7,1.99,1.39c10.39,7.18,21.29,13.49,32.69,18.93c0.43,0.21,0.86,0.42,1.29,0.63c0.29,0.14,0.86,0.42,0.86,0.42
		s0.37-0.48,0.58-0.78c0.26-0.4,0.57-0.77,0.86-1.15c8.66-11.59,17.31-23.18,25.97-34.77c0.68-0.91,1.34-1.79,1.34-1.79
		s1.09,0.43,2.12,0.84c0.07,0.03,0.14,0.07,0.22,0.1c13.27,5.13,26.91,8.86,41.01,10.87c1.02,0.15,2.06,0.31,2.06,0.31
		s0.16,1.05,0.28,2.17c0.09,0.79,0.24,1.58,0.34,2.37c1.63,13.89,3.28,27.77,4.86,41.66c0.07,0.59,0.16,1.5,0.16,1.5
		s0.88,0.05,1.39,0.08c4.71,0.27,9.41,0.6,14.11,0.92c4.55-0.03,9.11-0.06,13.66-0.09C286.74,490.2,290.73,489.88,294.72,489.68z
		 M194.88,170.31c0,0,1.07-0.97,1.41-1.3c3.08-3.04,6.35-5.85,9.8-8.46c18.02-13.66,38.26-21.35,60.84-23.02
		c10.77-0.8,21.41-0.05,31.91,2.23c21.01,4.55,39.26,14.38,54.76,29.27c0.47,0.46,1.35,1.28,1.35,1.28l1.57,0l20.97,0h1.72
		c-52.06-68.23-156.73-68.13-208.57,0L194.88,170.31z M284.73,381.91c23.56-1.71,45.13-9.38,64.63-22.75
		c11.18-7.66,21.63-17.62,30.15-28.49l-1.77,0l-21.83,0l-0.95,0c0,0-1.25,1.18-1.61,1.52c-1.74,1.65-3.5,3.28-5.34,4.82
		c-17.84,15-38.4,23.69-61.54,26.19c-8.36,0.9-16.74,0.75-25.12-0.27c-9.71-1.18-19.1-3.52-28.17-7.12
		c-13.59-5.38-25.67-13.13-36.25-23.22c-0.5-0.48-2.03-1.95-2.03-1.95l-1.34,0.01h-8.4l-14.46-0.01
		C191.82,359,233.29,385.65,284.73,381.91z"/>
	<path id="Box" class="st4" d="M10.57,180.88v139.2h528.14v-139.2H10.57z M338.75,246.35H23.36v-49.63h315.38V246.35z"/>
	<path id="T" class="st3" d="M479.92,245.46c0,11.04,0,22.08,0,33.11c0,0.48,0.04,0.96-0.01,1.44c-0.1,1.03,0.26,1.53,1.34,1.83
		c1.96,0.54,3.56,1.76,4.92,3.28c3.09,3.46,3.71,8.61,1.52,12.76c-2.2,4.18-6.7,6.55-11.36,5.98c-4.78-0.58-8.59-3.86-9.72-8.38
		c-1.43-5.71,1.31-11.25,6.87-13.41c1.45-0.56,1.68-1.29,1.68-2.62c-0.03-22.72-0.02-45.43-0.02-68.15c0-2.17,0.15-2.12-2.06-2.12
		c-4.08,0.01-8.16,0.06-12.24-0.03c-1.31-0.03-1.89,0.34-2.37,1.64c-1.73,4.66-5.24,7.18-10.16,7.48
		c-5.83,0.35-10.68-3.8-11.73-9.81c-0.93-5.3,2.59-10.79,7.95-12.4c5.56-1.68,11.51,0.96,13.7,6.3c0.66,1.61,1.4,2.08,3.07,2.07
		c10.96-0.08,21.92-0.07,32.87,0c1.52,0.01,2.16-0.42,2.73-1.86c2.01-5.08,7.22-7.79,12.64-6.82c5.11,0.91,9.12,5.5,9.23,10.81
		c0.12,6.12-4.24,10.54-9.24,11.53c-5.14,1.02-10.63-1.86-12.68-6.83c-0.86-2.07-0.86-2.08-2.95-2.08c-4,0-8-0.01-12,0
		c-1.94,0.01-1.97,0.02-1.97,1.94C479.92,222.58,479.92,234.02,479.92,245.46z M456.9,206.98c0.05-4.91-4.02-9-8.99-9.03
		c-4.97-0.03-9.07,3.99-9.1,8.92c-0.02,4.91,4.06,9.03,8.99,9.05C452.74,215.95,456.85,211.91,456.9,206.98z M516.42,206.95
		c0.03-4.92-4.05-8.99-9.02-9c-4.97-0.02-9.06,4.02-9.07,8.95c-0.01,4.92,4.09,9.01,9.02,9.02
		C512.29,215.93,516.39,211.88,516.42,206.95z M468.57,292.65c0.02,4.92,4.13,8.96,9.09,8.94c4.97-0.03,9.04-4.12,9-9.03
		c-0.04-4.92-4.16-8.97-9.09-8.95C472.64,283.62,468.55,287.74,468.57,292.65z"/>
	<path id="G" class="st3" d="M421.36,264.29c-0.19,0.94-0.7,1.24-1.08,1.62c-3.68,3.68-7.4,7.31-11.03,11.03
		c-0.98,1-1.98,1.38-3.36,1.36c-4.48-0.07-8.96-0.01-13.43-0.03c-2.53-0.01-2.76-0.25-2.78-2.75c-0.02-2.96-0.03-5.92,0-8.88
		c0.02-1.99,0.29-2.28,2.16-2.34l7.05,0v5.86h2.15v-5.87l4.76,0v5.87h2.15v-5.87L421.36,264.29z M392.14,297.22
		c-0.76-0.76,0.16-1.43,0.16-1.43c10.59-10.56,19.5-19.4,30.1-29.94c0.34-0.34,0.67-0.68,1.02-1.01c0.78-0.74,1.59-0.73,2.33,0.01
		c2.05,2.02,4.11,4.04,6.09,6.12c0.96,1.02,0.9,1.49-0.23,2.64l-10.34,10.41l-3.58-3.58l-1.1,1.1l3.6,3.57l-3,2.94l-3.57-3.54
		l-1.1,1.1l3.56,3.56l-2.99,2.93l-3.53-3.53l-1.1,1.1l3.57,3.53l-2.96,2.9l-3.54-3.5l-1.1,1.1l3.57,3.53l-2.88,2.82l-3.54-3.51
		l-1.1,1.1l3.55,3.55l-3.82,4.08L392.14,297.22z M422.94,271.81c0,0.95,0.85,1.76,1.84,1.76c0.98,0,1.83-0.83,1.83-1.77
		c-0.01-0.95-0.87-1.77-1.84-1.77C423.78,270.03,422.93,270.85,422.94,271.81z M397.72,307.51c-2.02,2.05-4.04,4.11-6.12,6.09
		c-1.02,0.96-1.49,0.9-2.64-0.23l-10.27-10.48l3.45-3.45l-1.1-1.1l-3.44,3.44l-2.94-3l3.41-3.41l-1.1-1.1l-3.4,3.4l-2.93-2.99
		l3.37-3.37l-1.1-1.1l-3.35,3.35l-2.9-2.96l3.33-3.33l-1.1-1.1l-3.31,3.31l-2.82-2.88l3.29-3.29l-1.1-1.1l-3.27,3.27l-0.09-0.1
		c-2.03-2.13-3.93-4.13-5.91-6.22c1.41,0,2.91,0.04,4.4,0.01c2.14-0.04,3.24-1.1,3.31-3.21c0.05-1.57,0.02-3.15,0.02-4.8
		c0.99,0.12,1.29,0.75,1.71,1.17c10.56,10.59,21.1,21.2,31.64,31.81c0.34,0.34,0.68,0.67,1.01,1.02
		C398.47,305.95,398.45,306.76,397.72,307.51z M390.76,304.69c-0.95,0-1.76,0.85-1.76,1.84c0,0.98,0.83,1.83,1.77,1.83
		c0.95-0.01,1.77-0.87,1.77-1.84C392.54,305.53,391.71,304.68,390.76,304.69z M361.95,252.98c0,7.2,0.01,14.39,0,21.59
		c0,2.77-0.2,2.97-3.02,2.99c-2.24,0.02-4.47,0.01-6.71-0.05c-1.75-0.04-2.06-0.28-2.08-1.88l0-12.94h6.03v-2.5h-6.03l0-5.79h6.03
		v-2.5h-6.03l0-5.2h6.03v-2.5h-6.03l0-13.93c0.02-1.52,0.52-1.96,2.08-1.99c2.48-0.04,4.95-0.01,7.43,0.02
		c2.11,0.03,2.29,0.2,2.29,2.37C361.96,238.11,361.95,245.55,361.95,252.98z M358.06,272.3c0.09-1.15-0.86-2.16-2.04-2.16
		c-1.07,0-1.91,0.86-1.94,1.99c-0.03,1.19,0.7,1.97,1.87,2C357.07,274.17,357.98,273.38,358.06,272.3z M358.24,233.84
		c0.04-1.02-0.84-2-1.86-2.08c-1.14-0.09-2.14,0.84-2.17,2c-0.03,1.08,0.8,2.04,1.82,2.11C357.12,235.94,358.2,234.95,358.24,233.84
		z M397.46,200.94c-0.33,0.35-0.67,0.68-1.01,1.02c-10.54,10.61-21.09,21.22-31.64,31.81c-0.42,0.42-0.73,1.05-1.71,1.17
		c0-1.66,0.03-3.23-0.02-4.8c-0.07-2.1-1.17-3.16-3.31-3.21c-1.5-0.03-3,0-4.4,0.01c1.98-2.09,3.88-4.09,5.91-6.22l0.09-0.1
		l3.27,3.27l1.1-1.1l-3.29-3.29l2.82-2.88l3.31,3.31l1.1-1.1l-3.33-3.33l2.9-2.96l3.35,3.35l1.1-1.1l-3.37-3.37l2.93-2.99l3.4,3.4
		l1.1-1.1l-3.41-3.41l2.94-3l3.44,3.44l1.1-1.1l-3.45-3.45l10.27-10.48c1.15-1.13,1.63-1.19,2.64-0.23c2.09,1.98,4.1,4.04,6.12,6.09
		C398.19,199.35,398.2,200.16,397.46,200.94z M392.27,199.6c0-0.98-0.82-1.84-1.77-1.84c-0.95-0.01-1.77,0.85-1.77,1.83
		c0,0.99,0.81,1.84,1.76,1.84C391.45,201.43,392.27,200.58,392.27,199.6z"/>
	<path id="Makerspace" class="st4" d="M64.22,202.97v37.15h-9.51v-12.98l-4.86,12.98h-5.77l-4.97-13.38v13.38H29.6v-37.15h9.14
		l8.23,21.57l8.28-21.57H64.22z M91.84,240.12l-3.58-9.79h-7.75l-3.53,9.79h-10.2l11.65-37.15H90.4l11.65,37.15H91.84z
		 M131.02,202.97l-14.8,18.62l14.75,18.52h-11.11l-6.41-8.04v8.04h-8.98v-37.15h8.98v8.64l6.46-8.64H131.02z M158.45,211.36h-15.39
		v5.99h11.33v8.39h-11.33v5.99h15.39v8.39h-24.36v-37.15h24.36V211.36z M176.46,240.12l-5.34-12.08h-0.11v12.08h-8.98v-37.15h12.07
		h0.05c2.28,0,4.18,0.32,5.69,0.97c1.51,0.65,2.72,1.52,3.63,2.6c0.91,1.08,1.56,2.35,1.95,3.79c0.39,1.45,0.59,2.97,0.59,4.57
		c0,1.67-0.29,3.15-0.88,4.44c-0.59,1.3-1.28,2.39-2.08,3.27c-0.8,0.88-1.61,1.55-2.43,2c-0.82,0.45-1.46,0.67-1.92,0.67l8.07,14.83
		H176.46z M215.57,231.48c-0.07,1.2-0.44,2.32-1.1,3.37c-0.66,1.05-1.57,1.96-2.72,2.75c-1.16,0.78-2.56,1.4-4.19,1.85
		c-1.64,0.45-3.49,0.67-5.56,0.67c-1.6,0-3.11-0.2-4.51-0.6c-1.41-0.4-2.68-0.96-3.82-1.7c-1.14-0.73-2.11-1.62-2.91-2.67
		c-0.8-1.05-1.38-2.24-1.74-3.57l8.55-3.35c-0.07,0.03,0.01,0.27,0.24,0.7c0.23,0.43,0.56,0.89,0.99,1.37
		c0.43,0.48,0.95,0.92,1.58,1.3c0.62,0.38,1.29,0.52,2,0.42c0.61-0.07,1.2-0.32,1.79-0.75c0.59-0.43,0.86-1.11,0.83-2.05
		c-0.04-0.57-0.28-1.09-0.72-1.57c-0.45-0.48-1.08-0.99-1.9-1.52c-1.82-1.13-3.5-2.12-5.05-2.97c-1.55-0.85-2.9-1.74-4.06-2.67
		c-1.16-0.93-2.07-1.98-2.72-3.15c-0.66-1.16-0.99-2.63-0.99-4.39c0-1.63,0.36-3.06,1.07-4.29c0.71-1.23,1.66-2.26,2.83-3.1
		c1.18-0.83,2.53-1.46,4.06-1.9c1.53-0.43,3.12-0.67,4.75-0.7c1.96,0,3.68,0.26,5.16,0.77c1.48,0.52,2.72,1.17,3.74,1.97
		s1.81,1.71,2.38,2.72c0.57,1.02,0.94,2.02,1.12,3.02l-7.85,2.9c-0.11-0.37-0.27-0.77-0.48-1.22s-0.51-0.87-0.88-1.25
		c-0.37-0.38-0.82-0.71-1.34-0.97c-0.52-0.27-1.11-0.4-1.79-0.4c-0.71,0-1.36,0.21-1.95,0.62c-0.59,0.42-0.88,1.04-0.88,1.87
		c0,0.63,0.28,1.19,0.83,1.67c0.55,0.48,1.42,1.12,2.59,1.92c1.64,0.87,3.21,1.73,4.73,2.6c1.51,0.87,2.86,1.85,4.03,2.95
		s2.12,2.34,2.83,3.72c0.71,1.38,1.07,3.02,1.07,4.92V231.48z M230.42,202.97c1.71,0,3.26,0.28,4.65,0.85
		c1.39,0.57,2.57,1.37,3.55,2.42c0.98,1.05,1.74,2.31,2.27,3.79c0.53,1.48,0.8,3.14,0.8,4.97c0,1.8-0.27,3.43-0.8,4.89
		c-0.53,1.46-1.29,2.73-2.27,3.79c-0.98,1.07-2.16,1.89-3.55,2.47c-1.39,0.58-2.94,0.87-4.65,0.87h-0.05h-2.94v13.08h-9.14v-37.15
		h12.07H230.42z M265.34,240.12l-3.58-9.79h-7.75l-3.53,9.79h-10.2l11.65-37.15h11.97l11.65,37.15H265.34z M291.1,231.88
		c1.53,0.1,2.8-0.27,3.82-1.1c1.02-0.83,1.79-1.83,2.32-3l7.75,4.04c-0.32,0.6-0.78,1.37-1.36,2.3c-0.59,0.93-1.42,1.85-2.48,2.75
		c-1.07,0.9-2.43,1.67-4.09,2.32c-1.66,0.65-3.7,0.97-6.12,0.97h-0.05c-2.71,0-4.98-0.4-6.81-1.2c-1.83-0.8-3.33-1.87-4.49-3.22
		c-1.16-1.35-2-2.91-2.54-4.69c-0.53-1.78-0.85-3.64-0.96-5.57v-7.69c0.04-1.83,0.37-3.64,0.99-5.42c0.62-1.78,1.55-3.37,2.78-4.77
		s2.77-2.52,4.62-3.37c1.85-0.85,4.01-1.27,6.46-1.27h0.05c2.17,0,4.04,0.28,5.61,0.85c1.57,0.57,2.91,1.3,4.03,2.2
		c1.12,0.9,2.03,1.91,2.72,3.05c0.69,1.13,1.24,2.26,1.63,3.4l-7.75,4.04c-0.21-0.6-0.51-1.21-0.88-1.85
		c-0.37-0.63-0.83-1.2-1.36-1.7c-0.53-0.5-1.14-0.9-1.82-1.2c-0.68-0.3-1.39-0.43-2.14-0.4c-1.82,0.13-3.27,0.81-4.35,2.02
		c-1.09,1.22-1.63,2.74-1.63,4.57v7.24c0,1.83,0.55,3.37,1.66,4.62C287.82,231.05,289.28,231.75,291.1,231.88z M332.51,211.36
		h-15.39v5.99h11.33v8.39h-11.33v5.99h15.39v8.39h-24.36v-37.15h24.36V211.36z"/>
</g>
</svg>
