<?xml version="1.0" encoding="UTF-8" standalone="no"?>
<!-- Created with Inkscape (http://www.inkscape.org/) -->

<svg
   xmlns:dc="http://purl.org/dc/elements/1.1/"
   xmlns:cc="http://creativecommons.org/ns#"
   xmlns:rdf="http://www.w3.org/1999/02/22-rdf-syntax-ns#"
   xmlns:svg="http://www.w3.org/2000/svg"
   xmlns="http://www.w3.org/2000/svg"
   xmlns:sodipodi="http://sodipodi.sourceforge.net/DTD/sodipodi-0.dtd"
   xmlns:inkscape="http://www.inkscape.org/namespaces/inkscape"
   version="1.1"
   id="svg61"
   width="2200"
   height="2000"
   viewBox="0 0 2200 2000"
   sodipodi:docname="logofull.svg"
   inkscape:export-filename="/home/mpe/development &amp; scripts/3D/Makerspace/Mitgliedsausweis/logomono.png"
   inkscape:export-xdpi="9.6000004"
   inkscape:export-ydpi="9.6000004"
   inkscape:version="0.92.3 (2405546, 2018-03-11)">
  <metadata
     id="metadata67">
    <rdf:RDF>
      <cc:Work
         rdf:about="">
        <dc:format>image/svg+xml</dc:format>
        <dc:type
           rdf:resource="http://purl.org/dc/dcmitype/StillImage" />
        <dc:title />
      </cc:Work>
    </rdf:RDF>
  </metadata>
  <defs
     id="defs65" />
  <sodipodi:namedview
     pagecolor="#ffffff"
     bordercolor="#666666"
     borderopacity="1"
     objecttolerance="10"
     gridtolerance="10"
     guidetolerance="10"
     inkscape:pageopacity="0"
     inkscape:pageshadow="2"
     inkscape:window-width="1280"
     inkscape:window-height="736"
     id="namedview63"
     showgrid="true"
     inkscape:zoom="2.004"
     inkscape:cx="324.63929"
     inkscape:cy="24.12807"
     inkscape:window-x="0"
     inkscape:window-y="27"
     inkscape:window-maximized="1"
     inkscape:current-layer="svg61">
    <inkscape:grid
       type="xygrid"
       id="grid15" />
  </sodipodi:namedview>
  <path
     style="fill:#000000;stroke-width:0.05669287"
     d="m 220,1979.8457 v -20.1543 h 62.36219 62.3622 V 1979.8457 2000 H 282.36219 220 Z m 65.79211,19.9821 c 0.53008,-0.036 1.10302,-0.081 1.27322,-0.1021 l 0.30942,-0.037 0.66359,-5.603 c 0.36497,-3.0815 0.67218,-5.6109 0.68269,-5.6208 0.0106,-0.01 0.37628,-0.072 0.81282,-0.1386 2.96957,-0.4518 6.74105,-1.4703 9.3795,-2.533 0.26332,-0.106 0.50568,-0.1918 0.53859,-0.1907 0.0329,0 0.28946,0.3135 0.5701,0.6941 0.28061,0.3807 1.79926,2.4181 3.37476,4.5277 l 2.86452,3.8357 1.01894,-0.4946 c 1.30256,-0.6322 2.75909,-1.4263 4.19373,-2.2863 1.2716,-0.7623 3.42993,-2.1822 3.42993,-2.2564 0,-0.027 -0.98544,-2.3393 -2.18984,-5.1393 -1.20442,-2.7999 -2.20095,-5.1301 -2.21451,-5.178 -0.0163,-0.058 0.22935,-0.2961 0.73,-0.708 2.39361,-1.9686 4.76947,-4.3558 6.64672,-6.6785 0.3003,-0.3716 0.4791,-0.548 0.53859,-0.5313 0.049,0.014 2.38064,1.0105 5.18148,2.215 2.80084,1.2045 5.11351,2.19 5.13927,2.19 0.0482,0 1.32299,-1.8987 1.88423,-2.8063 0.92821,-1.5011 1.93923,-3.3351 2.68688,-4.8739 l 0.46744,-0.9621 -3.20973,-2.397 -3.20971,-2.3969 h -8.85626 -8.85627 l -0.30111,0.411 c -1.81458,2.477 -4.01312,4.7641 -6.37104,6.6275 -3.53764,2.7959 -7.52839,4.8113 -11.88793,6.0037 -5.59088,1.5291 -11.70456,1.5378 -17.34659,0.025 -7.22471,-1.9374 -13.60434,-6.2834 -18.12055,-12.3442 l -0.53861,-0.7228 h -8.85338 -8.85336 l -3.20863,2.3961 -3.20864,2.3962 0.49488,1.0196 c 0.63252,1.3031 1.42648,2.7595 2.28667,4.1944 0.76016,1.268 2.18214,3.4299 2.256,3.4299 0.0264,0 2.33906,-0.9855 5.13926,-2.1899 2.80021,-1.2044 5.13053,-2.201 5.17851,-2.2145 0.0578,-0.016 0.29632,0.2296 0.70788,0.7301 1.94617,2.3663 4.11294,4.533 6.47924,6.4792 0.5004,0.4115 0.74636,0.6501 0.73005,0.7079 -0.0136,0.048 -1.01005,2.3782 -2.21449,5.1785 -1.20446,2.8001 -2.18991,5.1128 -2.18991,5.1391 0,0.074 2.16295,1.4954 3.42993,2.2543 1.45837,0.8736 2.91223,1.6669 4.19392,2.2886 l 1.01912,0.4943 3.03454,-4.0622 c 1.669,-2.2341 3.18757,-4.273 3.37458,-4.5308 0.26479,-0.3649 0.36513,-0.4634 0.45342,-0.4449 0.0624,0.013 0.58536,0.2026 1.1622,0.4213 2.5679,0.973 5.57695,1.7715 8.40238,2.2299 1.09672,0.1779 1.11785,0.1839 1.14508,0.3273 0.0152,0.08 0.31404,2.5952 0.66395,5.5886 0.34991,2.9934 0.65101,5.46 0.66908,5.4814 0.0375,0.044 1.24988,0.1458 2.58408,0.2162 1.14711,0.061 4.57302,0.026 5.83937,-0.059 z m -1.98425,-25.5098 c 7.71015,-0.3992 14.65809,-3.407 20.17712,-8.735 0.96088,-0.9277 2.86854,-3.0519 2.86854,-3.1942 0,-0.018 -1.29138,-0.033 -2.86975,-0.033 h -2.86978 l -0.50039,0.4762 c -0.99624,0.9481 -2.2256,1.9145 -3.53961,2.7826 -5.37272,3.5496 -11.87418,5.0281 -18.3118,4.1644 -3.03277,-0.407 -5.89826,-1.3112 -8.66927,-2.7356 -2.1284,-1.0941 -4.29116,-2.6102 -5.90967,-4.1425 l -0.57581,-0.5451 h -2.87302 c -1.7369,0 -2.86554,0.021 -2.85411,0.053 0.0104,0.029 0.24426,0.3231 0.51971,0.6539 4.29893,5.1626 10.0399,8.7824 16.45036,10.372 2.97356,0.7374 6.00553,1.0365 8.95748,0.8837 z m 25.68189,-16.0995 c -0.0624,-0.027 -0.68698,-0.6244 -1.38803,-1.3283 l -1.27465,-1.2797 0.42275,-0.4256 0.42276,-0.4256 -0.12609,-0.1261 -0.12609,-0.1261 -0.38408,0.3811 c -0.21123,0.2096 -0.42437,0.3811 -0.47363,0.3811 -0.0493,0 -0.22437,-0.1425 -0.38913,-0.3166 l -0.29955,-0.3168 0.4174,-0.4202 0.4174,-0.4202 -0.12616,-0.1261 -0.12614,-0.1262 -0.41692,0.4141 -0.41691,0.4142 -0.36253,-0.3425 -0.36252,-0.3426 0.42369,-0.4273 0.4237,-0.4274 -0.12615,-0.1261 -0.12613,-0.1262 -0.42577,0.423 -0.42578,0.4229 -0.31115,-0.3317 c -0.17114,-0.1824 -0.31116,-0.36 -0.31116,-0.3946 0,-0.035 0.17151,-0.2358 0.38113,-0.4471 l 0.38113,-0.3841 -0.12609,-0.1261 -0.12609,-0.1261 -0.42006,0.4173 -0.42004,0.4173 -0.31689,-0.3246 c -0.17427,-0.1785 -0.31687,-0.3421 -0.31687,-0.3636 0,-0.021 0.17812,-0.2157 0.39581,-0.4317 l 0.39582,-0.3929 -0.12367,-0.1315 -0.12366,-0.1317 -0.40104,0.3984 c -0.22057,0.219 -0.41523,0.3983 -0.43256,0.3983 -0.0174,0 -0.35414,-0.3252 -0.74842,-0.7228 l -0.71691,-0.7228 0.79114,-0.028 c 0.77181,-0.028 0.79498,-0.032 0.94819,-0.1854 0.15453,-0.1545 0.15749,-0.1704 0.18537,-1.0071 l 0.0283,-0.85 4.12441,4.1261 c 3.59576,3.5972 4.12441,4.1475 4.12441,4.2932 0,0.14 -0.14084,0.308 -0.86659,1.0338 -0.47662,0.4766 -0.90395,0.8649 -0.94961,0.8629 -0.0456,0 -0.13403,-0.026 -0.19639,-0.052 z m 0.51282,-1.5009 c 0.0765,-0.076 0.13915,-0.2053 0.13915,-0.2861 0,-0.081 -0.0626,-0.2094 -0.13915,-0.286 -0.0765,-0.077 -0.20526,-0.1392 -0.28605,-0.1392 -0.0808,0 -0.20951,0.063 -0.28605,0.1392 -0.0765,0.077 -0.13915,0.2053 -0.13915,0.286 0,0.081 0.0626,0.2096 0.13915,0.2861 0.0765,0.077 0.20526,0.1391 0.28605,0.1391 0.0808,0 0.20951,-0.063 0.28605,-0.1391 z m 0.88972,-1.5197 c -0.53755,-0.5382 -0.97735,-1.004 -0.97735,-1.0352 0,-0.031 1.71612,-1.7721 3.81359,-3.8687 3.34412,-3.3428 3.8344,-3.812 3.98267,-3.8118 0.14209,0 0.30715,0.1375 1.03366,0.8597 0.73627,0.732 0.86457,0.8851 0.86457,1.0316 0,0.1487 -0.17526,0.348 -1.28813,1.4647 -0.70848,0.7109 -1.32649,1.2926 -1.37338,1.2926 -0.0469,0 -0.25719,-0.1706 -0.46731,-0.3791 -0.37853,-0.3757 -0.38315,-0.3782 -0.49962,-0.2728 l -0.11753,0.1064 0.39896,0.4016 c 0.21944,0.2209 0.39898,0.4274 0.39898,0.459 0,0.088 -0.58815,0.6486 -0.68068,0.6486 -0.045,0 -0.25457,-0.1713 -0.46567,-0.3808 -0.3633,-0.3605 -0.38908,-0.3757 -0.48154,-0.2833 -0.0925,0.092 -0.0773,0.1183 0.2832,0.4816 0.20951,0.2111 0.38091,0.4223 0.38091,0.4694 0,0.1086 -0.57145,0.6769 -0.68067,0.6769 -0.045,0 -0.25376,-0.1706 -0.46391,-0.3791 -0.37851,-0.3756 -0.38315,-0.3781 -0.4996,-0.2727 l -0.11755,0.1063 0.39898,0.4017 c 0.21944,0.2209 0.39897,0.4274 0.39897,0.4589 0,0.088 -0.58814,0.6487 -0.68067,0.6487 -0.045,0 -0.25457,-0.1714 -0.46569,-0.3809 -0.36329,-0.3605 -0.38907,-0.3757 -0.48154,-0.2832 -0.0925,0.092 -0.0773,0.1183 0.28321,0.4815 0.2095,0.2112 0.38091,0.4242 0.38091,0.4734 0,0.049 -0.13994,0.222 -0.31098,0.3837 -0.36353,0.3439 -0.35197,0.346 -0.84817,-0.1588 -0.31759,-0.3232 -0.34309,-0.3376 -0.43994,-0.25 -0.0979,0.089 -0.0839,0.1126 0.29459,0.5029 0.21858,0.2254 0.39741,0.4283 0.39741,0.4508 0,0.067 -0.86481,0.9349 -0.93169,0.9349 -0.0339,0 -0.50146,-0.4403 -1.03899,-0.9785 z m 7.17225,-6.6606 c 0.10803,-0.1414 0.0847,-0.3974 -0.0484,-0.5305 -0.1385,-0.1385 -0.42756,-0.1143 -0.54686,0.046 -0.0778,0.1045 -0.0929,0.35 -0.0275,0.4468 0.13631,0.2013 0.4818,0.2224 0.62275,0.038 z m 11.46115,7.2738 c -0.70322,-0.194 -1.36345,-0.7311 -1.68255,-1.3689 -0.24226,-0.4841 -0.3163,-0.8624 -0.28303,-1.446 0.0241,-0.4226 0.0603,-0.5678 0.23184,-0.9289 0.11811,-0.2487 0.32436,-0.5561 0.49226,-0.7336 0.28056,-0.2967 0.87013,-0.6567 1.20396,-0.7353 l 0.1559,-0.037 v -8.5312 -8.5312 h -1.8947 -1.89471 l -0.0399,0.1843 c -0.0699,0.3228 -0.36789,0.845 -0.65639,1.15 -0.49061,0.5188 -1.20458,0.8187 -1.94895,0.8187 -1.26605,0 -2.34473,-0.8552 -2.63584,-2.0896 -0.0443,-0.1879 -0.061,-0.4974 -0.0434,-0.8059 0.0241,-0.4225 0.0603,-0.5678 0.23184,-0.9288 0.80209,-1.689 2.96962,-2.0937 4.32888,-0.8081 0.28579,0.2703 0.75474,1.0576 0.75474,1.267 0,0.066 0.68934,0.079 4.39369,0.079 3.70437,0 4.3937,-0.012 4.3937,-0.079 0,-0.043 0.10155,-0.2813 0.22565,-0.5292 0.46953,-0.9381 1.36093,-1.4886 2.41058,-1.4886 1.06955,0 1.98361,0.5822 2.4474,1.5589 0.46685,0.983 0.26537,2.198 -0.49845,3.0056 -0.49061,0.5188 -1.20458,0.8187 -1.94895,0.8187 -0.74437,0 -1.45834,-0.2999 -1.94897,-0.8187 -0.28847,-0.305 -0.58647,-0.8272 -0.65637,-1.15 l -0.0399,-0.1843 h -1.92305 -1.92306 v 8.5278 8.5278 l 0.18426,0.039 c 0.34556,0.073 0.93834,0.429 1.2323,0.7399 0.1679,0.1775 0.37415,0.4849 0.49226,0.7336 0.46685,0.983 0.26536,2.198 -0.49844,3.0056 -0.30761,0.3253 -0.8117,0.6215 -1.26119,0.7412 -0.35686,0.095 -1.05132,0.093 -1.40143,-0.01 z m 1.42232,-0.6396 c 1.4464,-0.5089 1.85789,-2.3573 0.76755,-3.4476 -0.82552,-0.8255 -2.1269,-0.8255 -2.95242,0 -0.83076,0.8308 -0.83076,2.1216 0,2.9524 0.58287,0.5828 1.40577,0.7694 2.18487,0.4952 z m -7.02992,-20.2393 c 1.44639,-0.5089 1.8579,-2.3574 0.76754,-3.4477 -0.82551,-0.8255 -2.1269,-0.8255 -2.9524,0 -0.83077,0.8308 -0.83077,2.1216 0,2.9524 0.58285,0.5829 1.40577,0.7694 2.18486,0.4953 z m 14.05984,0 c 1.4464,-0.5089 1.85789,-2.3574 0.76754,-3.4477 -0.8255,-0.8255 -2.1269,-0.8255 -2.9524,0 -0.83077,0.8308 -0.83077,2.1216 0,2.9524 0.58285,0.5829 1.40577,0.7694 2.18486,0.4953 z m -28.41104,14.7863 -0.13383,-0.1084 v -1.4557 -1.4557 l 0.13383,-0.1084 c 0.12032,-0.097 0.23351,-0.1084 1.11968,-0.1084 h 0.98585 v 0.7088 0.7086 h 0.22678 0.22677 v -0.7086 -0.7088 h 0.56693 0.56691 v 0.7088 0.7086 h 0.25513 0.25512 v -0.7086 -0.7088 h 1.64409 c 0.90425,0 1.6441,0.019 1.6441,0.043 0,0.024 -0.73364,0.7762 -1.63029,1.6725 l -1.63027,1.6295 h -2.04848 c -1.93245,0 -2.05607,-0.01 -2.18232,-0.1083 z m -9.24018,-0.075 c -0.0723,-0.027 -0.15086,-0.079 -0.17466,-0.1166 -0.0237,-0.037 -0.0436,-0.827 -0.0441,-1.7547 l -0.001,-1.6866 h 0.70867 0.70866 v -0.2551 -0.2551 h -0.70866 -0.70867 v -0.7087 -0.7087 h 0.70867 0.70866 v -0.2834 -0.2834 h -0.70866 -0.70867 v -0.6237 -0.6236 h 0.70867 0.70866 v -0.2834 -0.2835 h -0.70866 -0.70867 l 0.001,-1.7717 c 10e-4,-1.6382 0.009,-1.782 0.10655,-1.9086 l 0.10529,-0.137 1.20419,0.01 c 1.04808,0.01 1.21802,0.019 1.31078,0.1032 0.10295,0.093 0.10658,0.2881 0.10658,5.7223 0,5.4182 -0.004,5.6307 -0.1064,5.7573 -0.10453,0.129 -0.12618,0.1314 -1.2418,0.137 -0.62448,0.01 -1.19453,-0.016 -1.26681,-0.043 z m 1.51207,-0.9758 c 0.22496,-0.2249 0.17023,-0.5433 -0.11684,-0.6795 -0.22172,-0.1052 -0.41991,-0.053 -0.56033,0.1474 -0.30944,0.4418 0.29363,0.9157 0.67717,0.5321 z m 0.01,-8.9884 c 0.0334,0 0.18608,-0.344 0.18608,-0.4192 0,-0.047 -0.0574,-0.1514 -0.12757,-0.233 -0.26081,-0.3032 -0.78062,-0.1167 -0.77865,0.2794 10e-4,0.2014 0.0341,0.2602 0.21667,0.3849 0.10032,0.069 0.17596,0.078 0.31145,0.039 0.0984,-0.028 0.18482,-0.052 0.19202,-0.052 z m -78.10682,-3.1747 v -5.9528 h 36.36851 36.36848 v 5.9528 5.9527 h -36.36848 -36.36851 z m 2.60787,2.7382 c 0,-0.9099 0.021,-1.5477 0.05,-1.5166 0.0275,0.03 0.2865,0.7369 0.57553,1.5717 l 0.52554,1.5179 0.96498,-0.015 0.96499,-0.015 0.52428,-1.4932 c 0.28836,-0.8213 0.53905,-1.5079 0.55711,-1.526 0.018,-0.018 0.0328,0.6602 0.0328,1.5073 v 1.5401 h 0.96379 0.96377 v -4.3666 -4.3667 l -0.9739,0.015 -0.9739,0.015 -1.0084,2.913 c -0.55464,1.6021 -1.02205,2.9266 -1.03871,2.9433 -0.0167,0.016 -0.0386,0.02 -0.0487,0.01 -0.0102,-0.013 -0.28931,-0.8144 -0.62035,-1.7811 -0.33107,-0.9666 -0.7849,-2.2868 -1.00852,-2.9338 l -0.4066,-1.1764 h -0.98564 -0.98564 v 4.3654 4.3653 h 0.96378 0.96378 z m 9.09442,1.3294 c 0.0493,-0.1325 0.31637,-0.8915 0.59347,-1.6866 l 0.50382,-1.4457 0.84992,-0.016 0.84992,-0.015 0.40797,1.1777 c 0.2244,0.6478 0.48903,1.4138 0.58809,1.7022 l 0.18011,0.5243 1.03464,10e-5 c 0.56905,10e-5 1.03464,-0.01 1.03464,-0.018 0,-0.01 -0.67605,-1.9667 -1.50235,-4.3483 -0.82631,-2.3816 -1.50236,-4.3384 -1.50236,-4.3484 0,-0.01 -0.4877,-0.011 -1.08378,-0.01 l -1.08378,0.015 -1.49502,4.3087 c -0.82226,2.3697 -1.49535,4.3277 -1.49575,4.3511 0,0.023 0.45637,0.043 1.01506,0.043 h 1.01578 l 0.0896,-0.241 z m 8.83363,-1.0036 0.0152,-1.2445 1.13121,1.2445 1.13122,1.2446 h 0.95423 0.95422 l -0.63978,-0.7482 c -0.35187,-0.4114 -1.19398,-1.3973 -1.87136,-2.1908 l -1.23158,-1.4427 0.27259,-0.3178 c 0.14992,-0.1748 0.94422,-1.1087 1.7651,-2.0753 0.82088,-0.9666 1.53063,-1.8021 1.57723,-1.8567 0.0802,-0.094 0.0337,-0.099 -0.87368,-0.096 l -0.95838,0.01 -1.10552,1.2545 -1.1055,1.2544 -0.0152,-1.2575 -0.0153,-1.2575 h -0.96269 -0.9627 v 4.3653 4.3654 h 0.9627 0.96269 z m 10.19164,0.2808 v -0.9638 h -1.7008 -1.70078 v -0.737 -0.737 h 1.24725 1.24723 v -0.9638 -0.9637 h -1.24723 -1.24725 v -0.737 -0.7371 h 1.70078 1.7008 v -0.9637 -0.9638 h -2.66458 -2.66456 v 4.3653 4.3654 h 2.66456 2.66458 z m 2.83464,-0.72 c 0,-1.0185 0.0205,-1.6625 0.0518,-1.6299 0.0285,0.029 0.38947,0.7873 0.80215,1.6838 l 0.75031,1.6299 h 0.98369 c 0.54103,0 0.98368,-0.012 0.98368,-0.027 0,-0.015 -0.37313,-0.8366 -0.82919,-1.8259 -0.50614,-1.098 -0.8038,-1.8073 -0.76405,-1.8205 0.39103,-0.1304 1.06446,-0.8607 1.26285,-1.3696 0.18373,-0.4714 0.20895,-1.3883 0.0506,-1.8404 -0.24618,-0.7028 -0.80346,-1.3263 -1.46422,-1.6384 l -0.38197,-0.1803 -1.68661,-0.018 -1.68662,-0.017 v 4.3685 4.3684 h 0.96378 0.96378 z m 12.64252,0.011 v -1.6725 h 0.44313 c 0.9619,0 1.62913,-0.2482 2.19734,-0.8172 1.32282,-1.3249 0.94903,-3.4833 -0.74859,-4.3228 l -0.43989,-0.2174 -1.68977,-0.018 -1.68978,-0.017 v 4.3684 4.3685 h 0.96378 0.96378 z m 6.20308,1.4314 c 0.0493,-0.1325 0.31635,-0.8914 0.59347,-1.6866 l 0.50382,-1.4456 0.84992,-0.016 0.84991,-0.015 0.40798,1.1778 c 0.22439,0.6478 0.48903,1.4138 0.58809,1.7021 l 0.18011,0.5244 1.03464,1e-4 c 0.56905,0 1.03464,-0.01 1.03464,-0.018 0,-0.01 -0.67605,-1.9667 -1.50236,-4.3482 -0.8263,-2.3816 -1.50235,-4.3384 -1.50235,-4.3485 0,-0.01 -0.48771,-0.011 -1.08379,-0.01 l -1.08378,0.015 -1.49502,4.3086 c -0.82226,2.3698 -1.49535,4.3278 -1.49574,4.3512 0,0.023 0.45636,0.043 1.01505,0.043 h 1.01578 l 0.0896,-0.2409 z m 19.70558,-0.7228 v -0.9639 h -1.7008 -1.70078 v -0.7369 -0.737 h 1.24724 1.24724 v -0.9638 -0.9638 h -1.24724 -1.24724 v -0.737 -0.737 h 1.70078 1.7008 v -0.9638 -0.9637 h -2.66457 -2.66457 v 4.3653 4.3654 h 2.66457 2.66457 z m -30.77605,0.7957 c 1.87099,-0.5782 2.47774,-2.9575 1.10409,-4.3294 -0.49775,-0.4972 -1.03316,-0.7282 -1.86708,-0.8056 -0.31689,-0.03 -0.42016,-0.066 -0.57487,-0.2015 -0.51303,-0.4504 -0.1625,-1.2419 0.55001,-1.2419 0.24379,0 0.30617,0.025 0.47387,0.1931 0.1062,0.1062 0.20889,0.272 0.22818,0.3685 l 0.0351,0.1754 h 0.9567 0.95669 v -0.1582 c 0,-0.2538 -0.15552,-0.7802 -0.33443,-1.1319 -0.32596,-0.641 -0.84295,-1.0839 -1.5395,-1.3191 -0.30365,-0.1025 -0.46217,-0.1199 -0.93752,-0.1025 -0.52995,0.019 -0.60515,0.037 -1.02048,0.2423 -0.81011,0.4 -1.35947,1.1522 -1.50504,2.0606 -0.15793,0.9857 0.30672,2.0216 1.15579,2.5765 0.42104,0.2752 0.73018,0.3829 1.27711,0.4451 0.26208,0.03 0.55031,0.092 0.64051,0.139 0.40165,0.2076 0.44788,0.8135 0.0873,1.1439 -0.17758,0.1627 -0.24203,0.1861 -0.51147,0.1861 -0.36478,0 -0.60949,-0.1656 -0.71445,-0.4837 l -0.0651,-0.1965 h -0.96437 -0.96435 l 0.0373,0.2409 c 0.16201,1.0468 0.86471,1.8916 1.83004,2.2002 0.45146,0.1443 1.19656,0.1437 1.66579,0 z m 22.24351,-0.025 c 1.09599,-0.348 1.97593,-1.2954 2.26711,-2.4409 0.0472,-0.1859 0.0859,-0.4474 0.0859,-0.5811 v -0.2433 h -0.96379 -0.96378 l -0.001,0.1843 c -0.003,0.402 -0.39297,0.9713 -0.81544,1.1897 -0.32359,0.1672 -0.88589,0.1691 -1.19592,0.01 -0.28445,-0.1515 -0.54396,-0.4247 -0.71673,-0.7544 -0.12891,-0.246 -0.13365,-0.3005 -0.13365,-1.5307 0,-1.2113 0.007,-1.2899 0.13045,-1.5591 0.16261,-0.3533 0.42479,-0.634 0.71993,-0.771 0.27782,-0.1288 0.84105,-0.1413 1.1201,-0.025 0.46126,0.1927 0.81521,0.6619 0.87403,1.1585 l 0.0343,0.2892 h 0.95588 0.95588 v -0.2715 c 0,-0.7395 -0.39667,-1.6073 -1.01578,-2.2222 -0.70426,-0.6996 -1.34402,-0.9645 -2.3291,-0.9645 -0.985,0 -1.62656,0.2648 -2.33056,0.9619 -0.34264,0.3392 -0.47843,0.5261 -0.66034,0.9089 -0.35379,0.7445 -0.38233,0.9287 -0.38233,2.4662 0,1.5354 0.0289,1.7229 0.37922,2.4587 0.39768,0.8355 1.24683,1.561 2.09329,1.7887 0.50543,0.136 1.38589,0.1142 1.89259,-0.046 z m 15.88302,-0.9668 c -0.0204,-0.053 -0.0371,-0.4083 -0.0371,-0.7892 v -0.6925 l -0.215,-0.2099 -0.21499,-0.21 h -0.73933 c -0.40664,0 -0.75729,-0.018 -0.77924,-0.04 -0.0219,-0.022 1.80428,-1.8888 4.05827,-4.1484 3.58276,-3.5917 4.12229,-4.1113 4.29001,-4.1316 0.1818,-0.022 0.2374,0.023 1.06298,0.848 0.66042,0.6605 0.87115,0.9056 0.87115,1.0133 0,0.11 -0.30143,0.4423 -1.33525,1.472 -0.73439,0.7314 -1.34625,1.3401 -1.35969,1.3525 -0.0134,0.012 -0.20556,-0.1617 -0.42697,-0.3871 -0.39072,-0.3978 -0.40583,-0.4069 -0.51332,-0.3097 -0.1085,0.098 -0.10267,0.1084 0.28824,0.5019 0.21943,0.221 0.39896,0.4163 0.39896,0.4343 0,0.059 -0.63978,0.6734 -0.70169,0.6734 -0.0335,0 -0.23274,-0.1706 -0.44288,-0.3791 -0.37852,-0.3756 -0.38315,-0.3782 -0.49961,-0.2728 l -0.11753,0.1064 0.39896,0.4016 c 0.21944,0.221 0.39898,0.4181 0.39898,0.4381 0,0.072 -0.65366,0.6673 -0.73358,0.6684 -0.0449,0 -0.24249,-0.1687 -0.43916,-0.3763 -0.35248,-0.3721 -0.35924,-0.376 -0.47329,-0.2728 -0.11513,0.1042 -0.11376,0.1067 0.28327,0.5064 0.21944,0.2209 0.39897,0.4213 0.39897,0.4453 0,0.075 -0.61983,0.6624 -0.69937,0.6624 -0.0417,0 -0.24467,-0.175 -0.45115,-0.3889 l -0.37542,-0.3889 -0.11637,0.1239 -0.11638,0.1238 0.39746,0.3837 c 0.2186,0.2111 0.39745,0.4063 0.39745,0.4339 0,0.062 -0.57869,0.6762 -0.63719,0.6762 -0.0233,0 -0.21952,-0.1849 -0.43594,-0.411 -0.38065,-0.3976 -0.39635,-0.4073 -0.48043,-0.2976 -0.0478,0.062 -0.0877,0.1261 -0.0887,0.1417 -10e-4,0.015 0.16401,0.1983 0.36669,0.4061 0.20268,0.2077 0.36762,0.399 0.36654,0.4252 -10e-4,0.026 -0.34154,0.3886 -0.75659,0.8056 -0.59617,0.599 -0.76244,0.7379 -0.79175,0.6615 z m 6.71252,-8.129 c 0.26594,-0.2153 0.0927,-0.6891 -0.25195,-0.6891 -0.22771,0 -0.37484,0.1558 -0.37484,0.3969 0,0.3568 0.34716,0.5186 0.62679,0.2922 z m -89.91832,-24.7835 v -20.126 l 29.7496,0.01 c 17.9096,0.01 29.45627,0.028 29.0126,0.058 -0.40536,0.028 -0.88954,0.069 -1.07596,0.091 l -0.33895,0.041 -0.6639,5.5843 c -0.36516,3.0713 -0.66546,5.5987 -0.66736,5.6163 -0.002,0.018 -0.3032,0.078 -0.66958,0.1342 -3.12114,0.4784 -6.85481,1.481 -9.53543,2.5606 -0.2633,0.106 -0.50566,0.1919 -0.53857,0.1907 -0.0329,0 -0.31837,-0.352 -0.63434,-0.7796 -0.31597,-0.4275 -1.83454,-2.4648 -3.37461,-4.5272 l -2.80012,-3.7499 -0.9624,0.4655 c -1.51785,0.7342 -3.36073,1.7494 -4.87422,2.6852 -0.92978,0.575 -2.80629,1.8367 -2.80629,1.8868 0,0.027 0.98525,2.3399 2.18943,5.1393 1.2042,2.7994 2.2009,5.1298 2.21489,5.1786 0.0172,0.06 -0.20139,0.2737 -0.67291,0.6582 -2.35333,1.919 -4.66555,4.2312 -6.58454,6.5845 -0.38288,0.4695 -0.59852,0.6902 -0.65817,0.6734 -0.0488,-0.014 -2.3803,-1.0104 -5.18114,-2.2149 -2.80085,-1.2044 -5.11149,-2.1899 -5.13476,-2.1899 -0.0561,0 -0.80983,1.1057 -1.54586,2.2677 -1.12244,1.772 -2.148,3.6034 -2.99967,5.3565 l -0.4953,1.0196 3.2835,2.4528 3.28349,2.453 h 8.75188 8.75187 l 0.10074,-0.1559 c 0.21466,-0.3322 1.14832,-1.547 1.66567,-2.1672 3.98137,-4.7731 9.2581,-8.3703 15.12662,-10.312 3.0189,-0.9989 5.94481,-1.5226 9.20802,-1.6481 7.9082,-0.3043 15.62493,2.2147 21.84583,7.1312 2.37671,1.8783 4.6875,4.2885 6.40876,6.6843 l 0.33604,0.4677 h 8.74411 8.74411 l 3.28434,-2.4531 3.28434,-2.4532 -0.49475,-1.0193 c -0.63393,-1.3061 -1.42827,-2.7627 -2.28715,-4.1941 -0.76124,-1.2687 -2.18211,-3.4299 -2.25495,-3.4299 -0.026,0 -2.33867,0.9854 -5.13916,2.1899 -2.80052,1.2045 -5.13107,2.201 -5.17905,2.2145 -0.0578,0.016 -0.29646,-0.2298 -0.70789,-0.7301 -1.94618,-2.3663 -4.11293,-4.533 -6.47923,-6.4792 -0.50013,-0.4114 -0.74637,-0.6501 -0.73012,-0.7079 0.0135,-0.048 1.01001,-2.3791 2.2145,-5.1804 1.20448,-2.8012 2.18997,-5.1138 2.18997,-5.1391 0,-0.072 -2.17796,-1.5026 -3.42993,-2.2524 -1.45841,-0.8736 -2.91223,-1.667 -4.194,-2.2887 l -1.0192,-0.4943 -3.11987,4.1756 c -1.71592,2.2965 -3.23446,4.3342 -3.3745,4.5282 -0.14005,0.194 -0.28157,0.3535 -0.31448,0.3544 -0.0329,0 -0.27528,-0.085 -0.53859,-0.1912 -2.655,-1.0693 -6.35705,-2.0687 -9.3795,-2.5321 -0.43655,-0.067 -0.8028,-0.1302 -0.81392,-0.1406 -0.0112,-0.011 -0.31851,-2.5398 -0.68312,-5.6208 l -0.66293,-5.6019 -0.33735,-0.041 c -0.18554,-0.023 -0.68175,-0.064 -1.10268,-0.091 -0.45686,-0.03 11.23804,-0.053 29.01258,-0.058 l 29.77795,-0.01 v 20.1259 20.126 h -62.36219 -62.3622 z m 44.12551,16.9178 c 1.75324,-1.6682 3.84818,-3.1257 6.18944,-4.3063 3.83655,-1.9345 7.73466,-2.8598 12.04725,-2.8598 3.08918,0 5.84588,0.4575 8.73306,1.4493 3.54594,1.2182 6.98298,3.2954 9.58535,5.7931 l 0.54692,0.525 2.87037,-0.015 2.87036,-0.015 -0.29542,-0.3685 c -1.06215,-1.3249 -2.80399,-3.1305 -4.04293,-4.1909 -4.63552,-3.9674 -10.28228,-6.4963 -16.20269,-7.2565 -1.52493,-0.1958 -2.41491,-0.2507 -4.06502,-0.2507 -2.08363,0 -3.82478,0.1537 -5.66061,0.4996 -7.24925,1.366 -13.57021,5.0967 -18.34908,10.83 -0.20792,0.2494 -0.42861,0.5236 -0.4904,0.6094 l -0.11236,0.1559 h 2.87247 2.87245 z"
     id="path118"
     inkscape:connector-curvature="0" />
</svg>
