<?xml version="1.0" encoding="UTF-8" standalone="no"?>
<!-- Created with Inkscape (http://www.inkscape.org/) -->

<svg
   xmlns:dc="http://purl.org/dc/elements/1.1/"
   xmlns:cc="http://creativecommons.org/ns#"
   xmlns:rdf="http://www.w3.org/1999/02/22-rdf-syntax-ns#"
   xmlns:svg="http://www.w3.org/2000/svg"
   xmlns="http://www.w3.org/2000/svg"
   xmlns:sodipodi="http://sodipodi.sourceforge.net/DTD/sodipodi-0.dtd"
   xmlns:inkscape="http://www.inkscape.org/namespaces/inkscape"
   width="210mm"
   height="297mm"
   viewBox="0 0 210 297"
   version="1.1"
   id="svg8"
   inkscape:version="0.92.2 (5c3e80d, 2017-08-06)"
   sodipodi:docname="logo.svg">
  <defs
     id="defs2" />
  <sodipodi:namedview
     id="base"
     pagecolor="#ffffff"
     bordercolor="#666666"
     borderopacity="1.0"
     inkscape:pageopacity="0.0"
     inkscape:pageshadow="2"
     inkscape:zoom="0.7"
     inkscape:cx="407.36348"
     inkscape:cy="532.46737"
     inkscape:document-units="mm"
     inkscape:current-layer="layer1"
     showgrid="false"
     inkscape:window-width="1920"
     inkscape:window-height="1019"
     inkscape:window-x="-9"
     inkscape:window-y="-9"
     inkscape:window-maximized="1" />
  <metadata
     id="metadata5">
    <rdf:RDF>
      <cc:Work
         rdf:about="">
        <dc:format>image/svg+xml</dc:format>
        <dc:type
           rdf:resource="http://purl.org/dc/dcmitype/StillImage" />
        <dc:title></dc:title>
      </cc:Work>
    </rdf:RDF>
  </metadata>
  <g
     inkscape:label="Ebene 1"
     inkscape:groupmode="layer"
     id="layer1">
    <path
       style="fill:#000000;stroke-width:0.08566315"
       d="m 99.433418,231.53604 c -2.015977,-0.1064 -3.847801,-0.25971 -3.904542,-0.32678 -0.0273,-0.0323 -0.482284,-3.75939 -1.010995,-8.2824 -0.528718,-4.52302 -0.980164,-8.32299 -1.003218,-8.4444 -0.04111,-0.21666 -0.07304,-0.22578 -1.730229,-0.49461 -4.26924,-0.69254 -8.815912,-1.89922 -12.696011,-3.36947 -0.871624,-0.33027 -1.661872,-0.61666 -1.756092,-0.6364 -0.133423,-0.0279 -0.285023,0.12079 -0.685124,0.67223 -0.282588,0.38947 -2.577138,3.47019 -5.098996,6.84607 l -4.585212,6.13793 -1.539896,-0.74689 c -1.936629,-0.93932 -4.133415,-2.13808 -6.337026,-3.45803 -1.914391,-1.14671 -5.182621,-3.29475 -5.182621,-3.40626 0,-0.0398 1.489024,-3.53419 3.308942,-7.7653 1.819924,-4.23113 3.32567,-7.75226 3.346114,-7.82474 0.02467,-0.0874 -0.347,-0.44775 -1.103115,-1.06962 -3.575474,-2.94068 -6.849464,-6.21467 -9.790142,-9.79014 -0.62188,-0.75612 -0.982241,-1.12777 -1.069623,-1.10312 -0.07248,0.0204 -3.593611,1.52619 -7.824727,3.34611 -4.231121,1.81992 -7.725573,3.30894 -7.765449,3.30894 -0.111604,0 -2.260221,-3.26666 -3.408819,-5.18262 -1.299741,-2.16807 -2.499425,-4.36862 -3.455161,-6.33773 l -0.747756,-1.5406 4.848249,-3.62061 4.848248,-3.6206 h 13.377465 13.377467 l 0.813861,1.09221 c 7.936138,10.6504 19.680315,17.764 32.619743,19.7582 13.951797,2.15023 27.927657,-1.51661 38.933907,-10.21508 3.56282,-2.81578 6.88481,-6.27154 9.62666,-10.01427 l 0.45497,-0.62106 h 13.38186 13.38184 l 4.84988,3.62183 4.84989,3.62182 -0.70629,1.45371 c -1.12969,2.32515 -2.65735,5.09628 -4.05988,7.36448 -0.84803,1.37144 -2.77428,4.24032 -2.84709,4.24032 -0.0389,0 -3.53336,-1.48906 -7.76545,-3.30903 -4.23208,-1.81997 -7.75524,-3.32604 -7.82924,-3.34684 -0.0899,-0.0252 -0.36004,0.24121 -0.81379,0.80265 -2.83654,3.50964 -6.42648,7.11681 -10.04321,10.09143 -0.75648,0.62218 -1.12775,0.98219 -1.10303,1.06962 0.0205,0.0725 1.52623,3.59331 3.34611,7.82405 1.81987,4.23074 3.30885,7.72519 3.30885,7.76544 0,0.11218 -3.26124,2.25766 -5.18261,3.40951 -2.16775,1.29955 -4.36858,2.4994 -6.33675,3.45468 l -1.53962,0.74728 -4.32831,-5.7957 c -2.38057,-3.18764 -4.67524,-6.26626 -5.09928,-6.84139 -0.42403,-0.57513 -0.81166,-1.0471 -0.8614,-1.04883 -0.0497,-0.002 -0.41594,0.12796 -0.8138,0.28819 -3.98673,1.60565 -9.68545,3.1446 -14.17248,3.82733 -0.6596,0.10036 -1.21228,0.19463 -1.22816,0.2095 -0.0159,0.0149 -0.48007,3.83675 -1.03155,8.49308 l -1.00268,8.46605 -0.46754,0.0567 c -1.97553,0.23948 -8.1643,0.37951 -10.747142,0.24318 z m 1.226432,-38.63952 c -13.150396,-0.68098 -25.286476,-6.78704 -33.792659,-17.00218 -0.416203,-0.49983 -0.769589,-0.94446 -0.785291,-0.98806 -0.01724,-0.0479 1.688119,-0.0793 4.312587,-0.0793 h 4.341132 l 0.870036,0.82371 c 3.806738,3.604 9.002643,6.72813 14.155426,8.51122 6.035231,2.08844 12.437939,2.73069 18.752629,1.88103 8.25379,-1.11055 16.26859,-4.91061 22.13833,-10.49642 l 0.7561,-0.71954 h 4.33623 c 2.38492,0 4.33621,0.0223 4.33621,0.0496 0,0.0833 -0.96235,1.23316 -2.08131,2.48679 -2.83785,3.17936 -6.3913,6.1678 -10.06838,8.46748 -8.14639,5.09481 -17.67184,7.56278 -27.27104,7.06569 z M 8.8446405,146.00135 V 121.20186 H 103.0741 197.30356 v 24.79949 24.79949 H 103.0741 8.8446405 Z M 145.79554,167.34983 c 1.0966,-1.0966 1.30942,-1.35047 1.30942,-1.56198 0,-0.22018 -0.79879,-1.05167 -6.23199,-6.4871 l -6.232,-6.23457 -0.0429,1.2845 c -0.0421,1.26407 -0.0466,1.28828 -0.28012,1.52172 -0.2315,0.2314 -0.26649,0.23825 -1.43269,0.28003 l -1.19542,0.0429 1.08323,1.0922 c 0.59577,0.60071 1.10466,1.0922 1.13087,1.0922 0.0262,0 0.32033,-0.27088 0.65361,-0.60193 l 0.60598,-0.60194 0.18685,0.1989 0.18685,0.19889 -0.59807,0.59349 c -0.32894,0.32642 -0.59808,0.62001 -0.59808,0.65243 0,0.0324 0.21546,0.27964 0.47879,0.54935 l 0.47882,0.49043 0.6347,-0.63047 0.6347,-0.63046 0.19052,0.19052 0.19052,0.19052 -0.57588,0.58033 c -0.31675,0.31918 -0.57589,0.62316 -0.57589,0.67551 0,0.0524 0.21157,0.32069 0.47016,0.59632 l 0.47015,0.50117 0.64335,-0.63905 0.64334,-0.63905 0.1906,0.1906 0.1906,0.1906 -0.64022,0.64572 -0.64021,0.64572 0.54779,0.51757 0.54779,0.51759 0.62995,-0.62577 0.62997,-0.62575 0.1906,0.19059 0.1906,0.1906 -0.63068,0.63492 -0.63068,0.63492 0.45263,0.47858 c 0.24894,0.26322 0.51352,0.47858 0.58796,0.47858 0.0744,0 0.39648,-0.25914 0.71566,-0.57588 l 0.58034,-0.57589 0.19052,0.19053 0.19053,0.19051 -0.63878,0.64308 -0.63879,0.64307 1.92599,1.93377 c 1.82995,1.83734 2.10025,2.07281 2.39408,2.08553 0.069,0.003 0.71467,-0.58381 1.43486,-1.30399 z m -1.82118,-1.04241 c -0.11564,-0.11566 -0.21026,-0.31015 -0.21026,-0.43222 0,-0.12207 0.0946,-0.31657 0.21026,-0.43221 0.11564,-0.11565 0.31014,-0.21026 0.43221,-0.21026 0.12206,0 0.31656,0.0946 0.43222,0.21026 0.11564,0.11564 0.21025,0.31014 0.21025,0.43221 0,0.12207 -0.0946,0.31656 -0.21025,0.43222 -0.11566,0.11564 -0.31016,0.21025 -0.43222,0.21025 -0.12207,0 -0.31657,-0.0946 -0.43221,-0.21025 z m 4.52918,-1.49318 c 0.36154,-0.3715 0.65733,-0.70327 0.65733,-0.73726 0,-0.034 -0.27022,-0.34048 -0.6005,-0.6811 -0.5719,-0.58981 -0.5931,-0.62598 -0.44513,-0.75989 0.14637,-0.13245 0.1849,-0.11057 0.66475,0.37765 0.74978,0.76284 0.73231,0.75958 1.28159,0.24009 0.25845,-0.24443 0.46991,-0.50532 0.46991,-0.57976 0,-0.0744 -0.259,-0.39634 -0.57556,-0.71532 -0.54473,-0.54895 -0.56764,-0.5879 -0.42792,-0.72762 0.13971,-0.13971 0.17866,-0.1168 0.7276,0.42793 0.31899,0.31656 0.63563,0.57556 0.70366,0.57556 0.1398,0 1.02849,-0.84694 1.02849,-0.98019 0,-0.0477 -0.27128,-0.35968 -0.60285,-0.69347 l -0.60284,-0.6069 0.1776,-0.16073 c 0.17597,-0.15925 0.18296,-0.15543 0.75491,0.41214 0.31752,0.31508 0.63294,0.57287 0.70095,0.57287 0.16506,0 1.02851,-0.85874 1.02851,-1.02288 0,-0.0711 -0.259,-0.39026 -0.57556,-0.70926 -0.54473,-0.54895 -0.56764,-0.5879 -0.42793,-0.72762 0.13972,-0.1397 0.17866,-0.1168 0.72761,0.42794 0.319,0.31655 0.63563,0.57554 0.70364,0.57554 0.13982,0 1.0285,-0.84693 1.0285,-0.98018 0,-0.0476 -0.27127,-0.35968 -0.60284,-0.69347 l -0.60285,-0.60689 0.17761,-0.16074 c 0.17597,-0.15923 0.18296,-0.15543 0.75491,0.41214 0.31751,0.31508 0.63526,0.57287 0.70611,0.57287 0.0708,0 1.00467,-0.87889 2.07518,-1.95309 1.68156,-1.68739 1.94637,-1.98849 1.94637,-2.21312 0,-0.22143 -0.19385,-0.45272 -1.30637,-1.55875 -1.09776,-1.09137 -1.34716,-1.29881 -1.56186,-1.29908 -0.22405,0 -0.96487,0.70874 -6.01783,5.75965 -3.16929,3.16799 -5.76234,5.79852 -5.76234,5.84562 0,0.11669 2.92984,3.0428 3.04669,3.0428 0.0512,0 0.38894,-0.30396 0.75046,-0.67548 z m 7.81021,-10.73235 c -0.23135,-0.13399 -0.29696,-0.24484 -0.29852,-0.5044 -0.002,-0.30395 0.16477,-0.49718 0.48233,-0.55953 0.69314,-0.13609 0.89202,0.96471 0.20167,1.11616 -0.11778,0.0259 -0.29126,0.002 -0.38548,-0.0522 z m 20.14211,10.86043 c 1.09497,-0.29155 2.0898,-1.09042 2.58145,-2.07295 0.36606,-0.73154 0.47793,-1.30315 0.42766,-2.18505 -0.0364,-0.63843 -0.0912,-0.85789 -0.35032,-1.40354 -0.17846,-0.37578 -0.4901,-0.84023 -0.74381,-1.10848 -0.44416,-0.46964 -1.33987,-1.00741 -1.86201,-1.11792 l -0.2784,-0.0589 v -12.88552 -12.88549 h 2.90574 2.90574 l 0.0603,0.27839 c 0.10563,0.48793 0.5559,1.27688 0.9918,1.73777 0.74132,0.78384 1.82016,1.237 2.94488,1.237 1.913,0 3.54291,-1.29211 3.98278,-3.15733 0.067,-0.28393 0.0921,-0.75162 0.0655,-1.21772 -0.0364,-0.63842 -0.0912,-0.85789 -0.35032,-1.40354 -1.21196,-2.55205 -4.48712,-3.16343 -6.54095,-1.221 -0.43184,0.40841 -1.14041,1.598 -1.14041,1.91459 0,0.1 -1.04159,0.11857 -6.6389,0.11857 -5.59729,0 -6.63889,-0.0186 -6.63889,-0.11857 0,-0.0652 -0.15342,-0.42511 -0.34093,-0.79977 -0.70947,-1.41745 -2.05638,-2.24916 -3.64241,-2.24916 -1.61609,0 -2.99723,0.87967 -3.69802,2.35534 -0.70542,1.48541 -0.40097,3.32129 0.75314,4.54159 0.74132,0.78384 1.82016,1.237 2.94488,1.237 1.12474,0 2.20357,-0.45316 2.94489,-1.237 0.4359,-0.46089 0.88617,-1.24984 0.9918,-1.73777 l 0.0603,-0.27839 h 2.86292 2.8629 v 12.89067 12.89067 l -0.23557,0.0555 c -0.50444,0.11874 -1.39525,0.66279 -1.81918,1.11105 -0.25371,0.26825 -0.56535,0.73269 -0.74381,1.10848 -0.70542,1.48539 -0.40097,3.32129 0.75313,4.54158 0.45022,0.47603 1.22294,0.93775 1.86654,1.11529 0.52902,0.14593 1.57835,0.14825 2.11759,0.005 z m -1.55321,-0.82498 c -0.62302,-0.0891 -1.22497,-0.40279 -1.71657,-0.89439 -1.25529,-1.25529 -1.25529,-3.2058 0,-4.4611 1.24735,-1.24735 3.21375,-1.24735 4.4611,0 2.17426,2.17427 0.31931,5.79391 -2.74453,5.35549 z m -10.62223,-30.58175 c -0.62302,-0.0892 -1.22496,-0.40279 -1.71657,-0.89438 -1.25529,-1.2553 -1.25529,-3.20581 0,-4.46111 1.24735,-1.24735 3.21375,-1.24735 4.4611,0 2.17426,2.17427 0.3193,5.79391 -2.74453,5.35549 z m 21.24446,0 c -0.62302,-0.0892 -1.22497,-0.40279 -1.71657,-0.89438 -1.25529,-1.2553 -1.25529,-3.20581 0,-4.46111 1.24735,-1.24735 3.21375,-1.24735 4.4611,0 2.17427,2.17427 0.31931,5.79391 -2.74453,5.35549 z m -32.4883,19.89759 c 1.35485,-1.35425 2.46337,-2.49142 2.46337,-2.52706 0,-0.0356 -1.11791,-0.0648 -2.48424,-0.0648 h -2.48422 v 1.07079 1.07079 h -0.38549 -0.38548 v -1.07079 -1.07079 h -0.85663 -0.85664 v 1.07079 1.07079 h -0.34265 -0.34265 v -1.07079 -1.07079 h -1.48962 c -1.33903,0 -1.51006,0.0165 -1.69185,0.16375 l -0.20222,0.16377 v 2.19954 2.19955 l 0.20222,0.16377 c 0.19078,0.15447 0.37756,0.16375 3.29749,0.16375 h 3.09526 z m -19.02752,2.04218 c 0.15483,-0.19121 0.16076,-0.51235 0.16076,-8.69925 0,-8.21113 -0.006,-8.50569 -0.16105,-8.64647 -0.14017,-0.12686 -0.39694,-0.14708 -1.98058,-0.15599 l -1.81953,-0.0102 -0.15909,0.20695 c -0.1471,0.19135 -0.15924,0.40867 -0.161,2.88392 l -0.002,2.67698 h 1.0708 1.07079 v 0.42831 0.42831 h -1.07079 -1.0708 v 0.9423 0.94229 h 1.0708 1.07079 v 0.42832 0.42831 h -1.07079 -1.0708 v 1.0708 1.07079 h 1.0708 1.07079 v 0.38548 0.38548 h -1.07079 -1.0708 l 0.002,2.54848 c 8e-4,1.40167 0.0307,2.59475 0.0667,2.65129 0.13271,0.20877 0.50086,0.24952 2.17805,0.24108 1.68569,-0.008 1.7184,-0.0121 1.87636,-0.20716 z m -2.48857,-1.34757 c -0.4569,-0.58084 0.13881,-1.32801 0.80627,-1.01128 0.65452,0.31059 0.40646,1.23699 -0.33123,1.23699 -0.21937,0 -0.34414,-0.0593 -0.47504,-0.22571 z M 131.75731,140.58 c -0.27589,-0.18854 -0.32588,-0.27735 -0.32739,-0.58156 -0.003,-0.59847 0.78246,-0.88031 1.17655,-0.42218 0.10601,0.12323 0.19275,0.28165 0.19275,0.35203 0,0.11364 -0.23073,0.63345 -0.28118,0.63345 -0.0109,0 -0.14144,0.0349 -0.29015,0.0775 -0.20471,0.0588 -0.319,0.0443 -0.47058,-0.0593 z m -7.35308,-4.8154 v -8.99463 H 69.451314 14.498408 v 8.99463 8.99464 h 54.952906 54.952916 z m -108.877864,-0.0857 v -6.59607 h 1.489305 1.489305 l 0.614369,1.77751 c 0.337903,0.97764 1.023642,2.97252 1.523863,4.43307 0.500221,1.46056 0.922037,2.67162 0.937367,2.69125 0.01534,0.0196 0.04847,0.0151 0.07364,-0.0101 0.02517,-0.0252 0.731435,-2.02647 1.569478,-4.44734 l 1.523715,-4.40158 1.471564,-0.0235 1.471564,-0.0235 v 6.59809 6.59808 h -1.456273 -1.456274 v -2.32718 c 0,-1.27995 -0.02232,-2.30486 -0.04961,-2.27758 -0.02728,0.0272 -0.406094,1.06488 -0.8418,2.30577 l -0.792194,2.25616 -1.458094,0.0234 -1.458095,0.0234 -0.794078,-2.29346 c -0.436744,-1.26139 -0.828083,-2.33007 -0.869642,-2.37484 -0.04378,-0.0472 -0.07556,0.91662 -0.07556,2.29149 v 2.37287 H 16.982643 15.52637 Z m 13.450211,6.53181 c 5.97e-4,-0.0354 1.01764,-2.99392 2.260082,-6.57465 l 2.258986,-6.51039 1.63759,-0.0232 c 0.900676,-0.0128 1.637592,-0.0109 1.637592,0.005 0,0.0152 1.021533,2.97193 2.270074,6.5705 1.248541,3.59858 2.270074,6.55521 2.270074,6.57028 0,0.0151 -0.703511,0.0274 -1.563355,0.0273 l -1.563354,-9e-5 -0.272143,-0.79228 c -0.149681,-0.43579 -0.549548,-1.59318 -0.888598,-2.57201 l -0.616454,-1.77968 -1.284224,0.0236 -1.284224,0.0236 -0.761288,2.18441 c -0.418709,1.20142 -0.822233,2.34824 -0.896719,2.54848 l -0.135433,0.36406 h -1.534852 c -0.844167,0 -1.534358,-0.0289 -1.533754,-0.0643 z m 13.619343,-6.53181 v -6.59607 h 1.454637 1.454634 l 0.02308,1.90014 0.02308,1.90014 1.670429,-1.89546 1.670435,-1.89546 1.448133,-0.005 c 1.371071,-0.005 1.441319,0.003 1.320122,0.14523 -0.07041,0.0825 -1.142845,1.34491 -2.383204,2.80547 -1.240353,1.46055 -2.440537,2.87164 -2.667073,3.13575 l -0.411885,0.48019 1.860933,2.17994 c 1.023509,1.19896 2.295946,2.68865 2.827631,3.31041 l 0.966708,1.13045 h -1.44184 -1.441835 l -1.709279,-1.88051 -1.709275,-1.88051 -0.02308,1.88051 -0.02308,1.88051 H 44.050557 42.59592 Z m 10.279577,0 v -6.59607 h 4.02617 4.026173 v 1.45628 1.45627 h -2.569899 -2.569896 v 1.11363 1.11362 h 1.88459 1.88459 v 1.45627 1.45627 h -1.88459 -1.88459 v 1.11362 1.11362 h 2.569896 2.569899 v 1.45627 1.45628 h -4.026173 -4.02617 z m 9.42295,-0.005 v -6.60075 l 2.548472,0.0261 2.548488,0.0261 0.577158,0.27256 c 0.998405,0.47146 1.840461,1.41368 2.212431,2.47558 0.239266,0.68306 0.201173,2.06858 -0.07647,2.78077 -0.299767,0.76896 -1.317315,1.87255 -1.908179,2.0695 -0.06003,0.02 0.389716,1.09165 1.154507,2.75075 0.689092,1.49487 1.252895,2.73644 1.252895,2.75904 0,0.0226 -0.668856,0.0411 -1.486349,0.0411 h -1.486348 l -1.133737,-2.46281 c -0.623553,-1.35455 -1.168971,-2.49944 -1.212038,-2.5442 -0.04734,-0.0493 -0.07831,0.92379 -0.07831,2.46282 v 2.54419 H 63.75469 62.29842 v -6.60055 z m 19.102878,0 v -6.60075 l 2.553253,0.0261 2.553262,0.0261 0.66468,0.32867 c 2.5651,1.26839 3.129892,4.52975 1.131126,6.53163 -0.858572,0.8599 -1.866757,1.23487 -3.3202,1.23487 h -0.669574 v 2.52707 2.52706 h -1.456277 -1.45627 v -6.60077 z m 9.081393,6.53651 c 4.55e-4,-0.0354 1.017636,-2.99393 2.26008,-6.57465 l 2.258979,-6.5104 1.637597,-0.0232 c 0.900673,-0.0128 1.637589,-0.0108 1.637589,0.005 0,0.0153 1.021531,2.97193 2.270077,6.57051 1.24854,3.59858 2.27007,6.5552 2.27007,6.57028 0,0.0151 -0.7035,0.0274 -1.56335,0.0273 l -1.563355,-9e-5 -0.272138,-0.79228 c -0.149684,-0.43576 -0.549554,-1.59315 -0.888603,-2.57198 l -0.616449,-1.77969 -1.284226,0.0236 -1.284227,0.0236 -0.761295,2.18441 c -0.418701,1.20143 -0.822227,2.34825 -0.896713,2.54848 l -0.135435,0.36407 h -1.534851 c -0.844164,0 -1.534357,-0.0289 -1.53375,-0.0643 z m 24.926882,-6.53181 v -6.59607 h 4.02616 4.02617 v 1.45627 1.45628 h -2.56989 -2.5699 v 1.11362 1.11362 h 1.88459 1.88459 v 1.45628 1.45627 h -1.88459 -1.88459 v 1.11362 1.11362 h 2.5699 2.56989 v 1.45628 1.45627 h -4.02617 -4.02616 z m -40.967385,6.34405 c -1.458601,-0.46628 -2.520397,-1.74282 -2.765203,-3.32443 l -0.05636,-0.36406 h 1.457155 1.457164 l 0.09802,0.29701 c 0.158608,0.48058 0.528367,0.73094 1.079549,0.73094 0.407126,0 0.504523,-0.0354 0.77283,-0.28134 0.544844,-0.49931 0.474987,-1.41466 -0.131898,-1.72849 -0.136297,-0.0705 -0.571817,-0.16496 -0.967824,-0.20996 -0.82641,-0.0939 -1.293526,-0.2567 -1.929724,-0.67254 -1.282933,-0.83855 -1.985036,-2.40368 -1.746393,-3.89309 0.219948,-1.37269 1.05003,-2.50918 2.274114,-3.11352 0.627585,-0.30984 0.741195,-0.33681 1.541932,-0.36611 0.718276,-0.0263 0.957798,-8e-5 1.41662,0.15482 1.052496,0.35537 1.833652,1.02465 2.326177,1.99306 0.27035,0.53155 0.505329,1.32692 0.505329,1.71043 v 0.23899 H 78.32815 76.882577 l -0.053,-0.26501 c -0.02914,-0.14577 -0.184305,-0.39633 -0.34479,-0.55681 -0.253379,-0.25339 -0.347631,-0.2918 -0.716001,-0.2918 -1.076604,0 -1.606248,1.19597 -0.831071,1.87659 0.233765,0.20524 0.389811,0.25992 0.86863,0.30438 1.260055,0.117 2.06907,0.46606 2.821161,1.21724 2.075592,2.07306 1.158786,5.66808 -1.668282,6.54179 -0.709008,0.21912 -1.834866,0.21998 -2.51702,0.002 z m 33.267315,0.031 c -1.279,-0.34396 -2.56207,-1.44029 -3.16296,-2.70262 -0.52932,-1.11196 -0.573,-1.39516 -0.573,-3.71521 0,-2.32323 0.0431,-2.60142 0.57771,-3.72635 0.27486,-0.57841 0.48004,-0.86084 0.99776,-1.37349 1.06375,-1.05329 2.03317,-1.45339 3.52149,-1.45339 1.48846,0 2.45514,0.4003 3.51928,1.45732 0.93546,0.92922 1.53484,2.24049 1.53484,3.35782 v 0.41031 h -1.44434 -1.44434 l -0.0518,-0.43709 c -0.0889,-0.7504 -0.62369,-1.45927 -1.32068,-1.75049 -0.42163,-0.17617 -1.27267,-0.15735 -1.69246,0.0374 -0.44597,0.20692 -0.84212,0.63119 -1.08782,1.16502 -0.1872,0.40675 -0.19713,0.52542 -0.19713,2.35575 0,1.8588 0.007,1.94114 0.20198,2.3129 0.26103,0.4982 0.65316,0.91089 1.08297,1.13977 0.46846,0.24947 1.31809,0.2466 1.80704,-0.006 0.63836,-0.32992 1.22802,-1.19019 1.23211,-1.79757 l 0.002,-0.2784 h 1.45627 1.45628 v 0.36748 c 0,0.20213 -0.0584,0.59725 -0.12978,0.87805 -0.43998,1.73084 -1.76958,3.16239 -3.42562,3.68829 -0.76563,0.24313 -2.09601,0.27596 -2.85971,0.0706 z m 29.19855,-3.74839 c 0.002,-0.0395 -0.2476,-0.32857 -0.55385,-0.64243 -0.30624,-0.31387 -0.55558,-0.58996 -0.55408,-0.61353 0.002,-0.0236 0.0619,-0.11997 0.13407,-0.21419 0.12704,-0.16573 0.15077,-0.15104 0.72591,0.44972 0.32703,0.34159 0.62345,0.62106 0.65873,0.62106 0.0884,0 0.96279,-0.92797 0.96279,-1.02178 0,-0.0417 -0.27024,-0.33666 -0.60054,-0.65554 l -0.60056,-0.57978 0.17584,-0.18716 0.17584,-0.18717 0.56726,0.58757 c 0.312,0.32317 0.61875,0.58759 0.68168,0.58759 0.1202,0 1.05675,-0.88696 1.05675,-1.0008 0,-0.0362 -0.27126,-0.33906 -0.60283,-0.67285 -0.59992,-0.60396 -0.602,-0.60767 -0.42803,-0.76512 0.17233,-0.15595 0.18255,-0.15007 0.71513,0.41214 0.29717,0.3137 0.59578,0.56958 0.66359,0.56863 0.12075,-0.002 1.10842,-0.9017 1.10842,-1.01004 0,-0.0303 -0.27128,-0.3281 -0.60285,-0.66189 l -0.60284,-0.6069 0.17761,-0.16073 c 0.17597,-0.15924 0.18296,-0.15543 0.7549,0.41214 0.31752,0.31507 0.61865,0.57288 0.6692,0.57288 0.0936,0 1.06026,-0.92778 1.06026,-1.01758 0,-0.0271 -0.27129,-0.3223 -0.60285,-0.65609 -0.59066,-0.59463 -0.59946,-0.60995 -0.43551,-0.75832 0.16241,-0.14698 0.18525,-0.1332 0.77562,0.46779 0.33454,0.34059 0.62487,0.60384 0.64517,0.585 0.0203,-0.0188 0.94481,-0.9385 2.05447,-2.04368 1.56211,-1.5558 2.01758,-2.05791 2.01758,-2.22418 0,-0.16281 -0.31842,-0.53317 -1.31631,-1.53106 -1.24745,-1.24746 -1.33147,-1.31449 -1.60619,-1.28134 -0.25341,0.0306 -1.06863,0.8157 -6.4822,6.24285 -3.40579,3.41433 -6.16522,6.235 -6.13205,6.26815 0.0331,0.0331 0.563,0.0603 1.17742,0.0603 h 1.11716 l 0.32484,0.31721 0.32485,0.31721 v 1.04639 c 0,0.57552 0.0252,1.11214 0.056,1.19249 0.0443,0.11542 0.29551,-0.0945 1.19633,-0.99954 0.62714,-0.63009 1.14158,-1.17792 1.14321,-1.2174 z m 7.04641,-10.04133 c -0.14121,-0.0989 -0.19039,-0.21935 -0.19039,-0.46629 0,-0.24694 0.0492,-0.36738 0.19039,-0.46629 0.41967,-0.29395 0.95178,-0.0333 0.95178,0.46629 0,0.49955 -0.53211,0.76025 -0.95178,0.46629 z m -113.621731,-14.71556 -4.938962,-3.69978 0.748399,-1.54053 c 1.286874,-2.64894 2.836515,-5.41614 4.532523,-8.09375 1.112125,-1.755793 2.251034,-3.426527 2.335802,-3.426527 0.03515,0 3.526543,1.489066 7.758627,3.309037 4.232082,1.81997 7.755009,3.32599 7.828728,3.3467 0.09011,0.0253 0.415967,-0.30809 0.994488,-1.01755 2.899617,-3.555897 6.393383,-7.049663 9.949279,-9.94928 0.712456,-0.580963 1.042725,-0.903995 1.016757,-0.994489 -0.02115,-0.07371 -1.527164,-3.594896 -3.346697,-7.824846 -1.819536,-4.229948 -3.308247,-7.7244 -3.308247,-7.765446 0,-0.07587 2.835428,-1.982255 4.240325,-2.850966 2.286896,-1.414088 5.071472,-2.948115 7.364952,-4.057366 l 1.454187,-0.703326 4.230987,5.666035 c 2.327047,3.116319 4.621613,6.194618 5.099043,6.840666 0.477422,0.646046 0.908744,1.176087 0.958484,1.177868 0.04973,0.0018 0.415947,-0.127862 0.813797,-0.288095 4.050419,-1.631288 9.692007,-3.146252 14.408055,-3.869063 0.553601,-0.08485 1.008879,-0.176092 1.011745,-0.202764 0.0024,-0.02667 0.456627,-3.845452 1.008367,-8.48618 l 1.003164,-8.437688 0.469327,-0.0563 c 2.762177,-0.331372 11.487251,-0.331775 14.213971,-6.43e-4 l 0.46687,0.05669 1.00171,8.464401 c 0.55093,4.655421 1.01545,8.477305 1.03224,8.493078 0.0168,0.01577 0.57021,0.111415 1.22981,0.212539 4.56695,0.700158 10.16075,2.210238 14.17248,3.825942 0.39786,0.160233 0.76406,0.290209 0.8138,0.288836 0.0497,-0.0014 0.26357,-0.242302 0.47518,-0.535395 0.21161,-0.293095 2.50611,-3.372094 5.09889,-6.842222 l 4.71413,-6.309323 1.54001,0.74695 c 1.93675,0.939377 4.1335,2.138115 6.33715,3.458086 1.89172,1.133132 5.18261,3.294272 5.18261,3.403442 0,0.03825 -1.48907,3.53263 -3.30904,7.765303 -1.81997,4.232674 -3.32572,7.755073 -3.34612,7.827554 -0.0246,0.08734 0.34753,0.448099 1.10323,1.069624 3.57547,2.940682 6.84946,6.214667 9.79014,9.790148 0.62167,0.75586 0.98226,1.12777 1.06963,1.10318 0.0725,-0.0204 3.59396,-1.52617 7.82553,-3.34612 4.23157,-1.819954 7.72596,-3.309005 7.76531,-3.309005 0.11004,0 2.25699,3.265655 3.40723,5.182615 1.29776,2.16285 2.49802,4.36386 3.45589,6.33735 l 0.74756,1.54022 -4.96264,3.70665 -4.96264,3.70666 h -13.21238 -13.21239 l -0.50775,-0.70673 c -2.60082,-3.62003 -6.09242,-7.26172 -9.68364,-10.09994 -10.65949,-8.424417 -24.24962,-12.166527 -37.734624,-10.390405 -12.481269,1.64392 -23.929926,7.963185 -32.044214,17.687295 -0.781236,0.93622 -2.191892,2.77138 -2.516829,3.27419 l -0.15223,0.23557 -13.246522,-0.006 -13.246519,-0.006 z m 35.72164,3.47733 c 0.711052,-0.98666 2.753947,-3.25809 4.17997,-4.64753 6.786061,-6.61206 15.00422,-10.88838 24.286554,-12.637483 2.773943,-0.522707 5.404813,-0.754908 8.553177,-0.754908 2.49334,0 3.83808,0.08293 6.14226,0.378786 8.94575,1.148645 17.47802,4.969915 24.48232,10.964675 1.87204,1.60222 4.50397,4.33044 6.10888,6.33239 l 0.44638,0.55681 -4.33712,0.0222 -4.33713,0.0222 -0.82642,-0.79318 c -3.93218,-3.77401 -9.12556,-6.91274 -14.48349,-8.75339 -4.36253,-1.4987 -8.5279,-2.19 -13.19568,-2.19 -6.516325,0 -12.406375,1.39821 -18.203418,4.32124 -3.537665,1.78379 -6.703121,3.98614 -9.35227,6.50678 l -0.953192,0.90697 h -4.340294 -4.340295 z"
       id="path3721"
       inkscape:connector-curvature="0" />
  </g>
</svg>
